<mxfile host="65bd71144e">
    <diagram id="hniKwBwSS3WLSJOfy_Ag" name="ページ1">
        <mxGraphModel dx="891" dy="612" grid="1" gridSize="10" guides="1" tooltips="1" connect="1" arrows="1" fold="1" page="1" pageScale="1" pageWidth="827" pageHeight="1169" background="none" math="0" shadow="0">
            <root>
                <mxCell id="0"/>
                <mxCell id="1" parent="0"/>
                <mxCell id="41" value="" style="rounded=0;whiteSpace=wrap;html=1;labelBackgroundColor=none;fontColor=#F0F0F0;fillColor=none;" parent="1" vertex="1">
                    <mxGeometry x="90" y="50" width="300" height="780" as="geometry"/>
                </mxCell>
                <mxCell id="29" value="&lt;b&gt;Google &lt;/b&gt;Cloud Platform" style="fillColor=#878787;strokeColor=none;shadow=0;gradientColor=none;fontSize=14;align=left;spacing=10;fontColor=#717171;9E9E9E;verticalAlign=top;spacingTop=-4;fontStyle=0;spacingLeft=40;html=1;labelBackgroundColor=default;" parent="1" vertex="1">
                    <mxGeometry x="414" y="320" width="386" height="390" as="geometry"/>
                </mxCell>
                <mxCell id="30" value="" style="shape=mxgraph.gcp2.google_cloud_platform;fillColor=#F6F6F6;strokeColor=none;shadow=0;gradientColor=none;labelBackgroundColor=default;" parent="29" vertex="1">
                    <mxGeometry width="23" height="20" relative="1" as="geometry">
                        <mxPoint x="20" y="10" as="offset"/>
                    </mxGeometry>
                </mxCell>
                <mxCell id="52" value="" style="rounded=0;whiteSpace=wrap;html=1;labelBackgroundColor=none;fontColor=#DBDBDB;fillColor=none;" parent="29" vertex="1">
                    <mxGeometry x="28.07" y="165" width="341.93" height="215" as="geometry"/>
                </mxCell>
                <mxCell id="38" value="Artifact&#10;Registry" style="sketch=0;html=1;verticalAlign=top;labelPosition=center;verticalLabelPosition=bottom;align=center;spacingTop=-6;fontSize=11;fontStyle=1;fontColor=#F0F0F0;shape=image;aspect=fixed;imageAspect=0;image=data:image/svg+xml,PHN2ZyB4bWxucz0iaHR0cDovL3d3dy53My5vcmcvMjAwMC9zdmciIGlkPSJzdmc4MjciIHZlcnNpb249IjEuMSIgdmlld0JveD0iMCAwIDIwNS41MTIyOCAxODAuNTE4MjUiIGhlaWdodD0iMTgwLjUxODI1bW0iIHdpZHRoPSIyMDUuNTEyMjhtbSI+JiN4YTsgICYjeGE7ICA8ZGVmcyBpZD0iZGVmczgyNCIvPiYjeGE7ICA8ZyB0cmFuc2Zvcm09InRyYW5zbGF0ZSgtNC42MDIwNzI4LC01Ni43NjcxMjYpIiBpZD0ibGF5ZXIxIj4mI3hhOyAgICA8cGF0aCBkPSJtIDE0Mi4zMDMzMiwyMDIuNTM2NzUgMjYuNjMwNzgsLTE0Ljc0MDkzIHYgLTI5LjExOTQ4IGwgLTI2LjYzMDc4LDE0Ljg2ODYzIHogbSAtNC44MzQ4OSwwIC0yNi42MzA3OCwtMTQuNzQwOTMgdiAtMjkuMTE5NDggbCAyNi42MzA3OCwxNC44Njg2MyB6IG0gLTI3LjM3NTc4LC01My4zNDI2NCAyNi42MzA3NywtMTQuNzQwOTMgViAxMDUuMzMzNyBsIC0yNi42MzA3NywxNC44Njg2MyB6IG0gLTQuODM0OSwwIC0yNi42MzA3NzcsLTE0Ljc0MDkzIFYgMTA1LjMzMzcgbCAyNi42MzA3NzcsMTQuODY4NjMgeiBtIC0yNy4zNzU3ODgsNTMuMzQyNjQgMjYuNjMwNzc4LC0xNC43NDA5MyB2IC0yOS4xMTk0OCBsIC0yNi42MzA3NzgsMTQuODY4NjMgeiBtIC00LjgzNDg5MywwIC0yNi42MzA3NzksLTE0Ljc0MDkzIHYgLTI5LjExOTQ4IGwgMjYuNjMwNzc5LDE0Ljg2ODYzIHogTSAyMTAuMTE0MzYsMTg1LjQ1NzQzIFYgMTA4LjU1NzM1IEwgMTg5LjY4MTczLDk2LjcxMDk4MSBWIDE5Ny4zMjgwMiBaIG0gLTIwNS41MTIyODcyLDAgViAxMDguNTU3MzUgTCAyNS4wMzQ2OTYsOTYuNzEwOTgxIFYgMTk3LjMyODAyIFoiIHN0eWxlPSJvcGFjaXR5OjE7ZmlsbDojMzM2N2Q2O2ZpbGwtb3BhY2l0eToxO3N0cm9rZTpub25lO3N0cm9rZS13aWR0aDowLjI2NDU4M3B4O3N0cm9rZS1saW5lY2FwOmJ1dHQ7c3Ryb2tlLWxpbmVqb2luOm1pdGVyO3N0cm9rZS1vcGFjaXR5OjEiIGlkPSJwYXRoOTY3LTAtNiIvPiYjeGE7ICAgIDxwYXRoIGQ9Im0gMTM5Ljc5MjI1LDE2OC4yODM3OSAtMjYuMDI5NjQsLTE0LjUxMjkzIDI2LjAyOTY0LC0xNC40MTkzIDI2LjIxNjg5LDE0LjQxOTMgeiBNIDEwNy41ODE1NywxMTQuOTQxMTUgODEuNTUxOTM0LDEwMC40MjgyMiAxMDcuNTgxNTcsODYuMDA4OTE4IDEzMy43OTg0NiwxMDAuNDI4MjIgWiBtIC0zMi4yMTA2ODUsNTMuMzQyNjQgLTI2LjAyOTYzNCwtMTQuNTEyOTMgMjYuMDI5NjM0LC0xNC40MTkzIDI2LjIxNjg5NSwxNC40MTkzIHogbSA4Ni43OTQ3MDUsNjkuMDAxNTkgNDcuOTQ4NzcsLTI3Ljc4NzQ2IHYgLTI0LjA0MDQ5IGwgLTQ3Ljk0ODc3LDI3Ljg1ODIyIHogTSAyMTAuMTE0MzYsODQuNTUyNTU3IDE2Mi4xNjU1OSw1Ni43NjcxMjYgdiAyMy45NjU5MjEgbCA0Ny45NDg3NywyNy44MjQzMDMgeiBNIDUyLjU1MDgzNSwyMzcuMjg1MzggNC42MDIwNzI4LDIwOS40OTc5MiBWIDE4NS40NTc0MyBMIDUyLjU1MDgzNSwyMTMuMzE1NjUgWiBNIDQuNjAyMDcyOCw4NC41NTI1NTcgNTIuNTUwODM1LDU2Ljc2NzEyNiBWIDgwLjczMzA0NyBMIDQuNjAyMDcyOCwxMDguNTU3MzUgWiIgc3R5bGU9Im9wYWNpdHk6MTtmaWxsOiM1Yzg1ZGU7ZmlsbC1vcGFjaXR5OjE7c3Ryb2tlOm5vbmU7c3Ryb2tlLXdpZHRoOjAuMjY0NTgzcHg7c3Ryb2tlLWxpbmVjYXA6YnV0dDtzdHJva2UtbGluZWpvaW46bWl0ZXI7c3Ryb2tlLW9wYWNpdHk6MSIgaWQ9InBhdGg5NjktOCIvPiYjeGE7ICA8L2c+JiN4YTs8L3N2Zz4=;labelBackgroundColor=none;" parent="29" vertex="1">
                    <mxGeometry x="136" y="40" width="45.45" height="40.04" as="geometry"/>
                </mxCell>
                <mxCell id="67" value="" style="rounded=0;whiteSpace=wrap;html=1;labelBackgroundColor=none;fontColor=#E0E0E0;fillColor=none;" parent="29" vertex="1">
                    <mxGeometry x="148" y="178.75" width="202" height="187.5" as="geometry"/>
                </mxCell>
                <mxCell id="51" value="Google Kubernetes&#10;Engine" style="sketch=0;html=1;verticalAlign=top;labelPosition=center;verticalLabelPosition=bottom;align=center;spacingTop=-6;fontSize=11;fontStyle=1;fontColor=#DBDBDB;shape=image;aspect=fixed;imageAspect=0;image=data:image/svg+xml,PHN2ZyB4bWxucz0iaHR0cDovL3d3dy53My5vcmcvMjAwMC9zdmciIHhtbG5zOnY9Imh0dHBzOi8vdmVjdGEuaW8vbmFubyIgd2lkdGg9IjMyOS45MjU5OTcyMzE3OTM4IiBoZWlnaHQ9IjM3OC4yODQ5OTAzMTEyNzg4IiB2aWV3Qm94PSIwIDAgODcuMjkyOTk5MjY3NTc4MTIgMTAwLjA4Nzk5NzQzNjUyMzQ0Ij4mI3hhOzxzdHlsZSB0eXBlPSJ0ZXh0L2NzcyI+JiN4YTsJLnN0MHtmaWxsOiNhZWNiZmE7fSYjeGE7CS5zdDF7ZmlsbDojNjY5ZGY2O30mI3hhOwkuc3Qye2ZpbGw6IzQyODVmNDt9JiN4YTs8L3N0eWxlPiYjeGE7CTxwYXRoIGNsYXNzPSJzdDAiIGQ9Ik00My43NTEgMEwwIDI1LjQ2NXYyLjU4OCA0Ni45Mmw0My43NTIgMjUuMTE1IDQzLjU0MS0yNS4xMjFWMjUuNDczem0yLjQzOCAxMS44NTNsMzIuMTAzIDE4Ljc4MlY2OS43N0w0My43MzkgODkuNzA1IDkgNjkuNzYyVjMwLjY0MWwzMi4xOS0xOC43MzZ2MTQuMTU0TDI0LjUwMyAzNi4xNTNsMTkuMTcyIDExLjUwMiAxOC44ODYtMTEuNTU0LTE2LjM3Mi0xMC4wMjR6Ii8+JiN4YTsJPHBhdGggY2xhc3M9InN0MSIgZD0iTTIyLjAyNSA0MC40OTZsLjE2NiAxOS4xNDMtMTMuMjQ3IDcuMzN2Mi43NDJsMi42MzcgMS41MTQgMTIuNjQ4LTYuOTk5IDE2Ljk2MSAxMC42MDJWNTEuOTkzeiIvPiYjeGE7CTxwYXRoIGNsYXNzPSJzdDIiIGQ9Ik02NS4zNDQgNDAuMjZMNDYuMTg5IDUxLjk3OXYyMi44NDdsMTYuODk5LTEwLjU3NiAxMi41MzkgNi45NzQgMi42MDktMS41MDV2LTIuNzY1bC0xMi43ODQtNy4xMTJ6Ii8+JiN4YTs8L3N2Zz4=;labelBackgroundColor=none;fillColor=none;" parent="29" vertex="1">
                    <mxGeometry x="60" y="165" width="37" height="42" as="geometry"/>
                </mxCell>
                <mxCell id="72" value="apply" style="edgeStyle=none;rounded=1;html=1;entryX=0;entryY=0.5;entryDx=0;entryDy=0;fontColor=#FFFFFF;startArrow=none;startFill=0;labelBackgroundColor=none;" parent="29" source="53" target="67" edge="1">
                    <mxGeometry relative="1" as="geometry"/>
                </mxCell>
                <mxCell id="73" value="" style="rounded=0;whiteSpace=wrap;html=1;fillColor=none;" vertex="1" parent="29">
                    <mxGeometry x="10" y="30" width="190" height="121.75" as="geometry"/>
                </mxCell>
                <mxCell id="53" value="" style="shape=image;verticalLabelPosition=bottom;labelBackgroundColor=default;verticalAlign=top;aspect=fixed;imageAspect=0;image=data:image/png,iVBORw0KGgoAAAANSUhEUgAAAWMAAAIICAYAAAC7GY/lAAAAAXNSR0IArs4c6QAAIABJREFUeF7sfQeYZEW59lt1Qvf0dE/amZ3NsCzrIptAUDEhK6DALqIIqFfCRVGv8d7/cgEFwyqIoqBeE3BNgHjVNQK7hB/9MSJJwgYJy+YwOfV0POdUff9TPbswO9O5T3efmT31PPs8PEyFr96qervOV19g8IuPgI+Aj4CPQN0RYHWXwBfAR8BHwEfARwA+GfubwEfAR8BHwAMI+GTsgUXwRZiMwENEurWxJ2CzoCmYbhqSGw6YQbql6TbjhTAjLh1OpkW6dDQIK61Z9mBXzL501ZFpgFGh9v7ffQRqjYBPxrVG3B8vg8C6LVvMkDi20aBUiyVSTRo3DyFYhzuzmMQizrWjwGgBJB3BGJ9DRC1gCBUBYx8Iu8FZFwTtAqe9UtAeAl7Qme4cbE9kkRFoiMdse6R1sD+6atXCVBF9+1V8BFxHwCdj1yH1OxyPwNq1xF9zxmBYBPROztEmiBnq7xxsJjhWAjiFAa8BEKwHcgzMJtBzBPyRwB4lKXcpOXRGjmBsOGg5XX9b/63RtWvXynrI5495+CDgk/Hhs9Y1mam68RrWnDlBMzjPsdMhphkGpLOYMe1tIPk6MNZcE0EqHoTiAP5BhHsg6VliZDONx7jUd8+0G3pOPJHZFQ/hd+AjMA4Bn4z97VARAuvWkda8ZGSBxdgrIVmAMd4EhlUMeBtAsyrq3HuN9zCGDQT2sBQyxjkbYA6efezu8MDatcy/OXtvvaaURD4ZT6nl8oawf32OIlERe7W05RzGNQOQJ4Oxc0Fo8oaEtZGCiLZyzn7JJHtBMtic5D/OXBF5Acx/IKzNCkyvUXwynl7rWbXZ/OH5xNxUWr6Zg8IEdBLwHgDHujUgY4DOma1p0DlnTOMsrWvgjI3pmCspUpItCNxxpCYlsx0hDeH6PZYJxuiXJPAn4pAO7L+/Y0Xbpkrk9tseXgj4ZHx4rXdJs733mcQ8aPItJDGDMXoFEd4NoLWkTg5UVhtN15kwdU6GAaZzxsFetnPnDDA0ltY0mLrOmamxhK4zjTEEyhlvfBtJlLYd0iybdOGQZQuYjhxn3UYAEWTalkjbRI5DWoW2b6rHuwD8BWBxxozfn7U8uK3SefjtpzcCPhlP7/UteXb3PB9t5yl+OoGOAmNHMdAaADNL6YhxyKDBnVCQc41DV20zN1+diYDBqcHk4Bya+t+l9FvNulKSTFmkyFjattQPkDHZDiGZVv9fMiqDoRkQI7C7GWNbiGinaVkbTj+xbaSac/H7npoIeOYwTE34pofU67aQGRax1xHwJgIWAHQqA1tYLFmaOncaGxgPGDxjK8wVGQe4EzSYpmlMke5ULRkyTqQls5UBHAGCSCRTJBNpoUtZ0o+JJKJdjLP7QGwbZ/j9mcvDG6cqML7c7iPgk7H7mE6ZHu95OjFX52I1MRxHpGx+2fEANRSagKEzEQ5p1GCyzK1X3XhDAc4MvbBnXKG+vf73zA3aJplOS00SmBCwownBkmmZwaLIMgRl00xyCzg9tJA3Pbh0KbOKbOtXm6YI+GQ8TRc217Qeeoj0VEf0eCH5RQw0H2AnAJhfCIbGBi6bGzX1tgZNg2wIcDL0KX3rLTTlov4uCSKVVrpmqYEYonGHoglZ7LlywLAZkjYS0YPgtGHNipahogb2K007BIrdNNNu4ofbhO55gkIsEDuDgb0bRPMAnAjAzIdDJMRlU6PONA5mGoyCpjJuONyQK22+aYsoZY3pl6NxgZG4KKoDAr0Iwj/B2f2GxK/ftjLSW1RDv9K0QcA/WtNmKbNP5OE91DA0FP83QL4VY3rgJfmmHFY34LCmVA7M1BkZBmPqNuyX0hFI24S0JSEkYTgmZSwhCgY4ArCXgT1PwL0yIO84e0lTf+kj+y2mIgL+KZuKq1aEzMozLrwk9h1iGVvgVwDI6Q1nGky2NenUEOCaoTEydDCubM384goC6pZsOUS2I5VlhugbdrgQlJ+YGesGye0c/FeWmfzBOcd0jLoijN+JZxHwT5xnl6Y8wZ544gmjJ7DkZyA2D5DLANaYrSfOGIUbuJjRokPXmGbqTFlB+PuhPNiLbiWkImUgZUkMjjiIpwrql3sB2k0SNzeujNyxirGXIs4VPahfcUog4B++KbFMhYW89dYnjHmvW3I7CMvAMqqIrPpgXWPUGtFkS0TT1H/rWmYL+PugMMSu1lA+J44gOA7JgREHIzHBC5gx9wDocwT92znHN/3NVWH8zjyBgH8IPbEM5QuhQlS++tzRH4CxN4KUjXB2jzWlfuicYTiNDdxQJMzHeb+VP7rfslIEMrbLkiAlqH/YpqGYYAXsl7sBDKUJp5zrP/JVCr+n2vtk7KnlKE2YezeOfpGAfwFj80CU1W1Y0xgdMdu0AzozlUuG/xhXGsa1rC0VKRPQO+SI4VHBhaRc51NdonvB2GOrl4ffXksZ/bGqh4BPxtXDtmo937d59D1S4tMAXqm8jCmHmmHx/IBl6txUxhC+QUTVlsP1jtVtWf3b32+JkbjkMjcpCzC2jyS7Yc3Kxu+5LojfYU0R8Mm4pnBXNti9W0aPlYK+xsHOzEXAaoRFc4PxUDD7w11lEvit64HA9v1pGU/KnNYXjIGI2GMpK/nOd53Y0VUPGf0xK0fAJ+PKMaxqD+vWrdOsBac2toQCVwN0BVMZi7IUdfOd1xFINUd4QF2EqyqU33nNEZCSnOd3p3QV+jN3wCKKS8lu0/Z3X/7YYz+1/VRRNV+migb0D21F8FWvsbrqrP9HV4MejLxdCvoCGFO2wpOKxoHmsJbubDNMXQWc9Mu0RiCRlmJnl6Up/XKeKHJ/YpyuEanIU2efyBLTGpBpNDn/8HpwMX/80I5g58z2o6SgyxjY/8kmorKIMA0m5nYYmnJT9uA0fJGqhIAi4e5BR47EHK6iymUtjKUh6RYZpOv2j74w8uETT/Rz9lVpPdzq1j/EbiHpQj9rifiJm0aaQVy9kN/IGGuf2C3nY7bBs2boQgXuySRa9sthiYCyU97ZlYYjoEJ9Zj/LRPcT0TcDkaZHTl/E/DjKHt4pPhl7ZHHu3UoBYSVXMuGcy8CuyiaWoTM0NWpOe7OuAvdM5TjBHkF96otBBBqJO7J3yNEsi5DtnswYYiRxkyNS/5M+vr3nAsaKi1409eGZUjPwybjuy0Xs3kcGI9QQWA1GXwMwd6JIGgeZJqeOZp03h30OrvuSeVAAFZCoe9Amla3EsrPfkgn0IwZ2u2OmnvJjXXhvEX0yruOaqEe6ezfFlwHiNIB/PZsoKmZEc0RzWiIaggYvJYB5HWfmD10PBNSbXjTuoG9IMEXO2W7JxPAiSfkdO8XuPPe1TQP1kNMfM4ea3wemfghs2Jx4F6T4EIC3TtYNgwImpxkRjbc2+Rxcv1WaeiMnUpL6hu1M7r7cumR8QdONOwO9gZ2rVvnBh7ywyv7NuA6rsO7hPQ2hxuYLGGO3AAhOFEHFkWiKaKIlrCMUGEttVKuiHAh0BkdnKmEoU2YaVmrMTdfwAwrVahUqH8cRRCNxQUPRTEqoHOec7iTGfpsYHb7vgtfPT1Y+qt9DJQj4ZFwJemW0vWdj9BhOOBuM3ZCN3FRGjfZmg9qaNMnYWGblWhWTMzI5KMBhmTzzI6D+JRPqtZ6IJR0K5vP8q5Wc/jhFI0CjCYneIVsRcla7ZAa2E5A3N0Qi31q1kKWK7tmv6DoCPhm7DmnuDtc/E307Y+w9AM4/QHQvVVYmaw1BJtsiOmsJZ0zWaloUEYd1RcQZx5FJ+4KAZNQmmRQUqjYhE5Ejx4KZmZIoLiSpSMuhcgDhYAkG2FxjjRwQanosR2S7cvqfCm2U2mJoVNBoQrBsagsCJCNcm07Rt309cv1W1CfjGmG/YePohwn4BAOOAZQK4OWicUZtzZqyG2Yq20aNRDpkmLDOKKLnj20sCfE+S+qSsofpLFFuKRTrCkoLUJDoZXtpAjkq0ackMiUhdoCMswbJLzgmIcE50hrnEY3BYcik8Xs5wh2DYzAe1zkLcDZZZVSw/ylSwXZIkTH1j2Qe93Kd++9yzm8/c1nj41NkWtNKTJ+Mq7ycRMQ3bI59jBE+A2DmxOGUUnZ2u0ktYS45r4/tsMaQIeKGItypYw66YoJmKUuQEqCTggBbCIhMu8z1VDqSSEhKS8qoP2r+NZCRn8HRGE/oDAGNsTGSZrBNzpM6Z0FWIGlrCRjUvaoKBjeaEOgZsJkygctRfi9B685e0fT9ugt8mAlQyoE6zKCpfLoPbekNJ5zgR8DY5QA6J/aoaUzMnmForZG6XIZfEifAx27FRhFpl1TS4+6UbMqHjvrsdYjSlpCciALKMUHF6VU34TEy9nYgI6YIGszSOFOO5jpnPGUwCEPjiqxrqsevfBdO7kERcv+woHhKZLJYZyl7QPjR6pWRtdUY3+8zOwI+GVdpZ9y1KdapEX2MAR/OdiMOBrjobNVZ05hLc12LyQFFxsWGuOhKyUnyKrVCSgh101XxlUkCti0yYR+nPHkxxmydQXLGDAZIU+OOyZnJGKv72pW7cZJpoqFRR/3jcvJyqp/LKAP7n8d+feNVfvS3clEurZ1PxqXhVVTt+56JLiGufYwg3wvCpPgSbRE90dqkBUNBlXuj/kWlwTugpihKmK6UtFSOPXX7TTrqlZ4CmduwlMoEzhNzKmoi5VWSGmNS40zjDDKgcdtgLMAyquipVZQeORoXrGfQybyWTi4UZ2Dfj2nhqy5YytSa+6WKCEy5DVRFLFzpesOm4ROJtP9gwGoALRM77Ww17JaIpmJLeObGqDZBWGeZf8WU56KWDYIhQUK9tE18kCymj2lShzTOhMaYxgixcEDXOdAwleambsXxlJC7e6ysN2QCxUDsJ7Z0rn7n8a3DU2luU03W4k7fVJtVneS97+noGyVn/0WgUxlYeKIYc9uNdHNYMzTNe5+3B8k434YQRM7uuK2P2hkG9vfO+AUeU2Wo91gtqGvxoMbLs/6oz96lREqy7fvTWW2RM4QMrEtb6c/4mUSqt0D+gXIJ2/ueTr5RcnE1iE4Bm3w7WjDTlJFGDs69R8QKAnUpVqqKoNJZZCkpQYl9CTsYd3Kn/3EJyinfDWdMcAauMz4cMbXmqRLmVDmGvLg3nQN/igPsLkeTnz9nafOLU36RPDgBn4xdWJQHNiVe75D8LGM4hYgmuTcv6DQRCWWI2IXRqtdFSGMirKtv7kP1vn0pxx6yBE8Jqq/ZR/WmXq2elQqD6xq3IkbGbtCs1kBu9asCDClCzqpCBpIg3O04yc+cc8JMn5DdAv1AP95mB5cnW43u7tkcW8mJPgfCGvWoNXGM+Z0mmhu1umRn7gjwhHbAc015tMUdSsQdimTBgRKOQMoRTHmotRhcREzNsSSlBtKi0RKkHTBJqwaE075PBpDCVeNMKlw5Dtgze3TmaZvw4t4UslpZAGki+Vub02feubxlm0enMCXF8sm4gmV7YGP0GAfscwDOAzKBdA4p9SLiiM7SYT3jUXaIbleZnFmCaNgmx6HMDwelpUzH0w6TgLKIyBS1KThjRESQvm64gh0yuamywDA5dxoNTf3wTdozrg5WQWeKkLfvt6STXS2lUjj9MgXx2XetaNlewTB+03EI+GRc5na468n4HF2n/wLwSWDy5/v8mSZUDOJaFo1BdgR4RhuSb2FHLIGdsbGUaDn9sGop+OE5lmjQNdFocJ3Bm+8I+QhZmTIC9AOL2GfPXRnpPTyX0N1Z+2RcBp53PUcRPTX6QXB2U7bm82aaqLVXXYvJrZAG5ZRQcE0VGe84QMZlTN9v4iICDCwVNjUENT7prcHFYcruSumQt3fb0rGzP9wS0U08aX/xrJNmRMsexG/40hepD0UJCKhcdXY8er7O+U8mNlMvNHPaDbTVMBi80kPOMMCNIh8HLUlyX8IRI5bw7CdyCcsxbaqanMdDhqbrGQcSb00rZUns7LJUoPqsghFwbUILf/WCpUyZwPmlTAQ8tuxlzqJGzZ54gowec/QsgP1u4pCKC2fNMOSMJvXVWfh2WqnIBxw17LDBlD91UV5v6ihFbUk7Ri1/3StdgCq1bzT0dFBTBi3QveTUl0hJ7O7JQ8hSfIqcxLfPPnFOokrQTPtu/UNZ5BLf+gQZcwOJtzKS6yc2USEw21t02dGSOT9FEWORw2atpoi/zeQyMBbYp6g1VEScdKTYGXeEJaTnTawqwWeqt+WMJcKmZprKytBDjBxLSuztzU3IAF2uU+LWt62cFZ/qa1AP+Ys6yPUQzEtjriPSGjfF3gDCfRODnCsibo3oTkebxvSx7BhVK8o6wmCgJoOpcGIlrZ0lSfSkhD2Qcjypm6waaFO440ZDTxmc6Trzzi1ZRXzb12fnUlkIInyC7PDtZ5/I/BtyiXuvpANdYt/TorqK23vf5pGjQNqdBJw0flIqO0dTSHM6Z+gw9eqaKanv1kadO4165um9aDMNdSO2hJSDlnR6ko5/I55iu5IzHosYPGRomc+gqn91FQNPNC6wvz8nIe9joI9jb899Z521OJc7XzHDHHZ1fDIusOT3PLE/xPXw58HZlROrhoJcdM4wKBzkVb0RKyJuMhiFxlyVi14zRcRxW8qBtCOGLOk/2E3h4x02dEs58enesE2mkZhA14Ct0jhNRpWx3zuwLn9qWevmtUyZsPulGASKPtjFdDbd6qxdS/zEd45exBi7beLcTJPLzhZd2RJX7baiFkfnxWfhGC+jBGTUEnxfwrFtST4RT4PNqTOmLC4aAxqve6AmSYShqKC+YUepLCbxCBG7iQu64axXRfqmAfQ1mYJPxnlgXv9M/O2MybsmVjF0Rh0tOmY0FxlzsoylVPphlak5nEnOVvxtWA0VtaVMC2XCZlf1xl7GtPwmLiDQZOpSJZBlrD5pug5OQcVD7h92aDBHgHpGdE1TIPLtNx7DRl2Y9rTvwifjHEt8z1Mji7nG/wxg1vgqusaovVWXHc160XrbUneRumqHdMiQxsngxeuH04JE3JHa/qTjOJJ8Ii4V+ClUP6RrlqmpVFm8ru8AybQkFZxeZZ7OBh8BH26MhO9YtZClphC8dRHVJ+MssKskovduHL0NjF00/s8Zy4kmTeWtU/+7KmSnMUaNGijzUFekWZMkyGFL8BFbOlFLqLRHU7ro8WEyo71OsH+XoaVLsJJiHHakXSRnzOd2cyeTel15qqproIIPaYylQoZmBrT6ZBQ/OMFMktNBByoE58RCwG6msXMe/2XjxrVrff1xvk3hk3EWdDY8E70CjH95fMwJBVRjiIt5MwNkaNUhYmU/HNEVGatP0OJezkdt6SQcib600BxZUsbmqpJFsZ0z4Yhg7w4Z2btZZ3Y6sx/N0QEZHNzrBHu2mXqySC9bSSBw227plImZRxupGfO4NMaSPRPTKDnrKJbsPApOpLWUN9Bip1GXeoqQGWOi0dC0oMYVE1bta63QBKNxQd0DNlPxLCYRMuFnZI9e5juE5EfRJ+MJ+NyzMX4WB60D6JBMDUopMX+mKcOh6jzYKSJWznuNOivqcUYFahmyBOtLCZFypEYlWFkUOljV/rsRH6bItsdYYKQb3LZEQ882Gd6zWWfCLn0/KgoSKh6d+geVDkppeQ4hJWKcErMXsdSsRbDDbRmkpBmSI8e8jqXa55c+ZrUBKrF/FWEvpGsiqGW+pepFyNQ/4qBvyGGOWo/JlPzV+HP3X33BBReIEqd32FSf8hvRzZVScSeQit9PhDeNvxWrzJOz242qBf9RRNxsMBwwXSs4JUEQQ2kHvWnBLTE1bsNaOk5NLz6GUPeLzEiOUOOuZ5g52j9GopUURcYqEd/YF3LR+1kaQRpddDzSrbMZaQYSc5dQ9OgTmTSnpk+MIuSgzu2gxpX6YuyToMbFEaCufgsjccEmLmsmyhvjb1+zvHFDjcWaMsMVvXmnzIwqEHT9xuhXGNgn1PvZwW6Un9vMNl3MbDGqcuNQC9BqMjTkSHc0cTopQc5g2sGQJTV7Cqglgv27ZcsLD1NwYDcP7X8OgaEuVjEBTwRFpaUQJCGKdw8f3wVxHen2uZSYvZg5oSbEjlxJ0cWvZqRV5Vmggh2av6mKlWwwbgXVq16dHvaSaaK9vWmWsib/yDKwJ2dajSedeCIbi9/ql0MQ8Mn4ABzrN42eywjfA9A5HqFQUHMWzjZUkGDX7YlLJeKYLWV/WshRW2iCir8F1nrPq7D0oa7nqe2ZB3hgaD+FeraTlhp1Hb9D5qUMX5UDgqwMF6kZSM+Yi9TMI5GadRQNLXtz5vZcawzLHU9pYHTO7ZChKZf5urxgxhKC9vXbzMqmPwZ+umZF5MJy5zed202ZTVbNRbj1iSeMueYr7ubgpxJedpBQ4CyaF5ANAV4VImkzmWwoMlN01BIqtgQlhdSkV4mYJEK922Xn337OzWgPNfTuYEw41Vy6Q/tW38Z2Jj2JK/vaCTUjNfMIpDoW0ODK0xGf/0pX+q02IIxBaow7DTrnQa263qHZ5qIyxPQNO8oGmYmJBhYEwbl2wZnLQ7+pNg5Trf8psbmqDer6jdGvA7iMgR2SH+7I2aYTCVXnW7XNZE6DljHaL7gGKhh8V8KhdMZioHD9auOVrf9AtEfO+cMPEBjezxp6truviih2Ui4TshpW6oGx23LHfOo76VzE5x9TTAz/YiWuVj3SObPGCFmruQemcpPe1ZVGcoK6QlmAEMMzj//6phPWrl3ru0qPW/2CRFCtneKVfu99On48cXk7gOXjZWoOa6kFnaZ6CHEdo9axG7FSRxfsWxHx/oQDRcReLNxKovPRXzrNLz6qBXt3gUmn4JyqPg8FlS3lgRuya/IoHXK6dQ4S846h7je9m6Xb51d9KpUMoG7IHCylTN8CGq/5o17OoPQEhzH2i7NWhH11hU/GLyOwfmP0JwzsfACHbNZjjghKQ3dfT9xkcCesQz3XFSSJEVtib9yG7UkiJjT07xZH/O7LmhntIy0dLzifSoil5LaZcHWZTwnX5VLOJHbzTPSddA4NrjiNieAhVpAli1rlBlJn3AoZXA/UQWUxMOLI7kGbZ8k03Q3Yb129om1Tlec/Zbp3faNOmZkDuOfpkY9zzj8FYO54uY+eFxANAfe9moIaky2GihhemCCitsTuuJ2x2vJiWfyLq0Wgfw83on3e3UNjhFy1rKtOQwQiGMb2930RqfYFQGkhpmu5rMrcLRExdd3gtTV7k5Lwwp50tvjHAoSHV6+MnFxLILw8lncPUpVRe+gh0pMzYj8j4FyVmf7gcE2NWmp+p6nS3LuKDQeoI8iRScpUoMRsmcne7FRqg1tooDL+boz2iVfc8Z+aERsEk1PAfr/KhKwgdBqbMbjiNLn/tEs5edcFm3TOk2FDMwxe3djbE7eVcgJ5YXcKkx7zgCGS9KU1xzVlTexbxvac0k0KEsOUnl0e4e/dOPptYrgMhEOs/JccESRTd/+K0xFgMItIGhp3JLaPWhmnMq+Veb+/1Wrb9HtDS41OrX0jyIadCZxUNbmVPlk99G26ch1Ir/l7WVFbhWUyxWjxRpMHah0XuWfQlr1DzkSrJOU2+cRZyyOvZSzjeXpYl6ptTi+jeu+Tox2k4/sAzhkv58LZgVRjA1fZeV3FpSPAYRZhHJcSRFtH01LIurm05ly2JT/4CBr6d4HRFH0At6QDWZ2YIuNBI67h+Y/cLJMzjyxixetzShp0Ld5oaAGV9LSWEmzenszm75MGw+9WL4+8p5ayeHEsV0nHixOcKFMmjdKm2C0EfGj833SdiaPnBrjh8q24WMsJS5LcEbWtpJTe8cclgp4alYt/egUL9u2a+ntFRRWrxf2LcfS+6QJn/6pLdEXOXixNpm6bnKvdXrN1TVsyoz/OciYfS9jOWy84sW3Ei1jVSqaaLUStJlRonHs2x1YySTcy4LSDdZVf/6K5JgsG3L3MNGhMNhfxYGdLon1JxxlOC8983ypnjVDPi6kF679uKlfmQrhOib8rHXw6o4iv+r4nxhFfcCy2ve86yMBL3vWegqnZ1GFWJ+5Vznkq3XGWyG7KfP7+x3/TuOZwDrNZ9U3ppd23bssWMywW3EiAij/xUmlr0tOz2nRDK9Ibrpg5Kds1FXNCvQTmK5KI+tMyuT9he+bEanaKWrb8Uc56+GfcHOmZXnvEpiQENRSzhpXWUVZ16c4jxNZLvqo5jS2VdleV9i0BnQxexGOGS6Orn8J/7khispEQPU42u2TNCZFnXRpqynUzvQ5aAfjv3Tj6ZmL4EghvOFhVZe44YrbJQi7eitU1UhFxsIjgPyoe8bZRq6a6u3wwqehq7Y/91ul4cr1mJIanx4144oRTGSqo2d5PzTxSbrvwOm41z/QcQXDG4s2mHtA5q8keVMCrzNKDI1nd5O96fOCJ89auWlVDH3rvLEnNNmS9p/zQDgrGo6PXMcYuHy/L7HZDtEU0FQjINSxUJufwmA1b3j6V5cTWqFVvaF4aX0+NUscTd4v2J9dzPT40PYlYzVaSBSsTg8S1NS+0iMlZi7Dj3Z9Fum1Ooao1/3tQ00bCBo8w5r6TU7bJCEnYuidNWRKZPqIR/9gZKxufrDkIHhiwZpux3nNd/0z0TQD7EmMqVvFYMQ0mF3SarKGQLqEE4VUS0WYjYz2RF9ukkPL5EcszhKcnotT+1HrR/o/13IgPekauEqAvrWqaBIhq+bpGiXmvpF3nXsFSM+Z57txFTN2pVVAhpaoYijpyX7+dbZ/9LLQ8fPEqxg6727HnNkVpJ6q42upWnByNXU3AZ8e3mNthWG1NmcSirhxKpZVQQeILxSZWweG3jqadlEM1jxeQDTGlmmjb+IAz89HfcHO03w0sCBm7UfVPsgPZN4pbrFrVUt/LYwE/ancGGKfRo46nPWs+wb14Q24OGI5ZI3WFcgTZvi89+TGP8DdAXr56ZfOjtdoKXhmndhuxjjPe8MzIawlc3YpPPShGMMDF3HaDh4LuPV6o/HURo6B6gnpCxHynAAAgAElEQVSSjtWVdDxBxFw4smnr3+Wsv/4vb+jbUf6NmHNCY1hA11UqVQmuOeCMIBwNUuoQQiKRYHDKSK1Urb0zFgavpmdAZRIZXHYKulddDLupvVozK6tfBiRnNJhGLeyP1e14JC5oT481EX+1Irc+/uvwxw43y4qabsSydkiFjR566CE92XrCvxNnN064FdttTfqkfGnlDmdyRk2Gsp7If7iHLUG74vaktDTljltJOxXnsmHfc2Lun25HeNfT5T3gKFV7IEhoaSXMnGXDDGT/kbHSAkMDQF8vRyrpjX2n7sXqMa+GtrZqvazIDPS94TzqO3ENowNJUytZRzfbhgwt1ahrNbF1V2E2d3alkSUryO+hsStWLw0/7ebcvN6XNw5FFVFa/8zoMsboWoC94+AwDUEu5swwWCjoTtB4pZ6IjCUTzTuThCPltlGLe8XVOdi/i2b/+Xa0PP9w+fugoVFizhyG1vbi+hgaIOzbA08Q8lioTYE6eDwmZi/G/lP/FaOLX13F3V9e102mnq5FyE2lJBqJOdjbOyELE1M/kfLGs1c0H6JWLG82U6dVcQdo6sxnkqQbNkYvJWLfH581d3a74bQ3Z5jTDf0oGjSgxeTE8+gfiYh2xR05YgmVybnuJTC4D7P/8hO0/vOP5cuifsuOPFqibUZp6o3BPsK+vUA6Vf/9p9I1WfVJ6ho7cjl1nfYBxOYfW38cxu0CBpaY0aCbDNU3d1MOIHt6LEqm5aEYEH4jpfzU2cc3by1/g06tlp7aBG5D99unho40df0aEC576VYcYHJ2u4lGl27FhlJP6FA2xXmxVLnruhK2J27FemKYZj7+OznzkXUayxJotuh1mDFTYuGi0og40zkRtj0PDA3Vf/9VMe5xETjS8LJTqOvUf2Wptjn1x2KcwCFDsxv16mcIUSE2h2OS9vVN0h33EuELa1ZGVF7Kw6J4agO4jfiGTfE1kPLHYHjppaSzVZcdrYYKPVsGiRwqoQKvUR8zZcv3Kh93pNgVt7kl6nMDGy+1ShYa2fm0nHfff7PASHf5GKjfnmXHSwTK9Jbp3kfo7lIPem4ve+n9qVilTn3Wxmlsoa63XIKBV53BvBTHQu3tSMCwAzUIt5lMy8ztOG0fugaM4WbOw585YykbLH1Rp16LaUvG6zcOtzJoHwNw7cFlCZhczp5hIBJyR1esIrG1GJyMPI92Kkbgnrgthy3Jpcr+VecSHNhLcx/8Hpp2PFmZLIqMTzip/NlYacK2FxjisfL7cKulCkSnLCtq/JB3UPzE3CXYf/oHMLrwOLdm5Eo/BudOSyBj+lnZXikgjXICGYwK6h6YZGnzAiNcc9bKyK9cmZDHO6kqyPWc+72bo28gyX4A4JiDcsxo1qmzVYdWQKVQjNycQXnZUaRAaqa+lKCepM1UFvl6Fz0+RLMe/oXT8cTvKg9IFAjYWP6qyvp54Z9A1AOBulQ6Y5vUQ155FiUuLOzQilXUtepipNvmeuZMquShIUNLh2pgXRFPSuzsTmOS1oyxq1cva/zKmN369C6eWXg3YVZhMtdvHn0HJ/ZSOnBNY2LWDIPaIu5kew5ojFoNppLZ5cTQkeTsiFlavE6fwIeoJwBq2P+8XLTuc9CTI5U/XDY0CixdUVk/XiFjBZQkCUu9wdaniIYm2r3642x42Zs9k75JkTHnzGkNGGqTV/bDWwBWR4D6hiz0j4hDzhOB7haMf/ac5eGN9VmZ2o06Lcn43k3DiyRpX2HAeQehbGvSZWebAV2rXFesHbgVhwvciruSjuxPCSY8oJ4wR3pwxD1fpfCeLe6sufpNO75CsyxPkfGBfHm1O3uTRkrMXkT7zvo4YguWurNGLsxFCRLUNRk2qh9rMxoXtKv70Ic8BoxISf+55rimH7kwHU934ZlFdxOlDRtHT2bABgLCB/vtaNUxq82dH3elK56hTNny3IpjjpT7Eg5LOhNMdtycaJF9MWFT84uPphb+5ksNrkVXr1RnnE452L6VIx6r2230EPiUiZvK/iprEywn29IppfW+Mz5MAyecyaRZkyifRe0gjTPRZOqWzlhVhUpZRF39FmLJCWeGsatD4cZvrFrIUkUJPEUrTTsyvucJCjEtdiHTcOvBNWkM8sytuLGh8oc7LWPKxihU4Ia9N+HQQMrxhKLLiPZh8Z1XyIqsJyZu8AwZv1bFnyhvD+3dRejrYRAeSWqqNJLqJcmp7mNVIZ6wmjqw69wrEVu4slDVmv1d5c4LaJqMGFplaqkCEisX6cGokwmxOb4Q8AyRuPzslS1/qNmk6zBQeQepDoIWO+SGjbHlAP0WwKKXVRQaZrcbcCNK5oFbMfJFtBi2hN2ddHhK1DQqWFaIuGPTjKfWJ+f9/lb3g9fPnp3G3CNLj7FBkNj+PMPQoLf2n3IJs+r/TtTzxnej9/XvgpcC0uucOep2rDHm/j4at3NHYgJ7e61Dg89nfiLpg6tXNN1WLA9MxXreOgwuILhhS+K1kOLhg5HCOGeyvVWnzpaMiU5FRVlQRHQmwzrL25e6FfenHE9gqydGcOytH5BaqgrqAMMgrDhBRWgrTdWwZyfQ14PJT+cVLU/ljT1CxiIQwvb3XYvYEcsrn5NLPajszQGNU6TKumNHEPUNOegfOfT8MODzaeF8653Htw67NCXPdeMJwnALlXVPDDY3BsyPguj6g302hTR73kxTaBoqDn6ifDs6VKDiPKgNWcLpSjrM8sCtmElBrZv+MHrEvV9vcgvjSf00hIClJXxS93RLdO9jsCd5XFVNxKI7lhCwpPpGrnivFD1mjordb3ov+tTtOFS9pStVRoMzJ2JojsZ5VfEZUKqKvkmqit2Q8kNrjmt+oFS5p0r9aUXGdz89ulTj7DFlHnlwAVojGubNNCtejzFvO0YqwWi+zvYlbPSlvKEH5VYSK755PjFR5Vu6IuRjlklo+V7cibB3N9DTzUDKy8KDJfOIBwlZf/USaTpe+MDXkZj7kpm8JwALaBxNZnXNsZVVxf4Bm2z7EFNDYgzvPWt55BeeAKIKQkwrMj6gL37JHlHpuTpadNHeqpeu15wAtgor1BnM/zWudMXqVpwWVN3dWuRGMIe6YktvufQli5Iim5VfTZHywkWEUKNy2hrbW45N6NkP9PQwSG/8SOWcYOYRjwAveOgA6iGPhpaezEiv/DJR/qIe2tLUuGwydWXuUM09LvuGHXQPTMgEwth/6DL2g7etnBV3az5e6mfakPG6Lb3hkAh9jIG+Mk5F4cyfZQjOWMVkrB7uOgqEYdifcNCb8ki2GCKs/Ma7bJ5OuGPP56VdW01ZPKI3zkyRc/nsv93CU51HVnPGJfXNGLOCGnfChlbVh7z+EQddE6wqAPyTGH1wzfKmh0sSeopUnjZkfPczwws1pv1zvL6vJaxhfmfltwplOTEzwKWWJ7hQ3JGyK+kgZsvSHrOqtFG4naKVN75j2qxvlWCa3K2XyBjACx/8FuJzl5RtQVgN3A6oKqqaskqpKroHbJWW6VCPPKJz1qxsursa86p3n9PksBK775nRV0jGnjsIqHJ/7mjWRUdr5d94RagoqCfloCtRZd1sCbtlzp9uS3Y+/POqGumXIM7UqeoxMo4efWLG7thLZm4aZ05I0yio86p9dUlJsnfYUZYVh1oucfYvoaWNv5yOCUunBRnfe+/WgJzf+T5G7IcHT31jAxfzO03H0CpTUSiAWgwmQnnM2SxJoifp0EBaVFOPVhKhHf/lM0qq71c+gIDIBJtXcco8czb++e+3wWsJTBt0jcJGhierhlPvkIOewUOtKhj43STFFauPa3phuu3ZqgFZS6B+82h0RqCB/RnAsS/pixs1HDHLHRXF7AIPd/0pB/sSDurvLjA2eyM+LJd96z2eUJfUch+4MpYkBzbZIHjmq+LFi7+M2MLj4KV4xwGNW2FDl5xVzwxQeeMpMnYmvPtKYqedvTI87bzxpgUZ37Up1qkTdR88jJwzam7kyqSt4vkp2+KZeR7uJEC9SQfdSe+oKOY9+L10xxN3V/xo6Qq5TbVOlK2xTQ6IPINfbMHSjBOICNbOMKbQsjEgHdJ1GTJ41X60LJvQPWhDeeWNL0R0TmJFZMMFjHncPKcQiof+vWKyKm0492uvXUv8Ne+MvoYY//vB3lUQ+bkdhmgMVq7TajcZAirjaI4SswXtTwpKON54uFNirvza28Edy32wD4ceVYAEmwCPmUJvuuIXcMKtnlqBBl1TVhVKpqqp5xQZK4+88UWSvMWw9S+ecWJjl6cAqVCYKU/GD+2gYGI0djuACw5iEW7QaOEcU2kNKvpUV+DMacjfxUBaqEwensGR2anUim9eEPTJuMyTMZYxWkXP8Myaqpk8/2/fpcSso1m5cZnKRCNvM52xRCSgk86YMiyvSukdsqF0x+o3clyxGMk3n7Wy+ZGqDFqnTj214crB4K6/9kX0pmAfgJc+K8MNHAvnVP6VaXJQRyB3SCBHvfimhOxNOVW7GZSKSfMLf+9e+NsvdTLpHbVJqXOoa30ieSDrR9UsBcqZX/9J5zh7T/+QTrqHxGJwGnUNId2dhA3ZcFEmbj2DDlLWoWE1ieF6UPjGNSvYUDl4erHN1Cfj5/oiuhWMHgRXUWdrRKM5HZXri9sDXAZ47tv1qC3F7rhNtvSGx53CYPGd/xUN79kSAeqfb8+LG76gTES2ilABh6p22ysoQ5YKTrhVbPn32zQvxTlWYjbo3G409KplAhGCaH+/zYYn6I0zvpLE/stA7PvTxSNvapMxEbtvS+zdUuJnB/ev0hfP69BFKFh5mvG5+VUUNJQW2OUhFYXCYPk3L4CefOm3qZxzf3i38SgZq0V55uq7IANVey8ra911xmKRgM6qqapQ8Y0HRiZ7thJhP0F+P6mnb7xg6UwPZLYtC8KXGnmejO/eklzAhP02TmwOcThw5NNpoT/Z2OCkhdRWA3Q16OWko6EAp0XzAuqVtSLVgcYYzQrmDgrkEJRtsexLOR76biSx/Jvv1nwyruBQeJiMN171S4hQcwWTc78pY7AadY016JVffnJJpzzxlHv0BL3xweo2QN8msBFdM/43OtK374LXz0+6P9Pq9+hZMr5/y0ibEPx8IpzCGN4Mhk5G6tMEWyRoEwNUDMZTwdghjvuhIMeiuZXri5sMLiN6bhWFSqu0K5ZRUVQcJ9mtZW7o3Z5cfOcVQS0d9+y6ujXXqvXjYTLeduF1TnTxayq6ZFQDt0ZDo9BYuPCq7DulougdzLhG5xNfMIbfSUIXYyzJiHaftSLynWrMt1p9VgW8SoUds5CIfwREl4NhbrH9McZkJMTtI2aZFbPxrCCnfJmfRyyBHbFDvYOKlbNa9Wb95c6+WY+sm8EcqyIrkmrJNyX6VQ94KoymRyLvjcds4IQzxe6z/0PzkkWFki+ocREyNKaVmmSgyA3hOBm9MUbih2aOztNcPZh0E2PfWL08/LUih6l7NU+S8YZnopeB8WsAKilcla6BOlsNu6258ngUyqQtFziCQANph/YnHE+R3pLbP5kI7d+qko56cl3rvtuLEWDMtM1zdsZKdKupQ275zzvzZzcoZo4u11EZcMKGjoCWLxlZRYPS3l6LDY2W5OOhDsE/TYPefNormwYqGr1Gjb14aNn6Z0a/yxg+UioGAZPTwtmmNAqkRSrUr/LxmJXHBTrhSCgripTwFukt/d7FMEd6C03P/3s+BFSgIBXP2GNOHwdEpqfWPuApW+ODUEYMHUG9eneTvX0WhqIlkTFANAKwb6xeGfnCVNj0niPj+58eXSo4fQ1gZ5YKYNBkWDw/WHFov7DO0GzkhmbUltg+ankmFsVBnHwyLnXHZKnvQXfo8VI+tfYBT4XTPChbo6HZIT2T6aUqbyhdAzYGR5xDE5UWWm4GSRIPr1kZeVOhql74u+fIeMPTsYsYp8/TuOzOxQIVNDkWz69YXZzJ6KHCZuYoNGpL2jbqPb2sT8bF7pQ89dTxtUhdwTxkJfOyvF4lYzMTcF5nGqsOGQ/HHPQOOoUe8bIsLHti9Yrwq13YGVXvwnNkfM/G6JUc7NMqcmWps3eLjFWUtlzaL4dUYCCbelOiet9kpU78QH2fjMsEbnwzlXbJzhhRee5sKDG9SsYqe3RExavNlwaxguWxBTn7ei0+mig1BoxPxmXDvn5j9CsM7IpS40owBtkW0WNzOoyK0+nmI2OlL1YqCo+kSTsEZ5+My952Lzf0WHD5iTPyKhkrOSOmriwrXFiErF3Q7m6LjcRL1BvDJ+OyF2TDpthXQaTIuKSia4xmtRuiNVyZn7x6vOsM5H6wjjsSW6Pei4jGhT147C2XNhvR/qro7EpajKlc2SfjslevymSM3T3WpHCahYX1ybgwRjlqlEvGhs7k0fMCCV1jFQV9bdQhmw2e00bHq2TMHLt/6a2XthZFxupyYTMLac2BZMUlltQoiqBshC61ymLhlb01atOwXDKWSEFyC5ZmgrFgXmEZJaCLJDTZDFaap6iXb8YNujYYMjQVRKAqPts+GdfmCLw0SrlkbBoMSxbkPwPFTGWGyWRAY1nJmAhi2JGJXaNWpJi+alknLxkLEFKaQJq7572lNKqNAjCkR7WrZaJfChkLnoatG5Bl/TwdqpfmcjSDpSZVgKKc3/peJmOd86GwoTUYvMCPUZlLs6/PxtBoTrfoHL36N+My4QbqTcbKvjhXLHlbktibcJIjlqjo9l02OHkaTiJjCcKonoaozsE4RBROQFhI6FQ1hWE1MJvUJ4EyjwH57MdJxXTTLQiucnpVTyVkOBK6VJn4DnlI9DIZKzybzIzzR1WWa3DEsXpHHM22SwlB4JNx2YvhZTJOCokXRrxnX6zAZo6NY2/5AMyBPolYFa3v860sI0KQJIJC86YtQoFtmfG+Uw4fWWIgSCZgcwmhKQKuDtvkEk8XKegioIj56c/fB8qI4M1STTKOpwS6+m0k06Vkm/TJuOyd4nUyfn7Ee493ejyKzj/+xm5/eIPOrVT9TbJ4hpQJAZHbp7zsHVLFhpIoE1ieDuhx1U2ZmGSORuS4qOKpYArbLvsixRcsYaLBU+GWX5pRNcnYkWTv6ba0WLIU8zafjMvebmWTscnkkvkF0jgXIVU+NYW6GXuJjJltwRgZwKLbrkOwZ3cRs6txFaUDDUqCTh5KfJ8HA3UjTmdsjAnECU7mn3t6dpfgH172OrHv7Ms0q63TpR7d6yZi6nZQ41X7etjVbSFaknmbT8Zlr245ZKyitTU38uj8TrNkR5HxgqpXO5UJOofOWCUdlS9ELU98I+rRQUS2baLZD/yUBQY8nJeRQSKgSFnkyZlS9nZxt2HmoZNsOFoagnvukXb8ZO1Iq3zxw9fz1Mx5nnKPbtC1gZChNXKg8tf0LKvrk7G7Wz5vb+WQsYoa1dGiJ2a2GRV9uwU4qM3kWU0pJJEcsmV8T8yu+yEN9Hdh9oM/k82b/84qUktwTjACQKhRoCEsEDB1cF2DcGykUw5SCQPJBIeV4pAVRs4xJSGorAU8ektWD54WIyRcfH3SDQnOFVkqhYcKXMMgHUC4471pR1qw/dLPITn3aJAaxwNFZzwWCWgBnbGquJP7ZFzDRS6TjDGr3XBmNOkVfVKqAEFNevagWA4R7Y07zrAlqrLJioJYqWL79mHeXf+DyAtPFdXkkEoqmWX7LIm2jrGTGwgKzJglccTRFl6xPI6WGY3Q9RCEGMbwQAwvbmnBrhcN9OwzM4SsyvCAhZ69BkTRsWVfFsEgCZWExSBv6ZIVUaY5kCiT0FRCmMYmwrwjAH4wqgkDIs1pBBsIma92EGyLIRnTkEy8vIeiw4S+/UC6PF2/3dyOne/5P4gfeSy8kKyUAbHmgBEwuE/GpR7Q+j/2TJC4LDLWmDxyljncGORtpQIwvn6LwSiks6y5lmxJ8sVRO5kWGTvQ2hciNHTvxJwNt6Hp+SeLH59xRcAC847U0BghnHiywPIKskVs++cwHrongmRcQ1+XhX07lYlX8SXzuCcBU7Ia2yRkl1HdWS0uEC9VN6x0WrMddM7VYAQYFi4ROP1dgGGWpsba8bzAo38gDPRoiI042LuLIzFaUh9W60zse/sHKbr4OOaFHHnNAR1mlW7q/s24+KNWcc1yyFjTmFw8P9hvaJhZiQDtAS7MHCrjtCA8N5KuT9hMRcT7d2DO/Xeg6bl/FD/FY4+30dqhY+kJNl77ltJIs9Ao6p3ruadj+Mv9YcSjDrb8Q8t8hhdV1IQkEKgzIWdM2ZiNuKaUFMWF+9N0wtFLCa3tHMe9PokVrw0gUPnDcQa2/u4E/v6ghq49BrZuBob6eK7EbxNhVoTcdcZFNLT89YyU6qmOpZpkXLoXnv+AV/ZWKIeMVVyKJUcEk5yhONfeHNJ1BrnQc4QAVGT87Ei67HlV0rBh33bMfuBOND/7eHHdzD/KwsJjTJz1niQ6ZlfFNXWcIITBXhv3/FRHzx6B5zcVqcY5QMjBjGNDfYoNC3FdBZIv/EPFONjipZLmHw28eTVh7pFKp1EdyVXqpz9vIOzayvCPvzDEokWNk2qfg+4zLqLhpSexeqosqknG+wdsMRR1uJTFYu+TcdmHq0wyxiuPrPzxNl8c43qRsboRZ4j4n48VxlQ9GL3xbRzHvz6FZa+uHJDCI75cQwqJPdttPPArE1v+IREbKfyprTz3GoSEWQcdss3SSCrTtSI8FGfNl1i8nHDymQxHvVIRY1HkWAp8OXQoEg/8GvjnkxaefTIA4RQcN9W5APvfdiFGlp6EzONhHUo1ybhv2En3jzi64xTrheeTcdlbwCfjl6ELdu+mOQ/cSc2b/174VB35ijSWvVrH6vdqqDwfa9nrh+EBwuN/svHMIwzPPlX4lqyRRKNgGVvkWhWHJRHnHILl/55XrweLlxLe8k6JpScAoXDhH5hqzGH/riT+8ZcgNvwvMo+ABUpyzlHYf8ZFiL6yPjHVm0w9FdC4WnvX8RocFU7voK3ZTrH7xSfjQvsl5999Mh6Dxhgdos4//ka2//UexmQBU6jXnWrhdadJLFkZgJ4nX1TZq1JiQyEkdr8osOF/DTz1cOHGyuxNEXJBmincVcEaKvdzXLNhs/zqG/WDdsxKwpnvBV6xvBaSFRQdD/6acNdPCMlYwR/nxLyj0XXmJRR9xfE1l73R0PuDGmvijBVW/xSe9SE1hmMCPYM2LOW2XlTxybgomLJV8skYgBTqoY7m/+ZmmCP9+Q/TqrdLnHm+g7ZOA9kNQcpei4ob7t0B3P0TwpN/HbOxzVdqQchEhLguYbH8N7ZIi8AJbxQ4ebWBIxbXnMzy4vSX+wkPrEuja3deNZSiqujS11DXmf+KZOeCms4hpPP+Bl2rChmPJsbiU6R9Mq74eBbswCdjZCwn5t91KzVu35L/EL3lHInV7wVaZhS8KRUEvloV9u8i3HUH8I+/FCJkykR+M6Xrn7YvTS3BCakC6eRbZki88UwHJ5/JMaOzIrv1akGKTY9b+MXNshAhO6EIuk+9AP1vOBtUWc6FkqYS1LV0o84NzpRdpbsllhTYr8jY8m/G7iKbpbfDnYxVrIlZf/gFtf/9vvxEfMoaG2vex9AyQ0dWy+iqL1XxA3TtJvzmh8CTD+efkw6JiF0dh5A0s5HQjLy2ieEmiTedaeO0cw1P/8CRBDY9YeO2GzlGBvP+eKVmzsf+sy4Ze9CrUTE4jzeZeoCXGDi/GPGSaYm9vTZSVrEeob6aohhcs9Y53Mm4ceezWPTja0lLjOYmruNOEjj3UsKchZrnVBO5Vn7/buBX3weeeST/3ghKiZA77sIvDaTUE6O6spzIfVPTDcKyVwtc+AmG1o7q3c7LPhkTGgoHePKvEv9zPYOUeX/khle8gbredhFSM+fVRF1hMAxEAkZEq4LOOGUR9vZaUKRcXPHJuDic/JvxIQiYA1105C/+227csSX3w0dzm8D5HwJe/WYO/aDrbdlw17bhrhfT+MXNHM9vzG1loWIitzjuPubFuYN0xic5NxnNOwr4t88QZtdWv1rRAtgW8OhDwI+/lrcbFW5z7zkfxuAJb6louGIbc6C3OWg066yAtUqxHY6rZ9mU2t1jGcl0seosn4zLgHmsyWF7MyZCaM8LWPLdKyVknnita95HeNv5KrhPTW45ZS9ktoZSSjz4mxTuX2cgOpSbkHUSaHLcuZ0qB4oRnUHm0eV0zAE+8QVg7kJXp1uTzhIxwv/9lYV77sxrphc/4pXYt+b9iB/5yqqLxRl6mk2jRefuk3HKJmdvr8WTqWJjGvtkXPaCH65kbAz301E/vcEK7Xwu96E6+UwL51yi9MSF7XfLXoEqN4yPSvzoqwxPP5Lvx4TQartzO45xFXsi91gNjYR3XOzgtHdNTUyVW/rOFyS+8WkgHs2phlEPeLsv+HcMvmpVlRcY0Bjrbg4YLRpzP4xmSumM+1S2D19NUfWFPFzJONC7F6+88WPEKIf+zzAJ511GOPUdKqzc1LsVj985XbsT+NGNJrY/m9tawZAOIqIyawalK47qDPkCzLXPAr74fUKgYepi6tjAU38Dbrku7/mMLT6O9q6+lCXnLqrqOWaM7Wgx9U6dF5l5vARp1MOdesDzybgE0MqtejiSsZZOUufv1zmdf/xV7tuZUk2842LAdM/LWQiBn//iF871X/kKpVKpSWN/9ppr5PnnnccaG11WiSiS/N4XCE89nDsQjqLGVrvcbTTWLs5jSHPl3JFd5aGi2F39rRRmzXc9fsfeffvk6aef7li2PUn/f/Kb3kTXXnstzZs71z3Tr+49ArfflMYLm3PGZ1G3453vuxLDy19fGa4FWjOG7tbMzbgIV/MSJYknBfb5pm0lolZm9QrIWH23VLS56xWbwhzuw7Ff+RCYeiHPVoINEudcDLz1vIrmN77rRx55RFx19dVy8+bNRiqVyj5sIADDNHH7j39Mb1m1ihmGi1/yyXgK/32Nga1bcuuGQ8JBUB1Hb8gAACAASURBVJZ/O45qyoIi9423tR248efKYNXVW/EbTz7Z2rp1qxmLxbLiqus6gsEgLr7oIlr7+c/DlR87Ze729COE73wu71y633Yh9b5+NROh6uVIqKbOOJYQ2D/g2xmXSa+lNSuPjEGvWNAwqnE0lTbaobXrRsZDvVh6/Qdyi376Ox1c8GGAu2O5f/8DD9AF73mPFEIU9UjGOcfHPvrR1GeuvjoQDofdI64brwKezRObuZLbsYSFmK7DyfEDbQYJ1/0wiRmdFUX6m7hoMzo6kOvHbWJdpW06/7zz5Oc++1ksXLiw8h/aHc8J/OAGB917cr47yECD3H7JZ9jo4pXureOEiXGgqzlotOpVuBln3KEHbFiO7/RRCdcV1bYcMlbxjBfNNYcCBp9R1CA5KtWDjLljUecf1iVm/f4X2YPWq4vdGRcA511WydReavvEP/4hL7rkErF79+6Sr7m/WrdOvvX007nmVqr43S8mcev1Jrr3ZP9RqISMlYrC4sGXMj1PRC8UBr79O1cwVZ0oQ5HlK1daO3eWGGwfwOX/+Z901ZVXVn5DVuqfx/8kcet1eX9kt31gLaLHnOja3Cd2ZHA+FDa0sF6FbB8DI06ib8gxbUFFfjH51hRlL3RZZMxB8zoD8aYQD5c9MIB6kLGeGKVl116SYo6dXW+56FiJ8y8jLF5e1C023/zjiQTd+dOf0n9efnnZt7Cd27ZRR0eHe7eq6/8d2PbP7GKrURqEjaAs+YcDKlmGnUNM9QP3zktTWP0vring77//fnHRJZdoiUSirC341RtuwEc/8pHK32aV2/mt16k8eznl2PXu/8DQcW+uWpqmgMYTYUMLcFYgBkgZSPUM2omBEWEK6ZNxGfCV1qQcMlaGS50zDNnerJdNMkrKupBxPIrla9+XG6RVZwMXfrI0EHPUfuzxx7Hq1FMr6utz11wTu+KKK8JKdeFKufV6gSf/yuHkYE4V87glhy49nwCFyPgHD7oi/sFOFi9Zgv3795fd52Uf+ID81FVXYfbs2ZUB27Vb4Nc/FHjqbzkdh0aWnIB953wYaWVfXYUS1LWBRkOLcBQRtL/E8ZX3nVJVKIu+4op/My4Opyy1yiFjxplsb9JHZ83Qm8seWJFxgJOeIzKCCi7/fNSSkqiywzJBQD06iOXXXpLjZsiBU88hvPejFd9E1Wf0X//2N3nm6tUVyz88MADXHvN2brVx8xd19Hdnn2M5ZCwgENd4zsc7ZSZ4y70VY3pw0UaiUfmqE07g3d3dZW8/0zTtm7/3Pfaed7+7yM/vHEMpVcXf7if8+KZ8NsfixQ9fz2MLj3UNg/HShHRtb8jQZjDAdSsVPwde2Vus9IZlkTFAjQ1abOEcs6In4hkms4MaU4dh0iZVCUl3xpxU3BHuPfgQIbxtk7341muyf4Y3t0mc9R7Cae+sWEURjUbl9265JXXtdddVLL+rZKy2yOc/BKhwm9mKIuNmRyXZKf5HxGJJJLkBkVnLyWX5q9P4jy+7lijujp/8JHnVVVcFo6N54okUcRS+993v4pKLLy6iZoEqf3sA+FF+F+mtH/kKYkctq3ysLD00mfqQqXH10lu6eqmARD4ZV2XJsndaDhmrnkyDYcmCylSALSZDSMvu+CUI1JV0nP6U494GEwJz/u+dsc7/96vsuu4lKwjv+ShhwaLiiSjHWvX19WHtF79It91+e8W3od6uLvXY5N6uyEfGKlZFo7BhUvGByhN8FGkWBOVIF3/51ySOPb5iTA8CcN2XvoT//ta3UK6++GA/rpHxow8RbruJYKVyzrGaZFzNtEs+Gbt37Ar2VE8yjuhMhnXGsznPSiKK2pTeGbMqY/xxCDDHxqIffC4e2bY5O7O97jSB918hwTMpbCoqg4ODdONNNzn//e1vV9zXjhdfxMyZFSXiPnQuN1zuYOtmDbm8DwNSoLE4M7xMx3GehMVVuMzsN+Mf/r4iLCc2vv2OO8SnPv1pLRqNVtSva2S8dbODdbcIbM/tWr/1I19G7KjlFcmbq7FPxuXBWvEtqbxhc7eqJxkHObPbAkyFQsuKS1JIPD9iuTZlZltY8YULYzydzH4zfsNbgfdf4cp4lmXJ3911l33pBz5Q8ee562qKX/8wif93VwCpZLabHEEjG81O8TfjmAbkSxXnMhlv3rw5ddaaNYGBgYGKzpNrZNzfLXH3nUp3nFO9te0DX0B0yfGA+/Hf4ZNxeUe2os1T3pD5W9WTjNWNeGaAQ8uBittkzG0LK69+V25AXCRjNYgb1hTz5s2TWzZu5MqLzLXy8IOEn9/CEM9xs9QyeuPih6sxGSvBKrWmmDN7Nn39ppvY2WefXfw8c9W00g4e+JXE736c8wds1wX/juHjToY0Kv5tniRFtciYCHJXt8VGE/mCjUwUx7emKHtDlU3GOsOSI4IVu7bOCk5fMt6yZQvee+GFtG3btrJ/hG/62tfEhz74Qc010za1U17YlMbN15qIDmWXawqQ8VmrV9Nf//Y3puJ9lFPe//7306euvBJz584te20OGfehu4E7v5VTlP1nXCwH3rCaOUG3444g3RI0dIO7b2OctqTY12ezeNHhM9X0fTIuZz9m2pRLxobOaPH8QErjBbL+FpAsHxmnBNH2mOVYgirWuyoxan0zHhkZwQ9++EP63Nq1ZR34efPmiScefVSLRCoyWpm8Al27RnHjVY0YHsj+4DQFyPjBBx+kf7nwQlbOI968efPw5euvx7nvfGfZ52ZSwwJk3HvKuVbvqvN1O6TMgd0rnGG4ydRDBufFq5WKHH4oJkTvoM0tu0By20P688m4SHgnVyuXjHWdyXkdZioS4hWZbuUjY0eS7Ek56b6UcMV+stZkrNDetn07PvPZz+Lue+4paY00TaOv3XCDuPTSS3XTzYBBSoppQMZqGp/9/OfxzW9+M+MaXWxRuF76r/9KV15xBZ87d26xzQrXK0DGPQfI2HGZjAMaGwgbRiOvQizj/QO2GIoKJmUptv4+GRfeLDlqlEvGnIHamvX07BlGRdYOMwNM5PrEIoCithQ7Ri1XFKYZMr7mPIlcjiQu64wV5Ioonn32WXz5hhvw298VF5uhIRikj330o7jiv/6LhcMVeZxnX/UXNlm4+VqV/WPKqinUxJQ1hTJx+8oNNxS1/wOBgAqzKa+68krtVccfX9bXSs6BCqkp3nah7H/j2Uy4rKYI61o8aGhmNWyMd/dYGImVqgbyybiozZitUrlkzBioMajZC+eYFX0etZjcCWnImVwu7khsjbpjUcEdm5Z94X1RLZXM7jlYBTI+SMhbt27FbXfcIdZv2CC3b9+eVe1iGAZdfNFF7LiVK+m8d72LNTVVFBQv955w+wEvrqWRzjh8ZLcmcNmaYvzElJri9jvuwE9+8hP7mY3Zc/2p2/BJr30tzj//fDrppJOwfNkyV1UFkELgD7+V+PktOdVp1XrAazJ1BDR3p3MQX5+My6bV8hqWS8ZqtKDJsXh+Za/DJmfUHsidSsNVMhYOHX3zpwYadz3fnhWtKpHxwbEGBgbkk089Rd3d3VlJSzcMetMb3sDmzJkDVx/sJk72V99P4w93m7BS2W6HpZu2JXkcKWbmdPqoIhmrqSmP5L/+9a9i565dWXFVZLz46KPxqle9irkWAW88prGowH0/l5lcgznKtsu+gOgr3Ddt88m4PN5Trdz9NCpfjpda1puMFSBKb5wra5qKUbEnbiPmFK8XzAULk4Lmrv/haMdf7sl+5XzNKU7G6UNFeJ/OpZDThykEwsVmAwaQRgIpTblDZyejKpNx3Zdq306B3/5I4qmHc5JxNTzwGFisKaCZZhUe7yybsK/PQixZ6rnz1RRl78dKyDgQ4HLxvIAK/1XR9Xh2HjKWBAxbArvjFaYEUr+ERNS05dGRo27/UktWwI4+VuD8DxGOXuqKjrrsRal2w8Lu0BZMKn5NJVKIaQacHOZVn7vZxhGLXbGIqTY0ZfX/zCOEO79FGOytqTu0wflI2NCC1cgKPRwTTs+YJUWJOhCfjMvaQ6pRJWSszNvmzTRFuIFXRF6zgtzRWA5XWgCjtsS2UXf0xsZQv7Ps+kuzy6sCoKvcd2v+pWw8p0RDtwMFARKjGoOdI+XSKW9P4KJPVmR142lc//4g8KMbAZn7sasaN+OwoYkGPeMyVSJhFkazq9+mwagDSaV+zftkXBjdHDXWb4x+BWBXsDIWlHMmWyOaNae9MouKZoOJsJ7baD1mS+yIWSRK3hiTJ63ni2esuGTV24H3fbxsPD3f8IWNhB/cwDDQm13UckJoqp7yxTNujEh867euE4ZnsC4QtU00RMS2y9by+IIlrqopI6aOYJUe7/b2WRiKlmpJkdHEPrF6RfjVnlmbPIK4uhhuTPiejSMf50y7BkSzyukv3KDJhXPMig6aajy7IXcXliTqTgoaTDsVjaPmd4CMcydTPWUN4cJPElgVggiUA7Dbbb7zeWDjY0CuZKwcEi126TjXOLi827CU3V90iHD/OsIDv8yJ2fDxpzj7zrxYs1pnunb+GSAjps4CWq7XlrJnlGnok3Fl+JXV+u5nRk7SGP8KgDeX00EoyLFobvHqxVxjzGnIEWVevZZjTG+8K1a53pink1jwq+/I1qf/nP3wLDjawbnvJyx/9fTUcV7/SWDbs7mXukE4aCgjQ3RCSyDNAqAs5m3qi+NDn5Z4zVtKJ/lyNmUt26gfth/eAMRGco6646JPY2TZ60BuZWsBYGjcDusa16vgBp2yJLr67TIe7/ybcUVb76GHSI/PGP0uA/tQOR0FA1wePTdgsQo9gOY2qO/j3PqpEUtghwtkrPLHNHTtxDHfyJFaSR0YlZD0XXmyR5cDlBfabHqM8NPvMPR1ZZdG3dta7PJsfhwkENcCEDnUTc1twNfXeQEFd2V44s/AzdceuDJk77oaCUkbDc0JjemLK06EMFHq/hEHfUMOHFF0rqVMF4xhgIAvrl4eyR2kw130K+rNtc+UiqSY0Hj9puj7GfHPALSw1H7VI96sNoNaIpUpryI6oyYjxwMQgJQguS9hy1G7jFvbhEmZQ71Yen0esn3TGRb+P3vXASdXVb2/c9+b2d2Zrdn0AkmAUNJAVErIEgSBFAiCoKIIf1FAipBCNUCUopAGKChNQFQUEFRClZJsaEoiKYQaSG+bZLO7s7vT3rvn/7uT3bBtypuyOzO5j1/ID+aWc75z3zd3zj33nHMuBjzF+RXituB6YPUyFZgbnYwrUvj10WAAVpQlXlgE/PafEpTG7aHTxZru9rU1jOf+BFRHLykV6tVPrv/eDGocmt6SS8UuA0Vm2nk4gpDaFStCTuL52LOrePQJJ1BSnZOYL6UuWUnGSqOFKxrmEOGnADkuKVFSJDB0YOquikEx/MZKxt1pclWYjfXygIdn13s2ramIas3TzwOmpqEkT0rLJY2dd20LRK5Ar/00+hvsSbIydKuYPkMiHMXXrv73QaMsXDs/pcibNCKS+lCr/gvcdUPMcTZOvQS1X/8mpDv196N1IhVfXOw2zEJDpJSKIJrgW3aGscsxGdO6yWOKHW/mUjdC8iNkLRm3qvT8ysY7AJ7KHCm78ypIXjtlTPlu9fn8J98uOvjg0VtBaHeduLhIYFgOkbHSpbBmIw6dc2l0S55ytsQZ5wPugtz3c6pEOurgbsW70fVVKzOVXbEaOUx+NBluyCg/nUvKgTv/zHAXZP17EPcVb/JJvPqMjX89HvVsQfmI1/3gWtSNHhd3OCcNCk2jrthlqBQCaU9covzF23aF4Wtuf9mDVfgiI8DAu5JxKwkuFRDfIrb/N3lsWU64JTpinPOL8MnVNcUeq+gLIvRpVa64yOD9B7ggot9qTmit9XITiqJlmt/jqrC3NIdV8qCUd1eFO7fwwQuukiLkj75TVH5j5T/O9V/WH79v44nfCWxaG339ubgZJVbqscANBketEq12x8MOBt9wD1JcKgmtp4w1Ygl8+D9g/nUxp2g47Ou8eeL5FOi/f1pFyaSLYmedhZrdYdgdLt4RsJgt6/zJX6lYn1ZlenCwnCdjgGnhyvphBOPzVhzdJnHfXi6uSNFvHC/ETc23K2hHrken+pAVtnu9v7hxvyfv7jppkJrga8dLnHEB0H9w7u6Om3x7KhcvfycGZMzoFc3Z6xDpZhFAULjBUS4ilFcyZsyxMHC/3I1Wqd0BPP0A4z9vRH2f2TCx4ZwrUfuVExwCGLu5Cmkr3hNfnJE1qXbFO+o6uXw3GYKmnDqqeEValenhwfKAjIEX/ufrwyZ/AtBen2up18D+/VM771LgqHjjWCApv/GmpjAcHvR2afaibev5gAduki5fbfTd8Wk/AE7+NuBx7Erv4aWm3AYh4OmH1AETEApGl8cl/ShJT87oyCT1poQd41ZY/yHANfMYZb1y730Ih4H332Lcf2tM2RuHHoYtU36Epv0PSes6KDSNgIqiMCi1FARdCSVVPH+tpfzF7XRjKU+dPLb0FSJyFl6RVs3TP1juLb4uMHhu6RYPmd7rSIgbWz8u8QgeOqBA/bhJ6Yi3wkXwRE2oCVgM3ua3sDOQ+k6ObMuuWPlWYP8n5hVFzXFsuoCzf8IYP5FQkJHzkvSvMjWiipj46H2Jvz8MrPs0+i4qHb7ijho0RXbH6sSq6/XucjOOrLLxw6sMFBTmzjuhSjx9vFxi/rUxd6WyoAgbz7gYtV89Kd22Za/LQEtIW7rHhq/JlltrLQRDsq1+DYZhTjl1ZNGStE/YwwPmzsKLA9TzyxtGQNAnrc2K3CI8qK87WFRAKR0qqPtEKnFQrGdX0ObNzerevJNyMF2PWLRtvdz/rwvsos2fR//ZPPQgG9/+CXDwGAERw6ndw4ur3fTbNzGefIBiuycAFNmMIpn+ddlgSlgxdscVfRjf/onEURMEKDO3yNJqDvXltnWDxB/mWlj7UcyfgPWHHYWtp/4A/gHpDS4QgoJe01AuivSFZrQBqWa3he21HVyAxI8Ly75p4hEV69KKZxYMlv5F30NKvfiRf6gdsj4kQqQkkiCye5UZ9oBKV0q+CgVQv0KCET3kGE0Wy63+MBrD7b7Bk0aieO1qHvqnOexqiFITTo189DcsKJdFv8FG1p8+bd/MeOYPwNLq2OvNZKDESu6SRzy0g2Sh2TAj1yejPQOHMs67knHQSEXI8Ubs2c+bGmw88wfGooUxD4+Dlf2xZdIFqBtzXNrlLTIMv8dlqHSzaSlD1lZAWzIUGasDvLaPlHzmlLEl/8g3F4XSMW/I+OUVvr4W0aMAT2w1XnmxwUP6upWWSeupOnpN4rIYF0DUfNv9Frb60xNb7mqsl32r/2H3XfSMAY5B8BMmWzjlHELv/kbWRlhs2wj84zHgvcWxyYCYUWpRak6lOHzTJIBgHJLd70Dge5cpQqasJeSmBonFz9v4+8MxDx3tAg+2nXgOdoyfClburTQ+RFA37thjGukduEVGX7ON7bvC8IfafHsSGgTRORNHFb+cRlWyZqikSSprNGgR5MnVq91ee8hEgPYWdvMWGtbAPqYsdKdWqVY5AlTC+VhPXcjmrc0WgjJ1V4Wax7PlCznwuYe4ZM2q2D7vqkk2qiYRhgwXSPMLl5KN1c/oLesRuREWj4hVuo8iKVFoG8l/bSYgrXqvVQKheO79oSOAs34sMWI0YLqya4u8fbONd15hPPfnuOGUDSO+gi0Tfwj/4AMTAMdZE5egYLHblCalVo092qxqR7x1V3sXBQNP28yzpo4t3euOdCZ1drfOGzJWML/8oW+UZUGFu0ReIEGw+5S77L69zJRcFcqDWO6KHXMsGVLtjHcEUs/k1rpkvOs/wcAXHkHxF6tjr6JRX5M4chxw1IkiKw71As0cSf6z+HnCsgTOWdyS4bVT+P3i4CULEaPJ4Kihbq1DDTlQ4sSpEiOPFOjVNzsIeWm1xLIlNv77RtzdqH/AUGw95TzUjzzKATiJNSUQF5oCxa7MnFeoHBQqF0XHK9A2+P/+t2vZn2afcEJ6foImpm63tcorMn7+Q//+HLb+RIS9DrKKEkMO7utWe6KUoipUUs4+cS6/qZhjFVkRVuVA0vGoX+5rVtoDnn8Uns1rYstfXCpx/GSBU7/Ts2FvO7ep0DXG6qXAus/iry8V8FJkJ5G9OgWA/SThjxBJbPnKKyVGfhWomihwwMhI5pkeeaTNeONfhBeflNi9I+4Xg7//0MiBXf3IozMiriFEyGsKWZCh68/KRbFtl8WBULuD3Fpm/r8pY0v/lRGlsmDQHlpdmdH8jbVc2NzYdDaY/9g6Q1GBsAb2cdmegtROfNXuuNItpFtEP5FXYW6bmkJUF3Japys6HmSF7PIP3g0OePVvRsH2DfFPrU88A+g7CDjpjJhZ59JugVCQ8ckKxruvC/znDUDdCov3uCXgkUAkQV43P82CEUgwauKQsYxjT1G7ZEJ5ZVwyTKsmaje86QvCK08TgoG4Qwf6DMbWU36AurHpP7BrnbxApct0GVIQxV+PcSXu3KC2webNO0LtuYnojwTrl5NGl++93JXE0FndJa/IWCH9/Irmo5jst1srhRBB9i43VSa3lHbGamyPQbLCHfuYXYW5qcO8UJp8x2pe4W8Ol3/wdqD/omfcBTUb478A3hJg3CnAsBE2vn6CIo/M2VnFum763MaSlwU+/5CxYU1iZKWIuEgCRg8Qcesr6ReA+pPI06uv8iETjhxv49AjBIq8CXZMZPAu2qxZbeHDZQbefR3YsYWg8nnEeYK9B2LLKT9A/ehjoW7cZeIRBFlkGtJjZmaCUJjl9t1hrvPZ7d5XAXHxqaM9DxFRfCAyoXg3jJm5l7QbhO9qimff3z3UZZjzCfhW6+flJYY9oLebTRG9rl0i4qq7HypfhSvGhiosmTc1W6gP2WnFVhFyxep3wn0XPeMu3L4hsTet32CJQw8XKKsEJn2HYbrSJ5NtM5a8KLH+MwPbN0t8siJxclKuicIeJmJlcPU9EHBAyKrPwP1t7H+QwODhEkefRCirEGlzXyhM//MaYe0nwMY1NtatEQgHE7JZJIRt4gWoH3V0xohYqe82hCxxGSwoelmyRN6laG0ammzetCPMtt2m8CjhM8nyqtPGlL2QytjZ3jchQ2e7Em3le3I1u4vC9d8Swvhr6/93mST7VZioKDUTJ4wulFZgFRlARZyqTjuDtl3jtygknVayjY20CDbbJV98aPX/9xOmZ2OM1JMdh1GFTUd/bQ8ZDxoGHD8ZUPl8nT7KFbHsTRsfLjOhdsSfrZKoje/DbDMNo0BSZEfcE66JrvSNEDKB/Q4DOUrKJYYfQvAUE/Y7wMIx3zRQUkaOf4SoK+Iqe53ysSs3xBcfA8rvnoibp0WfUK9+2HjmpfAdODajRCyIZJEpMrYrlhK8q8Hibbval9li5nnCpjsmfaVkh9Mlm0vt846MFfgvrmw4hkFPMzCw1Rh9K1zcr1dkQ5mSzmpvWZHA7lglD2oIp/8mGUlbFm3+nAb980EqXv+xs7WmDqBKy4H9R6iQrS/79u4HjBgTRu/+zRCGFYltViS77hMvtm00ofIfqEfVqduyXmLH1mS+1GzsOawz0l872BkMnVorQg4Swy8kOIkdX2mFxH4HENwtV6kVzpX9GAcc5kP/IRIukxC2JBrrirDmIzc2rhF73Q6qgvO2TUDNlpjVnKNpGK7oy+u/cxX5DhiTIgjxu7uF4BJ3ZFecjP3jTtDkt7F5R5iD4XbhocwSV045vOQ3cQfI8QYpEVO26r5wZV2FIONSZtzaKqO3UIT6V7rgKUwt5lgB5jEI5e7Y0NUGLGwL2Mp3nBGYirasxZBnfye96z8mpHoNW+2Syyol3AUWKJInlhAKEJp8JpobvySOZDVxsYUCm2Gyidh5l5KdIfV+ykwWJEKGIubUyUZhWlIegsfLkTAMKRm2ZaKhTqCpQdksJZlVbuKmoSOtLRN/aDYNPTSlsRLpbKhdscuwiwwRN6wukfE6tlFoKBfFhm0dDu6AV2xbzjr9iLL3khk3l/rkJRkzM724yjeVQc+2GoMEyf69TPQuS81VocbbszsW7IpBLDYz1jWG4Qtn7ryhsGYT937nhcZeS1/3GIGmlA8oM7BwJVQMcZG9JwaleyKJU1NDfRUFBSV8sJfabEn1Vodz6743E/4BQznYd3C3vMMuQ3Bp5OpzZuL7VBL5zTvCaA50SiJ/iygqvm3SQRQjzV9SMGZdp24xZE9ovXCV71Bi/hVAU1vnVwd5/Xu51K/GlIgr0d2x35bWhsaw4bfTcyuvKxyNpga7oG6HGPbY7XDvrskWezLMNmFr2bobjrYwI7tkUjtkIJT6Jjmd6992F/Fnl91Bgb5D0n7FOZqcQpDlNUSg0DRSSroVC4dGv8S6rcGOPxhU0YgbJo0u+Vs6MczWsbLl5U07PvcvZdeQgubzmOXDrYMbgpTfmCrLEgtGiCWUS0TyVXBBjLhjdV6vdscqsiK1H6Xx4GG4a2uw/xPz6rzrPy6jVN0W8aaL9bkhGcVSXdLq3oscqcgcra/apIVJImAgZj7kTMzdxZifX3Ajgv2GQIWwdedjCuJyt8mUIV9xWCXa2mWF6xut9mGbjLs9ZvGsE0ZSY3fq21Nz5S0ZK0BfWOH7BoN/B6IRrQD3KXcF+lSYwhBI6Yq0Gk/5jtVhXqxHuSvW+MLwW5lzV7TObzb75KG/v1CYfh/QYDZAQmWgT+lXQEILU/mZXTIIjyyKxItl12YyIRWiNlLfoq3+ZFURy06DP9mRRBz5cmsaMsL3+Q9+XWy7i7r1nRWC7DK3q9kklDgS20Fj5ZpYuyXIUp1VtD5EIWK+ddKYklscDJXTTbvVsN2N1BtvsNnUq/EiItzbOrcQxAMrTaooTX13rC7UFpsU+RPraQhL3tgUprRdk44x2ei7zoHpb1AE8uUNPCYLjaIGluiXRnK2YUofSuzyFnHUq5TX62lv+k2V/S2j7gtmqGSf4ocQLgAAIABJREFUHikil2IIqBtxVN36qT8vk2acb//0vmTsEiJUXhDJ7ZIR21o28/Zay65tsNq9kAx+LMTN15w5tn9NelXK3tEyAnA2qfv8qsbzwPyAKsDcKteASneod7mh9m8pM7LXAMpcFDel8GcNIW6y0h/q1hHrvWTc8QNFzh3J0oYPAaMGYSoHqz+wI91afSoUiZNmqAB/IWtQKIvg5tK8J10nC7hRhBES6tdHar8HlFtHpVCJXIbpLMDukSfWb5h8Vak00nhxJ46eKod3RaErMyzcMrc/KLFmU1dnczR/8pjiGU5Mkett856Mly5l13ZX01UgvrOtsVSe4/KS9PyCVztjRcjxno/qgwimo1heIjvjeMLozzODgPo68xvNCKOlsjWp+IzWHw/q61D9I+FiiQI2oRLqJ/BsP+rb2Hr8+eDMpA/uJAEBXGSKZq/LzFixRVuCt+4K2bsb7I674hcMxvSJeZoqM5q54zNIAgsl25s8v9x3MQQtUOvry92xK1RZZqov/5QZWV3IKzUJBXEyCjZbzJ/7gpRJPo66M852I2n5YiKw7ejvYFvVD7qNjNVhd6+CBHYYKdgtEJT4rOOumKFij343ZUzJFSkMnZNd9wkyfvb93eUuYcwionY/e/bv7+ZSdQqXBhTU7rhUuSviLIO1vhCrm3mJ7YecrylNxs4xy4UeG0++jHcdMYk44hHJ7EOA7FXkVjVRkrgzn5hsale8uSYUrm+yOxyk89s284zTx5a9m9hI+dMqHnfkjaYLV/h+SoTbAbQeOKFfL5e/d5npEikmEFIgKSBLXISSOId5qu0n9SH225nxH2syzpsl206RL757W33D0CNKuRuKpboNUV/mNssyiaQ/KHnNpk5JkIIgPDx5dMllmZw7W8feZ8hY7Y5NErcKIdoZWu2OSzxGWu4VFRp73BWxsrqphcBAeGVtwJWJ3bEm42x91VKTa83359Q3DhlVqoJ9Uxspdm9DkN2rIPV0s7FmkQz+fHMwHAjKdrtiZv4vM19x2uFl/82kjtk6dkYNm21KL1zpu4iA2QAGtMpWUWKG+1e6DDNN6WuUu0LtjuOlLf/CF5INaaom3RZnTcbZturSI8/qSx5pClcM8OwJdMvMo4qMVha61XY1Y4d2SnJfs83rtrbPQcEMPwGPTR5b8tPMaJf9o2bMsNmouqoE0uRrnEOA2h3v1X2/fm5ZWqzO8lJf6GpQ5Tv2mrH9x2p3vKI2kPakK6N++wO4fDuzEX4tUwoIrPrZE7C8FSmMEL9roSEaS9xmxq48R34VMuzVa/1GpzxJjOXCEBdNHOXN+4RA0SyxT5GxAuH5VfXngelmgA5oBcVbKMJD+rkNl5me21WqVJ4iZHec7fHy2vhldOK/Qu1bHPyHy+Gp+Tyy6vWTPwhkmozdKhGQ28ysDwTA7gY7uGlHqN21Zwb7AHp4ypiSafljMeea7HNkHCHklQ3zAFK7472LYkBvF/cqMUjE8y8kiLG6DFLiEogV7bZydwDpzrA54k9XhzybPnCTJuMELZUbzTJJxoagcLnbdIkMU3EgKPmzzod26hDl/ZC0zvzWERXrcsMamZFynyTjf62sn2iwuB2Ew1thVevwgMEFVpE7EjuUFlxar0pHI+QP64Jpz3e8//PzGnqteq0EnJlojcwsQz1qPAQyRsaEcKnLtFoqPadl3UfTZf3WoGxolu1uKhJhl5Q8f8rYUhXptE8/GQU/m5FduNJ3E4GvBKhXq5yVpaZKQK9C3dKCixrEEznQAyIe6TaPciJ8sDsIlUgonc+g1x5o6PvePzQZpxPULBgrU2RcZBpBr8tQCS/SsuajQbW7QdW265Q4Xp1H/rfJ8FadM5JCWQBzj4qQUQP0qGZxJn9mme9Qtwv3EzC+bdMhfd2hsmLhTmcEkcdAJNzNY1CYwSG/DY9KFPGFL6Bcu2m1wYDqxwP93vlrIalyPvrJGwQyQcaFhoB3T8L4jOJk2Wx/uiFg2B0TFxJ2ss3XTjm89A8ZFSBHBs+sFbIchIUrfN8F8W0EGt4qaoFbhA4cVCDScRGkrfotu2SVuC0UkOxRJNxs2dwUTm8V6b7vPo2Bix+BJuMsX3wOxUs3GbsNES5WEZ3p3HVE0WnLrrBdW2+1i6BgQG2Tn548puT7DqHI2+b7NBm/wWw2r2p8DMBZbQ/zKkpNe1AfV5xME6mvCcmM3YGwqgOcNjtULn8JQ17+LUhaqQuoR8gaBNJJxupiR7HLkG4hVIKetK29rsDa7bPllp0hITun897BsCdOGVO+LGtA7mFBMmqIHtYtoelVJWkJUtVA2lV1HNzXHagoMfam3UxosCQaBWzJvpCq8ZOep2TDSv/wv95QJFQlZ/3kDQLpImMihDymIYpMQ2020rbuugLalgh/sSVoBILtD+0A8jPzjCljS36XNwZKgyIZNUYa5OuWIRYub/gRCboNQP/WCV0mWQfvV0Ckcvlm8FHHdwHLRmM4PT5ez4619SMe+Vkp2WFt2wzarbuHTgcZE5FKi6kqPBuZKizaFhflnqhrsIUtv6wBSRQpe/BheWPx1449lvzdjWM2z6dfWFWe6d1dpexxPwdgXNtKGKUewfsPKMg4RukkZFdjbf3I+87XZJzNb10SsqWDjD2mociYMn1gp9TbUWdF/tid88VaQvIJEw8vfTMJGPK6S8aJJlfQe/793YfDMP8FYEhbmXuVGvagPu6M7o7VfHsIWaIxnJp7gWwrOGb+mQXC2ucjhXJl6SUkZ6pkXGQKeFQClgxHTihlgmG2Nm0PGc3BrmLdxSWTx3jvT0jpfayRJuM2Bn9+he8sEB4EsDcJgGGQHNrPHfYUifaVazOwUNJEyDx2zumUVWTcestcHVXqJykEUiHjQsOA1yW6hYjVvmLzjjDv9lmiYwg9Mza5UHzIKWOpKSkQ8ryTJuM2Bo4kEmps+gdJPgltKoAUFQp54KCIuyLjeKXDZTF2zunIKjI+agow4msWljxFWPdBxn9lpPTOEjH4Sx9nSmOlqbPlLcdHP74flsd5iuFCQ8iWWOLUavQlqMvWnWHU+ix0ET0Bw8CoU0eWrE5wqH2uWcbJJdcQfX51Y39Y/DEIe1e+AslbJDBsYMY3xxG4UiXkrCPjE861+aTzQP5GgefuBVYsViXWsmtpeEolH32ahfJ+bnpmflbJFi7pzR//6D6yPKWO5CowRchjGDAFdaim4WiYhBvXN9nhbbvCRigcKWTb7iFLTpp4ROlL6hAx4QH3sYaajLsw+MsrfH1tok0M3pviUhC41GvYQ/q5U64oncgaS4WQs42MeeQ44JQfAf2GAoEm0HsvBrHkKRP1O7Njl9x3CPPFC2wUeAys+4DoL7cCzQ2JmKlb2jQNPMT3+XduLbYLixN+X12CQsVu0zaJVHhmwv2SVUiFsW3eERL1jXYnmxLoFTQHz550dGX2gJqsohnsl3EjZVD2jA79/IrGK0F8V9tJXCZx/94uu9xrdAshq7n9SYS9ZRsZo/fgAE++CDhs3J64bRUDbYdBj8wCvlieUTvGHFzlhBo+hvn8WwnulpDyT/4LevwXQDj96U2TVbTu0KqG9ROvKpEFnoTeV1OQ7TUN6RLk6oYLdpEfc8o9save6rTtZUACroOmjClYC+hdcaw1kJBxk11EudyPmenFVY3ruUN0RVGhsIcPLAgJylyxxo64NVs2mhzEIWcdGau39dQfAyd8r71q6oTnhftDeHehi0Kq0EM3Pu4i8E3PBGG6CtA2wuDDt0GP3diNgsSfqu6w4xvWT7yyRLrjk7Ei4mKXabu6yTWhpN+6K4yddV1HAUnwoaeNKf04vpa6Rfe+ADmG9/1L2TXY3ah+WrW7iVdcJDB0YIE65ek2/Px78lgoT2vcOXOGjNusB1pwIWPHZrVjjqtf8suIANMFHDW5kU+/vHNFC/Xl8OFbTH+8OYMyOJe+5qtnYOuECyBdsS+EmkKES0wjZBqU0bJJbTWo9dnW9towWRZ3dE9IMP2APN5nJh1EQeda73s9smrRZSP8/15aWxZyuzaq4s9t5SvxGNivnxuiW86o98ysCLnZkpBxTvuzk4wvBE44N7aJd2z00UNXF6O5EUjnTlmF1hV6gdJezD/7PcGMcp61Y5Ok5+618Ml/u+XAK9H1vuX487Hj62dCmtEPkF2CuNRlSiEye2O0rcyBIPO2XSHy+TuHLErmhWxal50+steGRPXc19tpMo6zAp5kNgpXNZ8sWP6dOrgmyrwGBvV1wUhTdZBEFqPyIfstGTMPcjaSMU48z+ZvfJ9guuJ+fdFny5rw9FwvS4upYXfykRcqQsJVIKhyAPP3byIUx6kht+Z90IMzEzFDt7bZfOLFcsdXJguO8iXiFgKlbrOdtyXTAtqS7ZrdFu+ss7o6P9nKsE/TSYCcWUGTcQJ4vfAZl8om3xwy6Mdg7CUTdSGkosTgfhUulXKz27AM2ZL96vjall2eiGQjGfOhRzNOuRAYMDwxnJTLoLG2GQ9fV0S2RbBCjPqdFDn8i/YoF4QiXHUYJwzmb57fjEOOLoSZSOl5ZnzyHtMfro/7ZZHAkklrky++fXNDwwFfL2HRPpGg+pZyGQJlbjMxTNMklS0ZO3bvue7c6WFsYmF8Z8poz9tpmm6fGaZbjZjLqP5j1a4hLi54FuAj2+rhdpHdu9yUFcWGKbrjrmnL5KpCSHPYRtCWnSJ2s5GM0WtAiKdcShh5bDIVsRk7N0u8cL9BvlqG7CIHtDAYFX3Bx32bsN9hzpdaOGhh6UsB+sc9Ga2O7FwwYM25d9Q37je6hOlLp5gqHVpgGiGPKbrVpaKIWB3W1ezuTMTM2GyAzp84tvi1ZPTc1/toMnawAp57v/4gIcTfQDiibbdCt7D6Vpiy1CtUKFG3Yao2j02WHcn61jaSPivJGMC6saeh6KRz0adPH3QjTIlZ2ArZ/P5rIfH03KLEOnRfq48uvK850HdYEUBkEEmVcq3UZXY7hIqId9Vb2F7b5a+TGjD/fBean/jh2P76unMSy6PbiCMJ2bKyywurfYexjT8CaLdD9hYKq1+lS3oKIrGd3YqrSr+pdsgqWb16spWMZy2tgXX06fjheefx8GHDqKCge240xltIfr8fK1aulMYXK+jry//WrbaLJ5v6/MOfPopQRX/bRWSo3XCh0b27YSWDImJVx25bbbhz4XFCA5h+L6W457TDPZsT0Um36YxA1i28bDeSij9e+KH/a2TbDxAwtq28JR7D6ldpyiJ3pIJCt/oe1cGequmkSHn0XefA9GffZacZb27AfSu349RTTpE333Qjjx41SgjRjaefXSyupqYm/PkvT/CCu++yh9t15gunH5x1S/Czyx6D7DUw6DGFSrDd7fJJBtf5LLmt1iLb7nTVOQzmf4HELyaPKV7V7cLl0YTdb9k8AO+RN9YW9unde5IA7mDGgW1VKvWIcL9KNwrdlPGSNh2hZOaI22K/R6fBszH78rG0krGS+4Lzz7dmTp+GoUOHGd3pa2+LmSLiBx96mG+YNYsMAp+6f4X19KQDk/FpZ3RVb5v2Z1gVAzI6R7TBmcENzba9bWcYIYvbRU5EbtcxvyWIbpw0pmRxjwiYR5NqMk7SmK9+xJX+oO98IeiqjjmQy4sN2bfCRIE7suvrdozLXvgtl7z7TLfPGw/KtmSs2p7/wx9al/70Ejr0kEOEaXZvREBtba390B/+IGb/4pcRnMrchrxoVN/wL48enB2+kzZg9hQZRwJa/FJu2xWWgZDsGMLGzPweSTlr8hHl/45ne/15fASy7oWNL3L2tHhuefMgEtYVBLoYQHlbyXqSkIuWv4LKZ36dPUC1SPKrpVt4wfvb4GtTEXvqaafZU6ZM5m+dcYbh8cS/7psOpZYuWyaffOpp+dt7791LMMNKC/ie4/fnk4aUdat7Kb4+HNo27S8uq2JAt76re4jYZhU10RzolCReXQRdBrZvnDy27KX4OugWiSDQrQZORKBca/PPFQ0Hm4RrAfoOAE9HQu5TYVqF3exDNuq3Y8C8DnkgsgDYJZt99s/f2Ujv1TS1I7xBgwZZ3z7rTOP6a6+l0lJnaSKdqvWbe+/FSy+9LN9YtKidDEf08fALpx/M5QVmVpGxXVK5ueaS3/WzS3p3W3IqRcQNzba1s84yuiBi9WNPEfEsTcROV1/s9pqM04Dnwg99oxDGz4lwRsc8FqUeI6wO9Qpcwk3UfS6LwTd9Iw2apXeIxpDNly9ej799tqvLdfeTCy/EoEGDcM3VM1VYSFrXZn19ffg3v73XpcjY5/N1Uuzr/Yqx+Kx2BcLTq3ySo/lHVm3cPXVmf1lY3G2+7LpG296x2+IuXBNgxnKCvF4TcZIGjdEtrQs+/eLlzojPr2wcDfAsAKd3kVhIhb3ZRe7uI+RsJGNlzauq11sPrd4hbO6cgFx9Xuz14tzvfQ8ejwe//MVsTsWXLKXkt995J/Tiiy+5t27fbj/77LNmMNg5Z42qD3f2gb1w/zeGZd2Cqz/54o2NR5/Rn82CbiHjHXWWrG2w0FWCeAArQTRz8uhi7SPOwErRZJxGUBeu8I0i4BcgTAHQ7maUp1BYfcpNu8RruLsj21u2kvGizQ3y+rc30vIdzTHXntvtxllnfguGYaJ3ZaWcPu0qf+/evWNmI2Nm+eprr/Err/xb1Dc0kCLjTz791F61apURCoWizjestABPnHogxvZu52VK48pIfqgdF8zbEBx2+AAQZZyMVSrM3Q0W27LLXyUfEuOKSWNLXk9eG90zFgKajNO8PiKETLgVoIkAtyPkAjfZvUrMUO9yM+PVF7KVjEM244JXP8ezn+9OGHmPx8PHHnN0uLS0NObVXymZ16xZo/5QIBhMeG2PrCzC0u+MSlie7my4/bKH/OF+wzO+XjbVhFDfaEN2VRSJ+TPbpp+c/hUdvpZJ2ye8YDMpRL6NvXCV71CSuBmE0zoe6rkMsoq9Bgb3cWX0QCZbyVjZ+rm1ddasdzaKT+sCPX5YVlZg8I1fG2RdNqZfxneeyazz7Zc9jHC/zLpPFBHXNdrKH9zxYRCtYUteMOWIUp34JxkDOuijydgBWE6aLlxZN5zIuBqM73YMe1P19IoKBQ3PYIHTfvf9BK5tnzsRudvaNoclf+/lNXhlQ32Pr7/9Stz4zzkjZbZFUbQaI8NkbG+qCYu6RqvzFWeGTQL/lSyumDLGu6zbFsc+PFGPvwz5jP1LHzYNsGz7cjBdTEBlR129hQLDB2XmjkGvp28PeVa+2q0ZvZzYck19ABf8+wssq+m5nDKlbgMPfmO4ffrw8uwojNoFgJki40CIQ9trw6av2RZd7IgtyfwEXHzLaYeVfebErrpt8ghoMk4eu4R6LlzJFYSmiQSew8DAjp08hQIHDCpQabDS6rYofvtpLn/pvqy276+WbsFvV25HbSBGjuKEUE6u0WCvK7T6B2Nc7u6sDuBQ1EyQcU2dZdf5LAqFWHThImYQLrVAz04dXbzdobi6eQoIZPXLmoJeWdVV5bLoW9nnIIBfBDCoo3CFBUIO6uMKewpE2rbJhWveQ+8/XptVOHQUxheyceq/PsH/emB37HUJrDp3NA/wquCW7H3STcZbdoSx22d1fVAHIIzwmL4VFWuOHUL+7EUlPyXL6oWYT5DPnj1bHHbytHJvsVCVcvt01E1VDSnzGuFBfVxpIWRRVxMcOP+7aRkrk3aoD9mY8PeP8PHu7nv3VcaQ9787GiMqYhf4zKTeiY6dLjK2JYe37lT+Ydvowi0REYfYGDJxTNFmoi4LyCQqsm6XJAKajJMELtlub6zlwiafbweBuqwoUewRGDYgDRwqJQbPPilZMbu1n0r7efgTH2BdQ/cUEf7lUYP8M48cWJQLiz8dZLyrwbZrdkcqOHcdvUIUJBk8cNLYyk3dang9WTsEcmE95qXJFq70LRPAESrjSkcFvUXCHjqgICwIyW/dmDH45hNzCruhjy7H9uZwRmVWmdnurto/K8PYulI8VTLeXhvuskRSy1wsGU+6THnpqSPLajMKvB48LgKajONClLkGC9+vn0wG/Q2gTjfLDEFWZblp9S03C5PKJ56DZKyQHvbocmzLACGrK8/XHTkgMP2IAYVmz+azd7Kgtm772aOVVu/9HEXFRMpxBaRVUxvmpoCM9sXjZ9Dp3l3eRSecQD1zguoEiX2grSbjHjbyS6vre9mW+ASEXl1VB6koMdC/0gXDIHZ0jTpHybiVkBvDNjeGO6VuTMpalYUmVAWPUZUe5A4PR1R1RMaKhFV5JHWTbsvOKL8wGBYIDQI8ZeKY0neSAlR3yggCmowzAquzQZ9f3difbH6eGfuB0Ltj7wKXCPcuN1DmNVxG+2rt0SfKYTJWSj32UU3g9qXbCjc1BtVP6aTWaX+PC8UuYf9rysFiWFlBUmM4s2TaWydMxuoqeKNf8rZayw6GouyGCTsB+o8Abpg4unhl2qXVA6aEQC4u0JQUztbOkYO9usbTyIDKCj+8Kzkry027V4lBLpNE3NDYHCdjpX9DyOYzn/80sDNgFW1uDMvGsB33+rS63Ti42I0St0H3Hj8UKjVmUm6e7FgocclY7YaDISmbAhzcsjMUrbK1CifeQoQZRaOK/34CabdEdpi3vRSajLPMKi8sbzqCBT8M8OCuQuAUsaiSTmXFpnSrau3RciTnARm3mqY2YMk7/7c1+M7WxgjZBGzJO5vDtt+W0mMKUVFoGh5zz08Gr0uEbvz6IOOY/sVZe6vOwZKLSsYREg5LDoaYNmwPxRpyB4jWEcvbJ40p/YeDuXXTbkZAk3E3A57IdHvcFvKHDLoAQJcZzwvdQmV/M7yFgtyuyN6vvS3ziIw7Yra9OWy/uqG+aUtzKLBfSWHBUf2Ki4equ83593RJxsEwW8GQNDfvDNmWhVh6byDQvQHmR88cW1KTf/Dkl0aajLPYns+taDzRIL4eoBEMHtKVqOVeI1RabJgFBcIudLWpSJ3HZJzFJku3aO3I2LLY9gelsavBbvY121GTLxNQIxmrifjxyWNKH0m3UHq8zCCgyTgzuKZt1GdW+Pq6Bc6KFD1ljAK4y51QscdoLveKImEQlXoNqDRcuRZnnDbQ8megCBk3lw9BIChdTX4Z2llvxboRpFJebgDj94GQ/7Gzvtpna/5Akf+aaDLOERu/sLJpIkNOBVAVzXWhVFGhWwN6u0BgjJ57So5op8XsCoGgp3L72nPn9aor7B+qa7Q9HDuqZDtAL5KgtyeN8j6oEc09BDQZ55jNFq70nS1AkxmsrtepQ74uH7UzPvWPqvqTfnIVgTVjz21ae9gZRZbbGyuKJATwSmbx52bTe985IynmaV6uYrEvyK3JOAetvOeiCJ1JRKcxcDyAso5qaDLOQcN2EPmdSfNQ1+eQqIoQUM+EBWzLd6ccXvZy7mu8b2ugyTiH7a/q7UHgBEj+PhEd0bYIqibjHDZsi+hRyVjdogNuI4Fdk0aX/Cb3NdUaKAQ0GefBOlj4ge8EITGSQeeD+QgQDE3GuW3YoKcyuPSkX7gaKoa1c1Ew8CAxPmj6pPjec84hO7e11NK3RUCTcR6th4XLfSeQKQ6AlFOIear2GeeucQPevuGlJ95k+iqGtbyjvBSgR+1Q+LnTv9prQ+5qpiWPhoAm4zxcG8p9YbJ1xMmPT/1jHqq3T6gkhQvvTrwT9b1HWIC8hpmWNn9S8rbeDeev+TUZ56lteTYE+6r0z9gctu8Hx1zuq9lv3HX+wQMfPW0gNeewKlr0BBDQZJwASLnYRJNxLlqtvczNJf3DIRR8pdfsxz/IfW20BvEQ0GQcD6Ec/VyTcY4aroPYJDGGFlSvyg9ttBaxENBknKfrgy8+ZSwX+5fnqXr7jFoM/pkoaX6YZi/Tboo8t7om4zw1sLxk0gZ4G7tMLpSnKuenWoytZNlH0z1v6QiK/LTwXq00GeepgeUlkxkF/jBMK2eKb+apKVJTq8nNFOID6Q+vfZHaQLp3tiOgyTjbLZSEfHzJ5LUMDIVhAYX+JEbQXbICgWazEWFTJdRfTFboLHp0UV1WyKWFyAgCmowzAmvPDRr+yeRjDQOvAygAMeBp7Dlh9MzJI6AKJTW5gT2VpphgD6CHXtue/IC6Z7YjoMk42y3kQD6ePcHENu9WRktRU03GDtDLsqZ+VwPCwgOOFAxQj0VWqI/eHWeZndIojibjNILZk0Pxj04vYbetQqD23yuHJuOeNElqc6tdsdUpc+ZzZIXOoUcXBVIbXPfORgQ0GWejVRzKxFdM7MNhWgLQwe27MlDUxBCs7ewQ0x5v3jUZq6IBP4fge+mBV+t7XEYtQFoR0C9pWuHs3sH4ggmF8Hr6sYXnQDS68+wMFARCMC1390qmZ0sZgShkrMYl5sfBcraOsEgZ5awaQJNxVpkjMWEYoMCPTx7qMlzjBOFmAAdG7WmEGIVBbefEoM2eVjHIOCIkYwcxfRNC7KKHXtyUPYJrSZJFQL+kySLXA/0iB3Rbi4dB2ANZ0s0gmhA3JzXJEDzqzdZPTiHQ5GZYqqJhzEf5jhcSYQEItfTAKx/nlI5a2HYIxDO2hisLEOBLpw6BbY+wwWUCfAmAk0CUmO30IV4WWDAJEZpdYYQNFUmRiJ1V5Y93bMm3mgQbbGzCH176lNT+WT85g0Aihs4ZZfJFUL707OKw1TTSRehvkxAEnkjADyOxw04fTcZOEcuO9kEjjIBpAgl+6X4pdRCQ/yZpPGpDSsOADeK1CFmf6SiM7DBtNCk0GWeBfdRBnFXgGW8K9LElCRI8gBhnA/QVAEZKImoyTgm+HuscNiz4TQPsmIw7iMxhML3GkM8zUZ3BQoJRA9N+T0dk9Jh1u5xYk3EP2YMvmXSWlFQZCTtjKiHwT0CkDuJilWV3Lq0mY+eYZUOPsGhEwFUIuffSR7qkUmT8GROeAPM2JrIMl+sZ+t3zu9M1gR4nOQQ0GSeHW9K9njz7bOPsXv6vM/FWvGxTAAAgAElEQVRTYB6YsO832Rk1GSeLXM/2C4sAAi43JKX3y7mTVlxDwp4I1K+iB5aFe1bpfXt2TcbdbH8++2wDlY3HS4gJ4MhlDA8RJne+sJEmwRQZFzUmdgyUpin1MGlAIGgGETRd4HT+Uoq4LF5lwasgKSSIGCx3weBngd1bNRmnwW4pDKHJOAXw0tGVLzrNA2FPlIwRAgKSUCrAxzJQlY7xI8mCCvwSxp6MM/rJDQQo6LpPBsUGwdSfGT8CoTQJyTcz8BqAT8GQAghDWq+jcdsH9NSHoSTG010yiIAm4wyC63RodZljx6UTvH1k0VgJOlL1Vwwq9xzilQHiIGI+DAJDwVQKcA0YW5hotSD+GJKbJLWEM3HEATIZwDdREJQww5qMnRqkB9vbzCe55i95jS88pRfAZ0hCsaDI+YJbMg4iwgFgDAUhBObPGWINYG8SoLBUO151L4RRYxD+g8GvrKfZahnpJ5sR0GSczdZpkY1nzxaoWeRB2DPQMniwCdHXBjwGo85i7LZta2NBQ8NmPPVOoDW2VBE7Lpr0dSkwnVyhc+DWG6EcMHWrxUNExik0d9GitjLvsemRJlAxALbRH0AfC7BNE1thW9uwxt6FRYtsHV+cO5ZuK6km49y0W0JSKxIPb3n7a6Yb76JAJ/pKCLTsaPRfIv4JzV2yMjvE0VJ0BwKajLsD5R6co+GyEyuLYVaj0H9YD4qhp3aAAAPzhBWcQ3f/RyeTd4BbrjfVZJzrFowjP8882YuQvIVdoWkpqcr8FoHuZMKfARSnNJbuHBMBAp2LEnqKZi9S15z1s48goMk4zw0dSS5UR6ewYS9MRVVm/FlIcTkbci2A8lTG0n1jIyAZU8351f/SOO1bCGgyznN7Rw59rhw3gk0jpYxeDNwnQsHr2V2wXpNxZheNJuPM4puto2syzlbLpFEunnbccBbi81SGZMasHaLwrr4cULlz9c44FTDj9NVknEFws3hoTcZZbJx0iZYOMpbABUbI+1d2N23TZJwuy3Q9jibjzOKbraNrMs5Wy6RRrnSQMRFORLGoZp/cock4mnHYB1BJqqbTZJwqgrnZX5NxbtrNkdRpIWOWB9P8Nz+VM6pUdi/tpujCAsy4h4gvB1JI7kPYQZDn0tw3X3VkZN045xHQZJzzJoyvgCbj+BilowUF7UFcYKwD4Ep+PF5NTBfR/Oq3kx9D98xFBDQZ56LVHMqsydghYEk2J1tUsCFrUiNjVBPjKppf/X6SYuhuOYqAJuMcNZwTsTUZO0Er+bbpIGMivA5pTKf5b6xIXhLdMxcR0GSci1ZzKLMmY4eAJdk8LWQMehqWNYvufuuTJMXQ3XIUAU3GOWo4J2JrMnaCVvJt00HGDPqrCPNNdE/1Z8lLonvmIgKajHPRag5lzhoy9pQybAsINufjuguS6e7H4dAmUPK5Oxj8e8F0O82v3ujQzLp5jiOQjy9Fjpsk/eJnDRkffmI96ra7sO4DT/q1THZElgBtIeBTBg4GMCi5kXg1GfIYtg0VBTEquTEiCeHvEaZ9B9351pZkx9D9chMBTca5aTdHUvN1E4ZyWH4IoMhRxzaNKR1xxuPOXETb1/XmNf9LmqySlT9GPz8BT0CIn0PKGxm4NJk5mPkJ0dj8Yy72/hGEs5IZQ/Vh4luEy303/eq1XcmOofvlJgKajHPTbo6k9v9s3H4FLvEOQAMddWxtTGgmW4ylBYvWpHLpgwcedAc17h6Bhp3fSkqOzHTaQ8ah4DTpcv2YSMxLZhqWuFVY3lthNl3NArckM0aEjME/F7ZxH921qC7ZMXS/3ERAk3Fu2s2R1HzNhMFsy9cBHOSo45dk/Bmx+U2a9/r6lMiY6UoheAwzLkxKjsx02kPGvqZL7GLP6YLo6WSmkcwXGY3Nj9qewtOEYfw9mTFUH2JcgrD3UfrNi8Fkx9D9chMBTca5aTdHUvMNJ/ZDMPwEAyc46tjSmMCLYMjvKz9mvpIxzau+MDztuJMMIf6dDEY2+FRzQ/9XMXTzUJbmmmTGUH0k83lG6ZK/6AKiySKYu/00Geeu7RKWnK8f3wdhepAZUxPu1KYhAX+Gm6fRr5bsSIGM64h5GgQdl4074wgZTx9/okGUVE4IsnEY7qqO5IzmGVVJV2KWxN8z5y75azJ20n1yGwFNxrltv4Sk58tOrJSFoQUEOi+hDh0aMfNcn59vL//dm7uTJmPGW2TQ9WA+Py/JWJqDacHrmyO72xlVnAzOkb6ajJOFLuf7aTLOeRPGV6D2oiPLyrze60jguvitO7dg8HThNx6k+xY1JkvGzLhXCOuXgHm7JuPoVtBknMwKzY8+mozzw44xteBrxpVI27iSkNwpvwR+YOwSf6dHFwWSJWMCbsSGfr/C/tvv12SsyXgfeO0cq6jJ2DFkudeBLzrSI0uKLiCIe5ORXjImG41N/6YHloWTJWNmvsGYv+RXPLPqIU3GmoyTWYf53keTcb5bWB0oXXSky/Z6JglB/0hGXYvk0a65b/6XANZk3DWClA6fMcMmgXNpbvWTydhJ98ltBDQZ57b9EpKeZ0OgoepoJryVUIcOjYjxldb8ukmScRMR3UBzF9+TzTtjnjHhOCb5LzAqnOLUjoxnVm0Fo7/TMQBeT4IuojnVrzjvq3vkOgKajHPdggnKH5p+3FiTxPIEm7drlioZE/EnkPg5zV/y92wm49C0cV81hfE4gEOc4tSOjKdXvQpVM9DhQ8C/wbhWJ5Z3CFyeNNdknCeGjKcGT6sazQIr47Xr6vOUyRj0Kgz5c7pzyX+zmYx52riRbBj3gnG8U5zakjFPHz+HiWY6HoPxRxjWL2nO25877avb5z4Cmoxz34YJadCTZMyMv4QEZhXNrV6b1WQ8s2oYGLcw8P2EQG3TqC0Z29OrLibC752Owczz/UZgTvGc97Y57avb5z4Cmoxz34YJadCTZEzAvbDFLJX8JpvJ2HfF+D4eF11JhJ8nBGoUMg5fddwEwxBvOB2DwTcLs+BuuuPVeqd9dfvcR0CTce7bMCENepKMmXCbMbd6lhI0m8mYpx1TBHL9kJPY1bbdGW8772Rv376BxoQM05bQQdeCCu6lua80Oe2r2+c+ApqMc9+GCWnQk2RMwK00r/rGrCdjgDBt/OmcRAhgO5/xRUe6uMQbSsgwbRpJm39i3LXkYRVC6LSvbp/7CGgyzn0bJqRB8mTMqgrGN2neEpWcXuVd2A2gPKFJWxrlChkrca3pVacLwj+d6KfapoWMJX5sLqh+2Oncun1+IKDJOD/sGFeLpMmYsZgE/o/mVq/VZBwdZk3GcZegbhAHAU3G+8gSSZaMiflBGMZNNGdR5IRf74y7XjCajPeRFymDamoyziC42TQ0z5wwilm+D8B0Ihcz3ySk8ZvWMkCajDUZO1k/um3iCGgyThyrnG7J048bwSRU4vQhThSRUp5pNPkXqiRBSe+MCbdhbvWN6mAqm6Mp0uwzbnb6xSe1z9jJ0sy7tpqM886kXSvUUiFaVZA4yonKBDGe5i16s7VPMjtjBi8QvuZZ9MCy5n2CjGdPMLlBfg7Cfk6w1mTsBK38a6vJOP9s2qVGPO2YQTBcv2GGo8rMaSFjxh8Ckmd571qydZ8hYx+/CPBJTpaXJmMnaOVfW03G+WfTrsn4ivF9pItuJsJlTlROCxnn0M6Yr66axBLPAChwhFObFJp89tkG9qv5PYN/7GQMTcZO0Mq/tpqM88+mXZPxtUeWybDnUiK63YnKXZDxJgCDnI2RG5c+lE48c8IEZvlHp771dtEUs2cLNLw+nQlzHOAUlIyLzPnVam797IMIaDLeR4yurvrawnWOAB51onJnMh7/FkDHqHsOiY6ToUsfTSCEksk93EFuPwFPqOrQETKeNv7rLMR9AB+ZqH6qXTsyBsiaVvVNQ+DlxMfgLZLE5ebcxc8m3ke3zCcEEn6h8knpfVGXlp/O32Cwk8TlTcTiJJq/6N1WzOzp4/9CRN8BIBLFMUNk/C4By5lxFgh9EpWli3btyXjmhFFgeScDE52M2ZaM9+ywq4Yx4wsHY6wiktNp7psq4kU/+yACmoz3EaNHyHjItglM5ORl/5hYfpfmv7miFSaefvztTPJagHqUjBn8uGBawMBsEE5PwYwddsbHDZcklG/9h07G7ETGV00oZ0Oqq+MJPrSIyL6O5r75nwQ76GZ5hoAm4zwzaDR1ePaEQtvHZwtwwj5JAp6DMKfRnNf3JjtvydWrCpsaiUKX9p0xozGSlpPDv5DCvI5ANyUqS9yd8dUT+kspZxIww8mYqZJxpMqHFDfQgkVLncyr2+YPApqM88eWMTVhFU3hptkEXJqoysy4yx8QdxTft+cqtHqsq8ZNFMJ4DpQwGfsZfKsxb0nk4DA9oW28zCae6Zr75iJ75virienORHWKR8a11x5ZVmZ7LyHGr52MmSoZA3ifmGbQ/MWO8yA7kVO3zV4ENBlnr23SKhlfOe5gNo3XnERCMOMSIQr/1Da/Ls8YfxiDlNsioWvVBKwDMJvmVT+WNjJm/JMam86NXCKZfvx0JjnHidukA7Dt3RSqknax9zxBcJQ9LQ1k3ECgS2je4ifSang9WM4goMk4Z0yVvKCsCMZbdKoQ4l9ORiHiKShe8iLNhmztx5cc25e9pgpvcyU0FmMpEc+ieUsikQXp2BkT+Cmat+ScyHjTxk9lol+BcGhC8nRu1I6M98g44bvM0hEppoGMoeOMk7RgnnTTZJwnhoylhrp9x8L1EoBRTtS1JU5xLWhfNl4RO5d4VSWKRMn4BbL5erp7SaQYahrIeBcx303zl9wSGW961RBJ/EsCXeBEtzZtO5GxNXP8dwVTamR8zbgStsV7AB2cqFwEfADJl9OCJYsT7aPb5Q8Cmozzx5ZdarJnJ+t6wWncLMANRDyV5r65qOPAckaVqmKREBkz8Fhzk3VNye/frtlDxuPvY0kXOfA5d5iel5GUl9CCtyIHXTx7gikb5Oxk6ta1DJwZMr5iYoE0G68lQb9wuMQ+Jtg/Q4nrDZq9yHLYVzfPYQQ0Geew8WLuhhnEM6qeBeEgAIc5VZOZHxSgW2h+9cZUyJiAu7Gh3wx66ilbjWPPrJoTOURkeJzK1NL+ZQp5p9JvXgy29renVykyvjnJ8TJDxupSzDVVh7CNSIUUZw+vB9MOYnkjympfp9kfOi7h5Gw+3TobENBknA1WSKMM9rTxt5GgMwhwMbA/AHcywxPx97C+/1OtJNp2DCc7YyKeT3OX7A0Ts2eMv4NAKj+GNzm58ALNrZ7ctq89s+paYswGUJjEmBkh48iu/ZpxA9k21AFmQr8i2snOYBC2A2gE8Wayre9jwTuqBJauj5eEkXOhiybjXLBSDBmVG0J6zAVENA5gFxjlIBQ5ua7ccXgC3gBjBs2vVsnoOz2pkDHPrLqWVQwvJ3VrTh0kLhTzqqe2FYqnHXcqC7oVIEdXmFvGyBwZ7zk4nSKEUImHUnnUr4qd6ocFGJtINpxCdy2vS2VA3Tf7ENBknH02iSsRT686goGbQRhHgJsR+cmfUKhZ3MEVixP9COv7/rGrXbHqnxoZj7+aGTMB6puILB3abGdgjjGvel47Mo7EUEPtuP8viTE7kXF42nEnGUL8DsCBiY3HNSSMsa2lqdr2CUybcKBbyHcA9E5srLit1BdSYwsxf0KCL6a5ew5H9ZPbCGgyzhH7qQQ2ILqZCSe2EK+6jpx2+xHRlWho/F1rZY+O8ISmjzvaJGNJouTf0U3BM1Mi45UW4wJ3Fzv2iC86QvKOHx8J3E1zqm9s7RmJpWa6FZRg7mfGDjLEmK7ImAEKT5twpCnke44li99BuSwUOauDvv9Zlpzmvltfp44PW3a2SPvLnJ1q5o5U6uXF7AkGUCPQ0PurTHwLQMc7uX6chLbqpbaZcb0oFXfFOsW3Zxw3l0DTEr1k0YmMp1f9iAmzAAxzLCdhsZhbPaGrfjzj+DsZfLXjMQGfOmSkeW3I+NIJxSiSlzPwq0TH6xhn3LEfT686lgmLwDBB6f8S/XI+DjHT0yIsrkXQtx0DT7Np9uy9ceKJ6qPbdT8Cmoy7H/OoMyoiDl1VdYjL4AUAte6AMymhqmvnJ4rckruN5lY/GW8yOWP8LoB6xWvX8nkDg+4w5i3em0OZM0TG9oyqWQRcl8TBYCcyVrJb06ouFAIPJagniDCc5lavjdWepx83lkH3gGhsy2GjowT2icryZTvazMy/ElL8GeV9mmn2UzoqwzmI3dZDk3G3QR17IlZn59eOK4ZFw0GGSnV5BoDhUXq12k393fonJg9EzuAp8u/WP6rjYoTxC7qn+rNEYOCrJ/RnKT8BUJpIewBv2xaud91dXd3aPgUyZnWwSPOq1ZdUp4dnVn2DGYr0HdX4Qxc74wgZzzz+/wTzg4n+ImHGbSLsvaVtyF00jPiq8QNg4HIGxcoMR60baAYry+3dTxOo3U53T3hF5N9dRlqQ8jEz3UTzFz+VoN10sx5AQJNxD4Ce6pTqogPqgy4EjEKf7TdK3IXugIAJl+KrDk+YOBwIqErFKCkwQ1hV1EyLnF8m4GsmDGZbKl+xCpdLaN2QIrONS35KTyESYxxhixkTfsywZwGkxkn8ITSzxBPG/OouSxnxT4+rkB66m0DnJT5opGXXO+PpVZME4S4gEqed0GNJ+2uuBW8tS0f4GV8woRDukj1pSk2f8Fm+vWF7JRgYseeXzxZgoN/S8cgJmSlrGyX0UmWt9FqwjCPAsyHgmzCCIR8G4ygHN+eCDL7PmLdkelsh7WnjryaRVDTFRikx01wQ3ZXCM6ruZQdZ6Vrk6pKMecaE3ipS2Jkfmi2SGAfGRrprydaMG0dPkFcIaDLOK3OmTxm+ZlwJ2HUALKv3njJEie8Q90jBKyTTDeb86hfakfGM8TcQSBF0pUNpVzaR9c2SuXuuVXf12NOrfkMUSRGacOL7aDtjNX5L7uYFQCRuO+GHwY9IKR4xXeRHOLiaFrzjT7izbrjPIqDJeJ81fWfFlU8YthwORrEUdDBBXg6mg5I4/W9i8AMdd8URip4xfj4T/RTs8LYcYamYW/21WObimeOvZyYV3pboAaMarsudsfogPL3qWJP4NgZ1GcERZ+kwwNuIeRaEuQHANpq76AO93DQC0RDQZLyPrg3ldw7UYbBJ1iEEowiCyQCOZeazQTTY4e6yLYrqEGkpMa6i+dVvd4Q36axtiZDxjHHHMQyVaF4VTE3oIaAJjIdpfvWVXXWwZlZdKPYcDCZzSaVlSA4R01sQ9BtI2QDDWN1VTHJCAutGeYuAJuO8NW17xfa4HYxjwNzLZuECZIEBcRQznwHiXonGDceDi4DNIP41zV3y267aJkfGHALTc2J+9bdj7oyvOKoU7oIHGFAFUxN9LIAXiXlLvtlVh8C044a7iK4jonOTCJvr9F0Uuc5MeBLMy23B9YbBK+iOt9TOWT/7OAKajPNsAfBVVYfahCNIcLvwMwHqzarIpsR+IGQivlXFLH9GRPfT3MX3RIM1OTLGVmnzpeZdS/4Rz1w84/hHGOw0t/EqMa96TFSZp1cdKwk/I+BkABXxZEjwc+XG2MqghQBHcoAICGlDSgNCSMiI35uZ1CWOz8ymxnej3YpMcD7dLMsR0GSc5QZKRDx1RdkF40hJKBTgoxj0jU4HZKwimSkz9ibsIuAREL9Lc5b8PSqpXX3sASzNuwG0y7qWgI6fkmF/le58yxevrT2j6rcE/glATrLVrSUpzolVDJRnjh8jgcnEON9Jwvh48rb7nGGDWIUBmm1+qQTUVWciXigZjSJU/EAiscyO5tWNswKBzLycWaFa/gvBM8dPBYuRDHkiQMcmlEIykpqR1WU/JxEHXYEpCXhaMn8iBGrQ0Hx/vJ2bPaPqSmJcD0I/R9YhfCTmVieUk5lnHPc9hlAJ3ROODwahmSSeoCgxzK2yRuK7m/hbYDkaEsOYMMnBbcSuVFbWUFHbe97DPWkz1RPtvQwSeJ5k2m3Mr57rCEPdOOsR0GSc9SaKLiDPHD8Zkg6V5CBjG4OFYCmZDAESUu3CmAVItvnvDqFhBHWN1hIgf+vVL9UBbP+D5r/5aSIQ8rRxIyGMO9jprpi5mUAP0PzqaQnNc8X4PiigR5kVUTp6NkuiG825ix+J1yuSP+Sqo/eHUXCyhPK3KxcDCcnsAbhAEHXOX8xgCVYJfRSEKjG+cutYUDg6zFUhiJpjuYLiya8/z04ENBlnp126RarIhY4tRxooqBcw+wgYTQLBIgMeq/26sMMWgoMs/ObFUDK3y/jycQPhNn7GBHV7zml88RaScjwtePOLREHhmVV/ZubvOtz9qz3qOhL8S5qz5NFE5/py1wyxdcuRhQMq4IJV0pmMA82MYtuqbTa52RThwWUFYcxeZCeDp1PZdPvcQECTcW7YKWel5JnHHSVZXESAilYY4lARG+B3xLwl45304+nHTWGIOx1XjN7jJlhHjHkIex/SvlknqOu2qSKgyThVBHX/LhHgKyYMli4+h0jFLWNMUjXvWBVFpdNo3peJhhKBW+V14F7yn6BI9IPjh4BNkvktIek5lFc/QbMjrgX9aAQyioAm44zCu+8NzjMmHCJhX0Osss9BlanvnyQKEsyv0Pwlk5L5Kc8zJ0xglqpaxyHJzc+KgNcS6GMJbBQkH6W5OnF7cljqXokgoMk4EZR0m5gI8PXj+8gg3SIII5hRBopUo06mOGjbeYJhG0cU3FX9UTLwRyIfGqzfM+h7IEq2EvWeqRnNIHxOqg4d02bAnkvz31yRjFy6j0YgGgKajPXaSAoBnnZMLybXQyAMbKlAPSINN9T2ykI2HUt3LVa145J+/DOO3b8Q5kIGRiU9SOeOATDWgtAA5t0EzEXpriU6fWUaEd5Hh9JkvI8a3qnaPO2YIknmrUQ4HiB1g08VQFXJ751crkhoWjuMceY91e8k457oOAHvuWjySoxE/QnJFKWRClXbSqAGEIeljbfFpn4/i1bINZWJdN/8R0CTcf7bOCkNecIEUx5p30DAWQCVACwAUhWO1U/+jK0bi+XhrtI3V6Xz0Kz5igmDC13yUUS+SBzEZDtDTkVi+CFRoyqqEGOTReHbXPPeednZMLr1vopAxl6qfRXQXNabZ1YNkzZfQ4ImE1DAQEkk1aXDSwnJYEDAjWA8hnnVKpFOl+WDkhm3tQ9fe1IZrKYBDNdyICO5OTqKp641N+654MF+ZjwnNlrX0FM6t3EqdsznvpqM89m6cXQLzxh/igH6NcAHtFyQUFek1YUF5YLolocYV8N2PQ5/XW2869SpChS5OTfzZE8wFBjodvEHDvNXpDq9cmkoYrYB2sXAv4XEb2lB9apUB9b98wMBTcb5YUdHWoSnHXeqIYSqBF3iqGN6GltE8laweS/NW7QzPUMmNwqffbYR7r/la6ZLPASikcmNknKvzRL4uTmv+rGUR9ID5DQCmoxz2nzOhY/E30I+77ynwx4MP5hVcc7HAVqMsLcm22+0Ra6H7zqqGC7zMJA4k4GpLYn2HSrvrDkBH4J5Fs1bov3LzqDLq9aajPPKnFoZjYBGIFcR0GScq5bTcmsENAJ5hYAm47wyp1ZGI6ARyFUENBnnquW03BoBjUBeIaDJOK/MqZXRCGgEchUBTca5ajktt0ZAI5BXCGgyzitzamU0AhqBXEVAk3GuWk7LrRHQCOQVApqM88qcWhmNgEYgVxHQZJyrltNyawQ0AnmFgCbjvDKnVkYjoBHIVQQ0Geeq5bTcGgGNQF4hoMk4r8ypldEIaARyFQFNxrlqOS23RkAjkFcIaDLOK3NqZTQCGoFcRUCTca5aTsutEdAI5BUCmozzypxaGY2ARiBXEdBknKuW03JrBDQCeYWAJuO8MqdWRiOgEchVBDQZ56rltNwaAY1AXiGgyTivzKmV0QhoBHIVAU3GuWo5LbdGQCOQVwhoMs4rc2plNAIagVxFQJNxrlpOy60R0AjkFQKajPPKnFoZjYBGIFcRyAcyLgHgAeAGoPRpqxMDsAEEATS2/K3+n37Sh4AAUAqgGIAJQP23skEr9gEA9QDU37nwGC26KH1cANR/R3tP1NpqXV8+AP4WvXNBz2yXUWFeBKAMQGGbdRVPbgtACEAdgOZ4jbPp81wiYy+Afi0vSlu5pwAYB2Boi/EUKatHkYEyym4AHwB4FcBHAMItn6vPdrZ8rgyon8QQUDaobCEq1UO9MGcDOImI1GeKmJUNIiTMzMsBPAlA/a1eji0A/r+9O4G2panqA777xZVkrSQOJEEGIQEVkCkQhihLUNAoBiMoGBwwDAYIRMUBAmpUQAOCCYOGUZAwKQREg4AYFIigqIACCjKLQsARI1lkWvF21o+vzuJ+9917T3efXX26z6291lnve9/rrq7aVbVr1x7+++PDPlX9KevoKhFx1dJnH/T3fxwRXxIR1yp//2tn9ORjEfEnEfHOiHhZRPxGEc4eN9aPFCWg+kAO4AMOPuvKz6Hu948i4p9FxI0j4tPLwbhtqObj/RHxrIj4tfKwPf9nEfFH217e578vWRjrm81wtTIxJuSbI+Iflr/vyjcT86KIeEXR3Gg27yoCfNe2D+l9muHnls1A671n13VfExF/Z8Ig39H3/X+IiJdGxB8eE1wTmtrplRsUIevQuGNEfFNEXGOnFq/8MkWAgH5yRPxmRDjsrbffT/zGITRFAH9ORHxGEcJ3jYg7l7WWNT5z8dGIeElE/McyF9beB5d2i1miML5mRFynmB7uGRH/NCKYImrT2yPih4q2/KEimC+yScMm+ayi6T6067pbHdOGd5qLruuecXR09LRyY5nLfOFgNyaHyyMj4gt2GsS4l90EaM7PKJrye4qmNq6Vw3n670bETcqB/p1FA55rdObiZyPi+UVIv3cpc7EUYeyE/OyigdFU7l5Oyrkm6OR3XhkRTy92p9fsqxN7+K6roRsIwUUDNhfMQzXoF/u+/+UUolYAACAASURBVO6I+K3KGvLNI8IBT+O6R7E/1hjP0DY/EBHPiYhfjYh3R8TvDX3xAJ67WTEn3jIi/nXW4b4DX5gznhsRvxIRb9u3GWPfwtg18foRceuIuFPRggmEpZCrzEPLyflfltKpCv0wDzf167qOwLrdQPvcTl3puu6ZR0dH31/syDu1dcrL1hQ/wrcUzWvjS8j+ztT2+DJoaD8XEW8tds6pbS39PabF60XE/SPiixfYWb4jJoxfLnZmdufZaV/CmO2RKYIA/tKI4ITbV1+2MZ2pgvbChPG+MmHb3lnLv+P5DSPi9sUObKPMOg9933P+sSFzqGbQjSLiH5SN//nHHHMZbddoQ6TJz0TEiyPijRHxxzU+sqc23bAc7PcqQnhJitZpLCGEfyIiXlWE8qyO5lk3Xhk9xw8PqY3yjSVkZU9rZdRneWTfHBFPioifX4qdadQIrvywjSICwoHoCr+vjfLyvu//ZUSw0+9Cwhu/KCL+RYmEEBK1JmK7pCU/s0T9HK2p86f0lTNOVMrXF7/DmoYj8set5SklWmYW39Gcwtg18TYRYZLuUxx0a5qgTV95xRn/Xx0RL1/hADiwaMPf3nUdISyUaJ901Pc9TVb44VRig/wnZW0xt6yVbHpC4Bci4j+XiJO1jYWN/gutr3L7nVPGZPLKXBDGbyhRV3IVqtJcjBKLyvbKJCEmeO0kVInweExE/PSx2OWlj4vg/Zqu60So+C2C+r4nQH97QmeYu1yDH1b+tM4OgZgqCGNRH7veGObkx11K+Kk5EW9+CCQc8acigm9jk6NQZVxzCGOTQmgJUzuUzbKZDN7wpxabHy/5kulqly5dekTf919RoiUW09eJwpi5y1iYONy4Do2YKSTL2DsO/iUnJkmKuVs5FN26HJKHRLIsack/UMLhqoyttjC2SR5YbMNVBrCARgWQsyGLIRWutET6zK7rJFswSwgjXBRNEMaSUB5QHL/++5Dpl4pTyQ2s+lV5AiOvXXxA9yuhqROaWM0rLyiJPK+r0eOawlgYC214zuD6Gjwa0iavq9TLR0eEzbMUMr/X6bruiUVwLaVfV+rHSGEsWkJky+0LbsEix5TcKZmhrsrWV1bUSUYXxQ27mXxVRFw9o8EVtMGG/OMl3Tq1u7WEMVvXP4+Iv5fa22U3tom2+L6Cg7GE3oob/rFiT11Cfy7rQ9/3bHJfVhIgtvXx8yKChs9BtLS44W193/XfN7GwkiVm8e5v6TDcCH6gO1ygQxFL8F6IqwzSf7frpB5/v4YwZuMSLcFZVKP9zPFnt8WuJyzGhtl35t4Nu66TXSTgfrFUwtqeNwA8SCoz8Bc3LREhF5HEJOPBd+x58ATxw8shL6TwohGBzLFK0fmRrMFnC8t/GxFsRxdREG/mhLEfetd3lbCYrLka087Vu64THiX/f8n0x33fC0kTv30ewcgQTigS56IK4g1/IMU9vgjDfcytdHmCWHw6aMuLShysnPZknkSRnSlTGH9b0QihX2W2u/Mg99AAk4WsKuEw7H1z0qd0XSeTiz1v0dT3/b0j4oUFB/isvjrY4YSwS+4rMWVpfGSyeFBE/OTMHbO3aeWc8hdRIz7JboqXVHaK12t3nYssoQn71WnNuXJoYS1TeQxonAbB2A+HYBYqgvgWSz8Q+76HGQEP4LyUUyFT/yoiHhURZ2EKz8LXhX1kk6IPyAkC3By0wa12NT+UGOIMvlG84NZI+XZITqYMYQyLlKdXQsdFv0KenAjVRWh0Ts3qTpeu6wDow5dY8jz8Zd/3NCvIZefBZ1qb7MTwgFXdaHRlDrgm08rm8gnctqRrry3NfI51I8LFDU/QwmTKEMY6IcV5yQJgMoMSXiSQhWG9KaGt85p4UNd1NHEVERZJfd+zrXF48EZvy2aiiclEa4L47NkkkH99hqQX6eZCNptGfPZciAF/dgGomrT/dhXGbHliiS9amNFYZouscI35g7EvDnz+bxXzBDjSpdGfd133pKOjI7HOKi4MBcDhHLlIoZFT502EBd7KDqtBnKf2uWzHRudzgJLxg0Uoj+bVLsJYbKgwtrkdRTazEDLXfj+4BCIHpCaf3OgOCehkPL9KNhFWxrwpnDmaYTu8wHzw+gpA6n+l6zraETvxnGQOODDQx4rWC5TfgQOKUBmrqWS+VMaYk6wl2ro/2WGh84H2VLPvLLKWRBc8OCLgMrBruyHO7WhkrnD7yvZNGIuY7p2dUyMn8vgef0eJ6YXV4aZ01mHuJgUJ0qHkT2Qe5r6xc6pKhBm9/qcKYwN3WgIin4sUeHQVIHgM1qafYoeVPiuDi41bFYtNVena47CIODhFV0zp91n9UxKJMJhSk27smPVbaBW7r4P4CRUywpTYUtl3LkewQ8XGcZhLsVZ5ZBcC4Yk3hMBc9lXzAhidgpSVoUc2qBVIGM5F+s6h+19LJNIU8KhNX60jUQ7fWvb4XOYuc+EgF3UyCk9kijC2yKRlCmWbw8PtGsbu+r0Fyi6r/LZTU4yg4pq05znG8u/LyZ0FWv23u66jQW40gZqbBnQoDZgHX7maGmQ98kw7KGuTw/G/lXI7fB6ZuA8bQWYs1pWab7WJciKUkt0ygwgvGWZgDWoTIQzjxc2KEMva4/oNiwWuMgHpcBRwUJv4h8irUdWBpghjKamPnQHrYDNBBL9oDUK5BtGMafmAydnHal8xJWIofrqrdnzp0qVLz+/7niCpCf6jxPlH+753aNGShtp8p8yVWwvNtFbdvU2fCGEZVK72QhBrkbUkY1DWnCrntccFY1vlFLb5XYhcYH4UyVKTmLkc8mrQMSOOvtqP6JwEla8uiqTDsXacNOGvxuPgMY0Vxk55wrF2OuZHijmCMbz2gtjMJ1BsY5NrX1O4AQ9X/WDXqsg3VmW5cmXd9/V9/7iIkK7MPFGTrEWHlKvx2HU5pl/S1Zl15gR0kiwBs8StQl2+WuTg5Myzb3YhgoqdWEXwWsQ+D/2MSWeUBrljh5gK3erhedcEN3JT+Tel4OmgLo9d9CAxXe1rFhVUb06Qv5C5wafKoNFuf4gJBoasFN2aqZ4WxC62OFrx8/q+V0W7hm2V1v6Ovu+ltkOjq6kNb2ZF+BRH7FW2T9OkJ9jvZCayqzJ7zU1uYDRxhxvM31qEh7BhznM8bvs2ISylvxYRxMxr35CglEzpo7lQ8o2zr2bEzo+WAgEOya00RhgTTiQ9W0gNIgDUAdO+4oy7XuN36aPMMGDZta6VcFEtxKljpBU/OSIE4meTPr2l73uZb+AC5yI3IOWXahwubiE0YTeSuQ/4k/yDr2HuapWHkgUmG5ZCM4XwHy43MKAaxPwIKuDrajQ+sk0BCI+oWB5KdXmgYfb7VhojjJU+F4XAGJ5NBMA7iwOCIF4CSfvkvKhlshD9MOjEPMmMS5cu/WjRWms4Hd/U9z0zlDC8uchNgUZ3zQofZBO2+XnVd7WlZnVPWSKRKExjNQgQvYijKem516uIp0IjZvKiuS+FNhqybM8x8nBo/5lhfrhECJ37ztCPe06BQd7VGpoLQezKwESwJIJZ6qpeg9gQHW5j6VqSKCrVsCOI9wH/KQJAxfAapiFob99ZYlTH8rrm80wWHOHMM9nkhsluLOV8LImTdYOoQRzlc0RnjO07DVkkSo2qMW8rPopXbevUUGHMrqKzNU40cbeuCiImlkZsyEqnyzLMJlfnKTUBv6XrOl5aTqFMemvf99pVQmpOYgpin6xhR5UoAN0MgP0SiW+COYF5JpvUbGNqGmMKo2htEnmy+8P0Jwa7Vvu79leGLAXpurs2dMr7QLHMx7m+l6HCmKOIMfqqyR3d4IESeGMWTXI3zm1ObKJNLfQtm2RviSAYSt2lS5ee1Pe95IRM+ou+7zlmmWZ2jfIY2y9ri40z27MtzIswcutaKrkJmMvvqZC084qIeMhIR7EIA1mH2cQE5eZTOyJnl347iCgjDu/suHA3FNWPpEufSUOEMZsplC02rkxiy6MNs08ueZJox5IQXl4htVLEyBhHxk26rgO08+WZEwGNq+97jtNdMp6mdunnyngybfOcdLQwYYRZGWlTx7ftPaF8m+Sjbc+O+Xf+CO066IYSkP9sFDjJNNZrDSiAoeMa+hwLAA2e4jVENg5tl6/CeuS72EkYw3OABjZGaAzppHhPTpU5HUVD+nXaM1Ir8YDtMZNk4o1J0/yurutoUZnhX+/t+569fm6gcnyUFCHgn3M4k9j6CSLe7DUQEB7+g2xB6ODmAxhKMt+mmM7Oa58ZRvz+PsIJh477+HOSqNjys80VTLw05DPNNEOkPwAUyQUqLmSR1McNtkFWm7XbcSjBxcjEG2ASkIo9yOt96dKlx/Z97+qZRl3XPe/o6EgOPxCWuUm8OqdOpuNEnPp9Z07q2JVvzBXij0VADNmTQ7/ngAWkNeRQEnIn/C8zQkeWo8gRc7IWwn98k62XyQsaN1PFmbwYMvE8jQpbZhKhdueSCpnZbs22aMdskE75LBLqQ9tW8XgbXe3SpUuP6ft+JwDrEx/5/b7vaWQO230QQSy0KDM11fy4mkOOWxOJrhAClXlLYKPklBriHH9J2ZOZ0VIy3WBYZ2GxzDWfUthF+GQqCRQuspT9/FTaJoxpgezFUwPIT/soDcyGybZBzzFRYCozQeI5LcEfDok3vUvXdcKVOP2y6CUlucNNZR8k3CcTFIgApl0SLGsjWWFKdGUetg575rUh+xdeR2aEDj8Q+M19+CF2nXtyEQa5pKrMwwm+y5l2423CWMiN2OLMDSPuTntr01xMsMVKe/mmXWf72PtOzCHeW1CZQgCzrk7/r+u6px8dHdH290XKRKmfmEUifswPbJM1EiePLNfMFF1rhkDeRvZjJgyrG5cbylISbbaN/+S/M1OI58+M8nlowWY+FfRsmzAG8i2Vb4yT6bxB86wKExPOtEbicOIZzgQ+HyqMH951XWY1h7f1fc8ZKEpkHwQh70XJ8J/iOaUaLzVMchuf+WUgvAkxyyK+GcL4vJDFzywhcJmOYYcssKE5cE2yeHW8HY5MCIKZ1XOkmQtlpJBeRtuEsdMh88on+J63UgjNWomjIzMCRHUGcIXbSjJlC2MmClfifdnzvjIi4DtLv80g2rAs0aVlcY4dG/tuZuQSZYrdWFbeWeR7TCRZSpfQQrAJfENrJiBZQJOyTBUOROv+VMTAuYWxAHx4vqMQ8Bc2m4z6tK8s042QH2EvtMSziBnjkV3XsYemUNd1Lzg6OqqV9jqkjwQEB0/W1ZgQowGq2LFmEpLHT5NVWFZ2oxhyJqGzSCigDLSsWpYc/r45JIpjyXNlHsxH1lwYq5v1qZChcwvj362U9jrnhNIe7l0yEjO+67RkW2MyOIs4+H6o6zrpsxn0f7uue/bR0VEt3I0hfaSxQcbLqlGGf+Jq13zQ45vrvRtDVoo0WzBbJfPHWeTazDG8TR4MmVfPmFfmyLXPhQAGDkjhp1k0SRjDDHBaDgm7GtJRGXcWxD4dRkP6ue0ZCxZDszAcLFhZaDytZ5HvParruqykgA+UkDZp6Psim/WrEj8uuYEwXjuJOYa6lnXwsp+LTSfgzyKxr5mg92cKnBVOTnaV8knCWJkYk5iVdSY9U2kVm3DtBKD8zHjBkYOzWWgm51XZ/vqu60QJXHtk22c9/hslpC0zTG9s15owPptjc/NmNoEzdpEs4PnZeHPeteQ6JWMkqwK0OEaA1f5cO2UKY7zg2DxPM7lf13W84lm2q1/s+x64/T7DC+cWOGtac3PzZjaBs6ZJKH3N5g2nOSfzZQVwzxPGn13y5bM8u9sEzprmaW5h/JCu6+TLZ9FL+76XAblPmlvg7HOsY789N2+yBU4zU5w946AHZLxeBo7WhPHYbXLF800YT+Pb8bfmFji793i+FubmTRPGZ89tNm+YfoURXpb40YTxtA3WhPE0vjVhPIxvTRgP49McT2UL40maMZsxLARALhkkqUGdKfnya6cmjHefwbkFzu49nq+FuXmTLXCameLstSKnQFin6LIr0XmasWgK4ULA3zNIhhTIxLUH5TczRcZquCKqpoW2Xc5L2COyXrNC23xhW9hfE8bzmSkkWpnfy4oenCeMBTxLCshyHEn7FSYH13Pt1DTj3WdQlROp8VlJH3B7xRmvFQthw1Gx5DI8RR5l0TZhTEHKrI4sZl7s/NqTPuRaSFTbe9IHUByAPkprZ5CTQBmctYIEbXiAL4BcsjE7zgttO8RoCqhe0k0/I2NxleQkbf5RUnv7aoaDh10ReE8WbRPGEpik91vbGQTp0cG4j4IFGf3ftKECi+ocWSn72p2U9OHFbKCgQ0iHhhNBw6eJZdG2sL9vL6FtWXXilhDapkAlnF0hlBn0jpKkpBDnmkmVCeGkWanJeLFNGIPtlE6eVXIJKJGUaFjdaya2XZWOsmBrFyWMXYdcv/77imfopsUA/3mJY9gmjLOTPpYgjGH2MlVkXsel2rvir5VUk1FhghKUSduEseoiwGsyS4oBllffcM3kgM/c5zsJYw6WF0dElkYm4wuakzi7tVI2hCY+bBPG9yrp0FlX1yUIY+POBpdXQcYVea2A5rQwppYbJW+ObcLY/v5w8nUctrSDZS2FSE+yHDwBs2om0L/sY2baUw+pbVchguepiaV+VEb95Yi4Q/Jim6s5Bn1VPp6S+EHYFG8v0KJnNXv3IoyzwFwOVRj/Ton+OQ8uMnHq0ptSWYLTPMt2u+ngNmHsuexKH9DOmCrWGj1FYQQZkFmf8cdKJRoH32W0TRjTxDgTMisSv6cU5oOzujaCZexqPaRm3dCxOaCAWLvWXTRhDMWPppBlq8Q/GMkKnV6W+z90Qvb0HE0MsloNRWWIMFbVAmznNpkwhj1S7jkH15ZboAqNfmfWm8Q3vgCWBnt+tDCGcH/PUuF1zCSc9+z/jIjnFw0gq8052nGVU70gu0wRzZhGxxZ90YSxqgfq1kkwyqLXFQfrPhHppoyF+Y7Sk2m33fRjiDB+UImAyDJJ+vary03yVE1wCpNmeueREcHMkhXpo9tQKyXQTa4OrRENCO/IKj2iTVcXJXKyMIHnmCPFSIX5KameTYLuzxNIh2qm4LCyYW+ZyFCH26bw42VgLInfyWxKMpSKErfJbPRYW0OE8VWL7wKeciadiVKW+ZHEtihF5F0WuP+ma25r5vjM8mpDriRfUJwimQvFFRKMnNTANQSGK0fDwy3UpQZtc+AdqjDGSz4EJpoha3Eo73nBYWcz/yydCD+hZcyB2YJwM/Yhwtizatdl1cHbfJvtWPWSfcK1jlkDTyhyiaKQSWQdIX+qicKHhmwAk+MKw8ubSYLz2cjWUJ1BbLEigur31aBtwvjeBc9YPzJoKQ48Y3Ed/P6IyBrbhj+ug+zHS3cgsSPaW1nx1qetj6HCWCSKQyGb2EmZO5kol0zfWm5V10zupPwKbZ9aiHTzrSHC2LP3L1EVyX38xEZRfr6WxpnRXxEUil1mlk8/2a9twvgQ44w3PFCenp03O56T04iQUzZsqaFunyinFRFZ5bTOWu9DhfHVS4hbxr453obbLyFvLpaars78qIADk9lQuTiUT48odS4vg8083sDQj+ogewdMhkyyYV5TSokvMbqCnVymHWZmhxsd5+NFFsb4QGP4okScig1v/zAi7lsSGi4DZslcyBPaYpNUzZoTs+ba0rWhwtiznG2EcjZpV97Cm7MbTmhvg1AJUyMzsmfTNVXdVeA+l4YKY+mAD65gqtA5V5eXlrbF2y6JhOYo2kl7q0kXXRjfoqwBTtJs4hxlChBdcaa9LvujW9pjkiAgOcfdvGrTGGFcI6lpMz5hrbeLCIfkUojjUiSLiu/ZdmJjVFyWGY4fI0UYa+RrixqfGYa06RyBDFLRlU2Y1xLotsXJCEq0Nl10YQy5zUatsbbM3QcjglefOWTfAvm6xS4poSDbWXbWOh0jjIW21bxFME1Sct5Ze1MNaF88scgb9uwaglgX3Kz5xrYGKgzVjDVKff++iPjuAYOc8sj/jgiB52L8XjmlgcR3OJWM1ak5B110YYzHUoHBq9aIs9X+n5Y5lVm1L4HMAfz4EsJW4zqcIYzJBCBONf041jsbMq1xX+Q2BhzpjslZdsfHwwRL637DkEGOEcbaY/vgFKl1bbdJGLkB2gsD2Qe9rIDgz3F93IyvCeMr7KZy92segKorvKViPO9565XfRcKQvZOF4Tx0f4zRjLWpCjn88VokFlwMuDwDYOtzk8NGFBezWE17PZ8AeTno8B8rjHWcKSEzPfq0iaDSi2BQ9sn1dQ5yZeFIkvI8li+79q8J4ys4yDTkVpSJB3BybggCce6C++dYW66/blqcwJnZbWPW3Fhh7LCQlg3JrSaJrBCHrKrJHFl6VykhZuK6awphPLOOad5u+4NoitBh6BaOlolmdF5nxec9twSkZ4fFWHR4IA7SgtjXZmnC+JMrACB5dszxaetrA9B0q4KdMEh7GbSrrlhTNvsNI+KNe1xXm+6OFcbec0N530x2bTZqxRqAcNnjmfvcXNjX9jcFr1ZizfGlof8/XEwUA5fMdA1QcLhEkNqny/GB+CbUI1jI7MtTnAwmRjad36cWw3o2ePRg5h97sAnjTzKDJsm+a47mIBuH9uK6LBHJuqI5E9ZjSBgkO7A9AaOZuWtfh/vJfk8RxvaKWyKH+lzjwHdAXPxSsgH9fco+p2SZCz/huPwEc9norZufKPgoo9Lxp2jGJhqaEQ8h4JypbYxZ6MeflVbJVML4T5sxeBPmx7yx2USbE9FC8ttslnuUJJYasZRTx9SE8ZU5p9rFPmyJDnogVsCL4PAS1GLh/aytjcZms2/WFeFrrTFzcc6BD5h7T2xbd1OEsTbZt6UH2zNzEwwHypdbq71trx+fi80+x/+Tc+FGwiacjS8xhAf8HuTT6CIHuywasXPAfjKRjYYM9uQzwuJ+s9iepB1uQkg44K5fUpj9ySmxVGrC+PKZ+b2IyMJvnjrvNBshWOLf2Zc3FWqEO96grC0xw3Np8VPHMVUY+569w5eSnSI8dizMV+bB7/3ldqyNaxflkA/Af++TPh4RMKmFy42mXYSxjz2uZDjNFS85eoAreaEJ48snyuYX+ZBZDHIlyyG9m7sIYzdKZheJWW0uzp4a2rvbOh8XuMzRtKswdtV3EkjpnMuuNHqQK3ihCePLJ8n1U+FXoUFtbe22iHcRxr4sCkF9QTGzmcU5dxvVct5mMpFhJ0pDqaZJtKsw9lGlVSRquM5kYh5PGtBKX2rC+PSJ48yDIQ3ToNF0DuwqjH2ZWYb9mEMsQ25MH83y3uTHwhu24smUxVS4FX5ZBTMnD2ilLzZhfPbECXMTkgQTt9E0DmQIY1+WuAJ5LbOi97QRLectyTF4woe2E2UJY51YikNvJ4bs6eUmjM9nPPuxcKFs1MA9Tffsn80SxjouWkTUSBPIV2QLE8SgE8aGQl62CDKF8UYg05BrgW7Mvopn+mATxucz2joFsCPkTPB+o3EcyBTG5kJlFti/BPNFJaGPQu8kwKUUXM0WxiaGEVtoR4uwGL5MmzDezitrlV/isZWB/rf3ZH1PZApjozcXoDBhnIPcvGgE48TtwPjTqpfUEMYmBnaFLJp9xyCvZZFsE8b3LWWXsvi5pLJLY+bIelURhMP4rmNevODPZgvj4wIZfkx2DcMlT5cQtk3lDkI5jWoJYx18QAmHuVFabw+3oW3C+B5FGGeBr69VGG9WAM++DaEyw5wp+WtdgTWE8YYXwJ2EvKnUMgfuwz7ngCAG/iO/Ymcb8cmB1BTGvnWnAiSt9E2jszmwTRh/olZa13VZtdLWLoxxkskCGhqBnHVIHeoarSmM8QzYEvD+Q54L2b2cdaPTnIcuqtrCWD+kKLpSyhWfG8d1KB/2+ZwTFozgeXn0AFt+sOu6uyd19BCEMVbAg/jSUjKHDbPR6RyoLYx99VrFjsxfVKuK+r7ml+MYJCb85Wo0hzDWedcXwC9+wIUafZIDkKmEbT3wHKbg38O7rpuU836i3f/R9/0zSnbbIcwD3tj8BI7kkKXjROyD53MIY+OSKXmb4jOChzwXUlotnkKO4/v6mYj4SA3TxPGOzyWMNxPF+SJ4nxdy7ROVtQCAz7C3vW1Lg4SxMJpd6a19398vIpZYjXuXsV2vVGhRjebmuzS0p3chwgHBcbjACs88VOYSxhvW8RP5iXyZC/c8e9qYI4Dr+6U66s7q6JzCeNMHMcjiEwXwq4O1FgL+IbYSQhz6nOKk3BWmD3YvFLBt4OZ367qO55rzahd6bd/3bNBTcGJ3+e4c76oQQijfKyIU/JwDpH7XcRHCav/JMvxoMeVxEIlQyKK5hbF+05L5OJiR3OjWknvwaxHxlIJUp4r1tn2ZNUd7yzGHYQEBigbDDqp6yFKJ0HJKwkh4b6nRp68gOgHTyzwkAKaQYPH7R8SzBrz8aZcuXXpM3/een0of6fteFMLTpjawkvek5cvaAzRkjuasZziGRQpVWlsKVyo7tPHQq5SeicexD2G84YNwTIrL1xXI3aXi16hqooDFayPiA8cgOsfM507P7kMzPt5hDj1C2VWGPZmgWZL5gqBlL3JC0mBPkk3+bTsAhLy12NiGBo5/ZdGObzZx1t/U9z0z0agKBBO/tYTXoApCHDNHANJr1tYbM17a16OL45YtUuWa43RIwngzLkD1ol74jBSmWAq9qWR2/nopiAuTeC+0b2G8GbR+KNHuFGXCkFK9L7ufMLP7RIQ/AVoz4p9H+u0axtA/ht5V7OcqAwwl9sQf6LoOnOHYa9+7+753Zfzg0I8d0HMEsnm6dSnBM5Z3GaxwmD+9mCRseEhfZ6XRHqIw3vCQAsMs56AUpbCPfY7voC6fGBGKGDAPnTwQM+Z8VBtLEcbHO81xYbOwOfHISq9mJ63ZV5UD2GNfXYz1JmeMrchGp0W7Fg8hh82zz9C2t70vzfx7uq7jcEVyXAAACQ1JREFUqBqakfcHfd+LBXW4XGSytlR8cSP72uJIrpm2T+iKTWWD5ATy9yGa1yEL4836Mwfmwm0FGpx9nhVHf9oaJ4B/pdxiOcsJX/gSY/Z51b1TU8BldFx2FTBrdiZaIZAYSPqu6bvELPNaP6cg8xNQnChCzDYlm6b0XT+B7ENwOsupxwHIOQN2bxdwEULlGl3XCYn74nMOqv/T9/3DijY4RAhMGfda33HYb9YWRx+/xT1L7PLUMdncil9yyNG4jtdnHNPmRRDGx/lhL5sLf6pKzc5vLnaJV7a/ONuB+YgP3tQx3NTTGzMfszy7dGF8kgn6e7LPBLVsLMklNEWTiZx8TAAfKiaHTf2yTZs2SnZK4/H+QRljDyfs9cNiyP7m5nvGLy1VIUbjVK7o5ccKtmaPc5bFOfNHTltbzBucs9aUuaRFO0jZ+FWSVh/PLep4afmMOb5ownjIPre/hcbyL5kHZg7KGrObPe5P82F+jlPGfMyyFNcmjGdhSvtI48AeOUDAcBq7ZWXRPqMpssZw8O00YXzwU9wGuDIO8I/IkMyCpqQZEsbCthotmANNGC94clrXLiQHOBYVYZ0au36SaezYon2qAdxcyFmqMOgmjCswtTWZxgHrU2QN++DJZAE+AeFhhM0hEQ1WunpW+J0Qyg2+wiHx6eDG0oTxwU3pwQyIk+bGJbxR2ODJEvHvLiFjnF0cOLtEpyyJadKiZatl0StK2NhvZTXY2qnDgSaM6/C1tbobB8SbsplKCthGryr20Dee4knf9u7S/l32qbR7uMBZhIcApk5GE2W139pJ4kATxkmMbM2kcQCCHQcWPIOhREt+QkS8sISaDX1vac9JVYd0lpn8AIvk4UsbaOvP5RxowritiiVx4PNLmiqgn7FEID+qJPKs1Y5Mi4XPkgmf2YTx2JW0p+ebMN4T49tnL+MAAfRLBThpKrLXrxZn1etPJGKsgd2SGQjjTLQ2sK/s7S2SYgUroAnjFUzSBeki1L6nRsSn7jheDjDXcprymkiav2KXQHSy6GXlcPqdrAZbO/U40IRxPd62lsdxAI4ATI+pWvHxrzFXsCELfVsD3bQULrhjcmcfXxI+dsFcSe5Sa+4sDjRh3NbGUjgA3BueRwYB6XlAMXssXRABLJIh57frreA478RhA6ZqzruMFTVDG00Yz8Dk9olBHMgUxj4IqetBEfGeQV/f30NKYKkJeYvkLqhxyOzBDt9oBRxowngFk3RBupgtjLHtpyPiOxYMqK+SstTn21eYY/Cq7NBDq8hU6EJrcgwHmjAew632bE0O1BDGoC059BS+BXm5JII98b0l2y4zlM0YwUgqbUTjbrQSDjRhvJKJugDdrCGMsU3RgBcUDfkk1u2+2KpY6gNLTLHacNn0ylL3b+kmmuxxr7q9JoxXPX0H1XkYE19Rym1lD8xV/RdK9YhtNQ2zv32yPaBHgIAkd/jvbOKwZKJQlqsVFcjmbsX2mjCuyNzW9CgOCGtTg1B1jRoESOgNEfFlRVuu8Y1tbf79iHhIRNw1IqZkGW5r37+r88ZW3ICBhnBrQc80YbygybjgXRFf/OGKQgp7aYrime8VEXMnQigZpDq0mOLMELbjy4aN/EUR8Y1LKrR5wdf14OE3YTyYVe3BGThwpyJMoJfVJHHIby4Vomt+R9viiIEfEcTquO1SSHdbX6WDK+T53m0Ptn9fHgeaMF7enFzkHhFcH4mIGk6tk3xVJZjT8Eci4lmVmK7qtJTk60SE/65Jkjw4Ku/TbMU12Vyv7SaM6/G2tTyNA9eKiA8kpUVv6wGzBeee6t2Pi4inbXth4L//jZJ0cqOI+PSZxsJWLJ16rYh1A1l7uI81YXy4c7vmkf1sRNx5xgEQyqIQaMvMF8oUufKPJRl/YnvZv1UmycDZGNIHh4l06p8c8nB7ZpkcaMJ4mfPSehXBGbXv9SlG+S0R8fKIeFtEsDULjbtqRFy/VCNxaPj7vvrqIHFwfGFbNOvmwL4W0Lq51no/BwckRhB+7MiNTucAQfzWiLh5Y9D6OdCE8frn8FBH8CkRoUrFw2a87q+JlwTxB0vM8pvW1PHW19M50IRxWxlL5gDn12si4mZL7uSe+vbx4nRUyaPRAXCgCeMDmMQDH4KU4ddGBGCdRldw4C9LyNxdGkMOhwNNGB/OXB7ySKQRc6Ld8JAHOWJs0sZVkm50QBxowviAJvOAh2KdSiN+bkTc5IDHOWRozDZ3GPJge2ZdHGjCeF3zdZF7K4341qWC8i0vICM47EBjShlvaGwHuACaMD7AST3gIUmiIIgV2lQl46KQeGdp1feICGnPjQ6QA00YH+CkHviQrNlbRcRjS6JDTeCdJbBShRJYzw8uCSdL6FPrQwUONGFcgamtyVk4QEOWtgwRbQ5goVkGdeIjr4+IlxbMjI/towPtm/NxoAnj+XjdvpTPAeFudyu/Q8pCYxN+YUQ8OSJUeWamaHTgHGjC+MAn+AIMD0Ia7RhIz+0i4q+vfMzvKiWinhgR71/5WFr3R3CgCeMRzGqPLpoD7Mhib79hpeFvykK9OCL+U0S8LiL+bNHcbp1L50ATxuksbQ3ukQMqhNw2ImSmfXVEXG2PfRnzabHDnHQ/HxEqOrfQtTHcO5BnmzA+kIlsw7gSBwDUsyEr/Ani8tMWyh/1+NiGZdT9drMNL3SWZupWE8YzMbp9Zi8cuG7BHf7yiPjmiPibe+nFlT8Kp/mNEfHjEfH28oOR3OiCc6AJ4wu+AC7I8IEN3aBUnlZeyd/npj+PiJ+KCFVM/iQifrdpwnNPwbK/14Txsuen9S6XA3+1YFywLSvcea/c5i9r7X+VUkjPKZlzH4qID1f+Zmt+pRxownilE9e6vTMHaMfXiIjPjYhHRwRkuCx6ZkQ8Ka4oHSWDzq855bK4e6DtNGF8oBPbhjWYAwqHEsy0ZvvhKhFxi4i4cURcJyI+qzgAOQHZnCVg/EVEfLQI2XcX5xvM5U1yhn/708E9aA82DuyxiGJjfuPAUjmwqeys9p7ST37+H0HtTxoujdcPyLv4YD8APk37XeqsrqBfTTNewSS1LjYONA4cPgeaMD78OW4jbBxoHFgBB/4/v7XGMrPiSyQAAAAASUVORK5CYII=;" parent="29" vertex="1">
                    <mxGeometry x="50" y="247.5" width="34.13" height="50" as="geometry"/>
                </mxCell>
                <mxCell id="98" style="edgeStyle=none;html=1;exitX=0.995;exitY=0.63;exitDx=0;exitDy=0;exitPerimeter=0;entryX=0.005;entryY=0.63;entryDx=0;entryDy=0;entryPerimeter=0;fontColor=#D9D9D9;" edge="1" parent="29" source="55" target="59">
                    <mxGeometry relative="1" as="geometry"/>
                </mxCell>
                <mxCell id="99" style="edgeStyle=none;html=1;entryX=0.005;entryY=0.63;entryDx=0;entryDy=0;entryPerimeter=0;fontColor=#D9D9D9;" edge="1" parent="29" source="55" target="69">
                    <mxGeometry relative="1" as="geometry"/>
                </mxCell>
                <mxCell id="100" style="edgeStyle=none;html=1;entryX=0.005;entryY=0.63;entryDx=0;entryDy=0;entryPerimeter=0;fontColor=#D9D9D9;" edge="1" parent="29" source="55" target="68">
                    <mxGeometry relative="1" as="geometry"/>
                </mxCell>
                <mxCell id="55" value="" style="sketch=0;html=1;dashed=0;whitespace=wrap;fillColor=#2875E2;strokeColor=#ffffff;points=[[0.005,0.63,0],[0.1,0.2,0],[0.9,0.2,0],[0.5,0,0],[0.995,0.63,0],[0.72,0.99,0],[0.5,1,0],[0.28,0.99,0]];verticalLabelPosition=bottom;align=center;verticalAlign=top;shape=mxgraph.kubernetes.icon;prIcon=deploy;labelBackgroundColor=none;fontColor=#DBDBDB;" parent="29" vertex="1">
                    <mxGeometry x="260" y="239" width="40" height="51.5" as="geometry"/>
                </mxCell>
                <mxCell id="56" value="" style="sketch=0;html=1;dashed=0;whitespace=wrap;fillColor=#2875E2;strokeColor=#ffffff;points=[[0.005,0.63,0],[0.1,0.2,0],[0.9,0.2,0],[0.5,0,0],[0.995,0.63,0],[0.72,0.99,0],[0.5,1,0],[0.28,0.99,0]];verticalLabelPosition=bottom;align=center;verticalAlign=top;shape=mxgraph.kubernetes.icon;prIcon=sa;labelBackgroundColor=none;fontColor=#DBDBDB;" parent="29" vertex="1">
                    <mxGeometry x="158" y="190" width="42" height="40" as="geometry"/>
                </mxCell>
                <mxCell id="57" value="" style="sketch=0;html=1;dashed=0;whitespace=wrap;fillColor=#2875E2;strokeColor=#ffffff;points=[[0.005,0.63,0],[0.1,0.2,0],[0.9,0.2,0],[0.5,0,0],[0.995,0.63,0],[0.72,0.99,0],[0.5,1,0],[0.28,0.99,0]];verticalLabelPosition=bottom;align=center;verticalAlign=top;shape=mxgraph.kubernetes.icon;prIcon=cm;labelBackgroundColor=none;fontColor=#DBDBDB;" parent="29" vertex="1">
                    <mxGeometry x="160" y="310" width="40" height="40" as="geometry"/>
                </mxCell>
                <mxCell id="58" value="" style="sketch=0;html=1;dashed=0;whitespace=wrap;fillColor=#2875E2;strokeColor=#ffffff;points=[[0.005,0.63,0],[0.1,0.2,0],[0.9,0.2,0],[0.5,0,0],[0.995,0.63,0],[0.72,0.99,0],[0.5,1,0],[0.28,0.99,0]];verticalLabelPosition=bottom;align=center;verticalAlign=top;shape=mxgraph.kubernetes.icon;prIcon=svc;labelBackgroundColor=none;fontColor=#DBDBDB;" parent="29" vertex="1">
                    <mxGeometry x="160" y="239" width="40" height="50.5" as="geometry"/>
                </mxCell>
                <mxCell id="59" value="" style="sketch=0;html=1;dashed=0;whitespace=wrap;fillColor=#2875E2;strokeColor=#ffffff;points=[[0.005,0.63,0],[0.1,0.2,0],[0.9,0.2,0],[0.5,0,0],[0.995,0.63,0],[0.72,0.99,0],[0.5,1,0],[0.28,0.99,0]];verticalLabelPosition=bottom;align=center;verticalAlign=top;shape=mxgraph.kubernetes.icon;prIcon=pod;labelBackgroundColor=none;fontColor=#DBDBDB;" parent="29" vertex="1">
                    <mxGeometry x="310" y="244.25" width="40" height="40" as="geometry"/>
                </mxCell>
                <mxCell id="60" value="" style="sketch=0;html=1;dashed=0;whitespace=wrap;fillColor=#2875E2;strokeColor=#ffffff;points=[[0.005,0.63,0],[0.1,0.2,0],[0.9,0.2,0],[0.5,0,0],[0.995,0.63,0],[0.72,0.99,0],[0.5,1,0],[0.28,0.99,0]];verticalLabelPosition=bottom;align=center;verticalAlign=top;shape=mxgraph.kubernetes.icon;prIcon=rs;labelBackgroundColor=none;fontColor=#DBDBDB;" parent="29" vertex="1">
                    <mxGeometry x="215.56" y="239" width="40" height="50.5" as="geometry"/>
                </mxCell>
                <mxCell id="65" value="Cloud&#10;IAM" style="sketch=0;html=1;verticalAlign=top;labelPosition=center;verticalLabelPosition=bottom;align=center;spacingTop=-6;fontSize=11;fontStyle=1;fontColor=#E8E8E8;shape=image;aspect=fixed;imageAspect=0;image=data:image/svg+xml,PHN2ZyB4bWxucz0iaHR0cDovL3d3dy53My5vcmcvMjAwMC9zdmciIHhtbG5zOnY9Imh0dHBzOi8vdmVjdGEuaW8vbmFubyIgd2lkdGg9IjE2LjQyMDAwMDA3NjI5Mzk0NSIgaGVpZ2h0PSIyMC4wNDk5OTkyMzcwNjA1NDciIGZpbGwtcnVsZT0iZXZlbm9kZCIgdmlld0JveD0iMCAwIDE2LjQyMDAwMDA3NjI5Mzk0NSAyMC4wNDk5OTkyMzcwNjA1NDciPiYjeGE7CTxzdHlsZSB0eXBlPSJ0ZXh0L2NzcyI+JiN4YTsJLnN0MHtmaWxsOiM0Mjg1ZjQ7fSYjeGE7CS5zdDF7ZmlsbDojNjY5ZGY2O30mI3hhOwk8L3N0eWxlPiYjeGE7CTxwYXRoIGNsYXNzPSJzdDEiIGQ9Ik04LjIxIDBMMCAzLjQydjUuNjNjMCA1LjA2IDMuNSA5LjggOC4yMSAxMSA0LjcxLTEuMTUgOC4yMS01Ljg5IDguMjEtMTAuOTVWMy40MnptMCAzLjc5YTIuNjMgMi42MyAwIDAgMSAxLjAwNSA1LjA2QTIuNjMgMi42MyAwIDAgMSA2LjM1IDQuNTZhMi42MyAyLjYzIDAgMCAxIDEuODYtLjc3em00LjExIDExLjE1YTguNjQgOC42NCAwIDAgMS00LjExIDIuOTMgOC42NCA4LjY0IDAgMCAxLTQuMTEtMi45M3YtMi4yNWMwLTEuNjcgMi43NC0yLjUyIDQuMTEtMi41MnM0LjExLjg1IDQuMTEgMi41MnoiLz4mI3hhOwk8cGF0aCBjbGFzcz0ic3QwIiBkPSJNOC4yMSAwdjMuNzlhMi42MyAyLjYzIDAgMSAxIDAgNS4yNnYxLjEyYzEuMzcgMCA0LjExLjg1IDQuMTEgMi41MnYyLjI1YTguNjQgOC42NCAwIDAgMS00LjExIDIuOTNWMjBjNC43MS0xLjE1IDguMjEtNS44OSA4LjIxLTEwLjk1VjMuNDJ6Ii8+JiN4YTs8L3N2Zz4=;labelBackgroundColor=none;fillColor=none;" parent="29" vertex="1">
                    <mxGeometry x="270.74" y="52" width="39.26" height="48.5" as="geometry"/>
                </mxCell>
                <mxCell id="68" value="" style="sketch=0;html=1;dashed=0;whitespace=wrap;fillColor=#2875E2;strokeColor=#ffffff;points=[[0.005,0.63,0],[0.1,0.2,0],[0.9,0.2,0],[0.5,0,0],[0.995,0.63,0],[0.72,0.99,0],[0.5,1,0],[0.28,0.99,0]];verticalLabelPosition=bottom;align=center;verticalAlign=top;shape=mxgraph.kubernetes.icon;prIcon=pod;labelBackgroundColor=none;fontColor=#DBDBDB;" parent="29" vertex="1">
                    <mxGeometry x="310" y="297.5" width="40" height="40" as="geometry"/>
                </mxCell>
                <mxCell id="69" value="" style="sketch=0;html=1;dashed=0;whitespace=wrap;fillColor=#2875E2;strokeColor=#ffffff;points=[[0.005,0.63,0],[0.1,0.2,0],[0.9,0.2,0],[0.5,0,0],[0.995,0.63,0],[0.72,0.99,0],[0.5,1,0],[0.28,0.99,0]];verticalLabelPosition=bottom;align=center;verticalAlign=top;shape=mxgraph.kubernetes.icon;prIcon=pod;labelBackgroundColor=none;fontColor=#DBDBDB;" parent="29" vertex="1">
                    <mxGeometry x="310" y="199" width="40" height="40" as="geometry"/>
                </mxCell>
                <mxCell id="87" value="" style="strokeColor=none;shadow=1;strokeWidth=1;rounded=1;absoluteArcSize=1;arcSize=2;labelBackgroundColor=none;fontColor=#142902;fillColor=none;" vertex="1" parent="29">
                    <mxGeometry x="11.5" y="40.00000000000001" width="136.5" height="49.96" as="geometry"/>
                </mxCell>
                <mxCell id="88" value="&lt;font color=&quot;#110299&quot;&gt;develop_repo&lt;/font&gt;" style="editableCssRules=.*;html=1;fontColor=#999999;shape=image;verticalLabelPosition=middle;labelBackgroundColor=#ffffff;verticalAlign=middle;labelPosition=right;align=left;spacingLeft=0;part=1;points=[];imageAspect=0;image=data:image/svg+xml,PHN2ZyB4bWxucz0iaHR0cDovL3d3dy53My5vcmcvMjAwMC9zdmciIHhtbG5zOnY9Imh0dHBzOi8vdmVjdGEuaW8vbmFubyIgd2lkdGg9IjIxLjk5OTAwMDU0OTMxNjQwNiIgaGVpZ2h0PSIyMC4zOTM5OTkwOTk3MzE0NDUiIHZpZXdCb3g9IjAgMCAyMS45OTkwMDA1NDkzMTY0MDYgMjAuMzkzOTk5MDk5NzMxNDQ1Ij4mI3hhOwk8c3R5bGUgdHlwZT0idGV4dC9jc3MiPiYjeGE7CS5zdDB7ZmlsbDojNDI4NWY0O2ZpbGwtcnVsZTpldmVub2RkfSYjeGE7CTwvc3R5bGU+JiN4YTsJPHBhdGggY2xhc3M9InN0MCIgZD0iTTUgMHYyLjQ1OEwxLjk5OSA0LjE5N3YxMi4wMUw1IDE3LjkzOHYyLjQ1NmwtNS0yLjg4N1YyLjg4NnptMTIgMGw0Ljk5OSAyLjg4NnYxNC42MjFMMTcgMjAuMzk0di0yLjQ1NmwzLTEuNzMxVjQuMTk3bC0zLTEuNzM5em0tNi4wMTYgNi42NzNsMi45NDctMS42NDYtMi45NDctMS42NDYtMi45NDcgMS42NDZ6bTMuMjY4LTEuMDk2bC0yLjg3MSAxLjY3OHYzLjI4N2wyLjg3MS0xLjY3NnpNNy43NzMgOC44NjZsMi44NzEgMS42NzRWNy4yNTZMNy43NzMgNS41Nzd6bS0uMjEyIDMuODc4bDIuODItMS42NDYtMi44Mi0xLjY0Ni0yLjgyIDEuNjQ2em0zLjEzMi0xLjA5OGwtMi44NzEgMS42Nzh2My4yODdsMi44NzEtMS42NzZ6bS02LjI2NCAzLjI4OUw3LjMgMTYuNjA5di0zLjI4NWwtMi44NzEtMS42Nzl6bTEwLjAyOS0yLjE5MWwyLjgyLTEuNjQ2LTIuODItMS42NDYtMi44MiAxLjY0NnptMy4xMzItMS4wOThsLTIuODcxIDEuNjc4djMuMjg3bDIuODcxLTEuNjc2em0tNi4yNjQgMy4yODlsMi44NzEgMS42NzR2LTMuMjg1bC0yLjg3MS0xLjY3OXoiLz4mI3hhOzwvc3ZnPg==;strokeColor=default;fillColor=none;spacing=0;" vertex="1" parent="87">
                    <mxGeometry width="30" height="27" relative="1" as="geometry">
                        <mxPoint x="15" y="16" as="offset"/>
                    </mxGeometry>
                </mxCell>
                <mxCell id="91" value="&lt;font color=&quot;#029907&quot;&gt;production_repo&lt;/font&gt;" style="editableCssRules=.*;html=1;fontColor=#999999;shape=image;verticalLabelPosition=middle;labelBackgroundColor=#ffffff;verticalAlign=middle;labelPosition=right;align=left;spacingLeft=0;part=1;points=[];imageAspect=0;image=data:image/svg+xml,PHN2ZyB4bWxucz0iaHR0cDovL3d3dy53My5vcmcvMjAwMC9zdmciIHhtbG5zOnY9Imh0dHBzOi8vdmVjdGEuaW8vbmFubyIgd2lkdGg9IjIxLjk5OTAwMDU0OTMxNjQwNiIgaGVpZ2h0PSIyMC4zOTM5OTkwOTk3MzE0NDUiIHZpZXdCb3g9IjAgMCAyMS45OTkwMDA1NDkzMTY0MDYgMjAuMzkzOTk5MDk5NzMxNDQ1Ij4mI3hhOwk8c3R5bGUgdHlwZT0idGV4dC9jc3MiPiYjeGE7CS5zdDB7ZmlsbDojNDI4NWY0O2ZpbGwtcnVsZTpldmVub2RkfSYjeGE7CTwvc3R5bGU+JiN4YTsJPHBhdGggY2xhc3M9InN0MCIgZD0iTTUgMHYyLjQ1OEwxLjk5OSA0LjE5N3YxMi4wMUw1IDE3LjkzOHYyLjQ1NmwtNS0yLjg4N1YyLjg4NnptMTIgMGw0Ljk5OSAyLjg4NnYxNC42MjFMMTcgMjAuMzk0di0yLjQ1NmwzLTEuNzMxVjQuMTk3bC0zLTEuNzM5em0tNi4wMTYgNi42NzNsMi45NDctMS42NDYtMi45NDctMS42NDYtMi45NDcgMS42NDZ6bTMuMjY4LTEuMDk2bC0yLjg3MSAxLjY3OHYzLjI4N2wyLjg3MS0xLjY3NnpNNy43NzMgOC44NjZsMi44NzEgMS42NzRWNy4yNTZMNy43NzMgNS41Nzd6bS0uMjEyIDMuODc4bDIuODItMS42NDYtMi44Mi0xLjY0Ni0yLjgyIDEuNjQ2em0zLjEzMi0xLjA5OGwtMi44NzEgMS42Nzh2My4yODdsMi44NzEtMS42NzZ6bS02LjI2NCAzLjI4OUw3LjMgMTYuNjA5di0zLjI4NWwtMi44NzEtMS42Nzl6bTEwLjAyOS0yLjE5MWwyLjgyLTEuNjQ2LTIuODItMS42NDYtMi44MiAxLjY0NnptMy4xMzItMS4wOThsLTIuODcxIDEuNjc4djMuMjg3bDIuODcxLTEuNjc2em0tNi4yNjQgMy4yODlsMi44NzEgMS42NzR2LTMuMjg1bC0yLjg3MS0xLjY3OXoiLz4mI3hhOzwvc3ZnPg==;strokeColor=default;fillColor=none;spacing=0;" vertex="1" parent="29">
                    <mxGeometry x="20" y="100.49999999999994" width="30" height="27" as="geometry"/>
                </mxCell>
                <mxCell id="2" value="GitHub Actions" style="shape=image;verticalLabelPosition=bottom;labelBackgroundColor=default;verticalAlign=top;aspect=fixed;imageAspect=0;image=data:image/png,iVBORw0KGgoAAAANSUhEUgAAASwAAAEsCAMAAABOo35HAAAC9FBMVEVHcExQgL1Kfb9JfL5KfL1Jfr9Jfr9Jfb5Jfr5Jfr9Kfr5Kfr9KfsBJfb9KfsBKgMNLd75Mf8JKfsBJfb5Jfb9Jfr9Kfr9Ng8dQiM5Ph81OhcpJfr9Kf8BKfr9Jfr5IfL1LgMJKfsBKgMJOhMhOhMlMgsVMgcNLgMJLf8BOhclKgMJJfb9LgMJKfsBKfsBLgMNLgMJNhMhPh8xNg8ZKf8BKfsBKfsFJfr9Kf8FOhstMgcROhspKfr9KgMFZkcZIe7xKfsBJfr9PhstKfsBMgsRJfb9Jfr5KfcBKfsBJfb9Lf8FKfr9NgsVPhsxIe7lKfr9Jfr9NgsZLgMJLgMNJfb5GerlLgcRLgMNKf8FJfb1LgcRKfb5Jfr9LgcRJfb9Jfb5Jfb9KfsBJfb5Jfr9KfsFGfLpIfb5Kfb9Ke71IfbxJfb9IfL5LgMNLgcNJfb9Jfb5Jf71LgMJKgMJKfr9Kf8FJfsBKfsBLgMJJfb5MgcVKfr5Kf8JJfb5LgMNLfb9Jfb5Jfr9Jfb5Jfb9Jfb5JfsBJfb9LgcNLgMJLgMNKf79Jfr9GerlHe7tLgcRQh81JfL1JfsBJfb5KfsBKfr9LgMNLgMFEeLtJfr9JfsNKfr9LgMJPh8tJfb5Qic9Kfb9Jfr9MgsVJfb9Kfr9Jfb5TgbBJfr5Kfb9LgMJHfr5LgMNJfr9Jfb9MgcVLgcRKfb6Fs96Dsd6Es9+Es96Fs9+FtOGEst6Est6Es96GstyFtN+Fs9+Fs9+GteKGteGFtOCFs9+ItuOIuOWGtOCFtOCFs9+Es9+GtOGFtOCFtOGFtOCEst+KuuePwO+Nvu2KuuiHtuKGteGJueaLvOqOv+6FtOCFtOCEs96Fs+CFs9+HtuOFs9+DsduHtuOOwO+MveyDseGGteKHtuOGtOCEs+CEst6Ht+SFs9+HtuOFs9+It+WJuOaFs9+Es+CFs96Fs9+PwfGFs9+Est+Fst6Fs9+Fs+CHtuOFst+It+SFs9+Est6Qw/KFs+DyYsmOAAAA/HRSTlMABBw4UWJ+k6+0sqx7TjYZBi2NuuLy///////giF0oH5rX9P/////////w1ZdaabTt/////+yvSKT////poAMZcc/////JbRaC5f95F/8QZt3/1bouC/XIwzHy/fzu78GcRpi+2gkmhiotUkTj5qYhJOndVfi3vPxL9/+VPPkrLPRYPkB2gOvM0g/MDhT7/zTnOkJ0//8SqQxv4P+f/9LG/Y/3HgHZYI8Tr/mK/9myCRYpPFBVQTMeES9ji7DP7/z////24MOeeESW1v///////////+dzSZv/wG8bxv//Ddv4pzhb02mzI+b6f03/ov+zyr24rruF8ZHP/3sC67hSAAAqrUlEQVR4Aezd+VvT6P7w8Q87KEVGh09IFLc2TaMDY9MwQJAtBYRgQBRUHFEWQQdUcHBFUVEUB7GggCKDO6Kj4/kbH7/zHJo7TZcEevAq4+tnL5vrzZ19uWE54uITEpOSU1LT1n2Vtj4lPcmWsSEOAnyX+UPSxk0/ZiGVTTPUfzF0NoVZm9O25Gz1F/tuW872HTvt2Q7WyblQx8U5WT6b2rX7p9x4+A625f28xy14nCKG5HJStD3/l6R/ea/MgsL8IkYSMSJRKmb2lhSUwr9VWXkFK0teNEmsFNiq6n3wbxRfUyu7FbREsRdtrtsP/zb7ampVD1rn9aib6+rh3ySu4YDQiMvkEQ7mwL9HwiGGwhVw239ugn+H5prDsogroqi70jPhXyDjiODEsFzcVxFyVspHW2DNqz5WHPpYiuIZRlY9vx7/9VdKLWIYngp5sCrKrUmwttWXFLMhDqIcsvvEjpNt6Um29oSvCmwNyR2dp7Icsj3EoVijvaML1rDuI7QSrBRbzOd3nrad6YIAzb/1bDm5h2FYEY044eg2WLN6z6poxDHuc+dz+yCk/pz1FxwMhwZe+vcEWKMGWnk0kOiLl3LKIIL4pMtXVCcaMBeuwpqUc40aNKbKup4BptzYvkuVMMCg+3AirEG5Q43GjU7W9Ztg2q2U2yqHAahja7BWjqGVyFwpuQmWtJznGG9grbU3toavBbaS5KN3wLL2I4JkqHUV1pS7rRTqMTtHMmEZuu4N8ahnv58Ba0j/WX4QSYowmrDs8A8EBUmDzIF4WDP+GFP1rSR++0NYtvFCxok69MlmWCsKaS+SqEflsCLJlR5dfdHXAWtEHqPoj41abbBCuccoXS3OngNrwsROVr+FmXwMK/bkvl1Xy7PnFqwBXVXFulb8ZAZEwd09Dl0toTMOYt9pQb8Okq1WVosia4lFUxDzJoacSKB2ZUCUPDnMIoHd9QPEuNKT8iBqpEc2CKq+b9u2ZrAml51GgnAJYlxSkYiaGb4cgugr33Rq72TtwXV5/WBFsqygRnH3QEx7esCNBLUNjB7WXBAYimVZipHv/7QVLHgmIMGxuxliWTKNhKKKWTD4bdTH4hIpuzX5DzBtfIfuNEp9DjFs/6QHNZXHJsCgZU5FEiscHADT7up2H9SBeohdyQJqxD9HguTcoWIAu6ew2/KBSewPrX21HtQwVXFgMP8CDRT1fl0mmNO827FGhtZzFTXc0A0weHyFwyBYdawAzLkqcahhkiBGdb20o0aYB6NCHwblZa5s3wampApkrFelEJtslIJ+0u1+MNi3l8UQOHrO3ChpuuhEv5nXTyA2nVdRo74Bo0RWwZAo5tIEmJDyJ2qENohJ205IxMDK6gOj0zKG4ZKP1TRDRFvfTqMfW7sPYlEDWYJOgSBKfOinONFAUkevQkSFAvp5+WGIRWnF6MddbIEg1slaq6wTzAwG8vLOkniI4C65S5XPQwx6d6IS/ZhNECGWZ3dLCeVAA06Yy4HwFl7x6Nc4OQ6xJ8ch4hLRnQPBpBKx3mfCwEHaiQaU45dbEFY1cZta8dgg9szT6MfuHYcgSi8zRKynAE83XisSgxzR7ymPgzC2ZUnoJ7yBmJO5wxNxQ9I15tbHArhzVGbRgGUOTUAYaQz62ccg5vz21olLRD7XbCyIK78vKBhIlHeeng234xWJg5R+iDWLDhcuqTzxznQsgK3PPO5gRxFH7kIoW287cYmL6oFY8yYb/RydYCEWQO7vwTb0/NCHpxDcQhWFfr57EGs28egnn7YWC8Y/DDFeDOSkHxRAcG8E9GPWQ4yJ28ziEtGeaC4W4cmrYBt6/tFPHyGYxWKtLbV7AWJLPLEVkbK2Wo4FXXX3BRcG4rIfTEAQE8TuRMp/B7El4TiHS6j3zaZjEc785abQQN5zF4zqa1kt6KfHEFsS3dqw4DvBfCzS4hzNYYBB+55gLarsuMTlGYDYspiNfkzbMmNB/PUrjKGWfKoMDM4z6JedB7Hlno+IlQ7BLXTy+lhG7aNqJQbI7gh/ZYyugdiSUox+RUkQwjo5UiyYvbdTFVHHebEJAlULMXx2mEqhn5BoPRah6Wfeg6RgVxJzyNX+PMSWNIrY4LZbi2XQcFblkGA3PtTQY3fFbqx1WizueMIKY8G2EkkaRD/u7U0I0DujfI+1ZHjPNPqJ1A0I0M59j6V5Rn+PZTZWQyu3dmORG3iqYKWxmv6iyG2W03iyOcCLWqxnEFvWu6N26ADNybsEBQn8WGbYM4bCWD4obVhRrPYjKos69GkINBXLB6XJ5OlO8gpibWtzMqgn7eyHQJ/l2LxUalwt5pcdayHvrPHCQ/ZpMHgWyyfSNoq4RHMyzB3+sLEmgnzhZ1AYexj2Eo3C9kBsySAu/nkO/AFBZVa5w8Wq/3w4yC3XonNnwGCcuPg3/SkBYsuGLCcucd7+YTnXswYOChIGEoW5x2CU8IkjLitvgNhSeoBFP2bAeqz+QtaBBqxwqA+CaBAwhm9YQBp5K+yz1ViZU/dVLtiXjUJ8NqtDxpg7JiVszEY/+yuLsZ4cZVg0YIsOtYQYxxUU+mUnQ6zJIe5YSCf6zMQibrEGe5ZG2PM8DoL7gbgTpry2Qaw5Qyw/MjkWYi3+LjjRgHL/1Q2hVKtIPFixDWJN3G4P+hWvh2DijjoMsX77y0EFfdB70eSzAvYqiD0dNPr9nV8W+Qi+/p/70K2qggaMtD0eQusnbn+j7zPEngFio+VlGiLGOtAMUDAm/I0GkhDhmeUp2UscvxdA7NmvewC3M1IsZWi4aZ7j0UCUL57+A8IpHbOjX2PtU4hBqUXkW04JEESajH6K91eeQwMPcygDwut9PYN+8jzEoiTZFeE1J0iVUaMEScWpZ/MWrLz867UPQCwqy2eROD+8CUYd2RiOl3GW9EEkGUNEZc/meohJJSpqfG1gNMKLGBqrHmm3+la5kAKx6Yk0QwytnTfB4O60ghrDEXtdF4C1gcUNZUBsihvjUfPnejCYfU9hCA7q2VYwY5OM5F53AWJUAyOiH/f6KhjU+DAoVnjQA6YMk2+Aiu5hiFVPf6RQwwT5qkN8LYVGM0Jr8iyY8vGAHTX2HbMQs0YEJNCfwWBR5jAQX3n+poWTKkJRHsSuj7qhNT10FwzaXiiB+8CKRDDLJpGt7e9nIYaVF3tRw5/aB4Ey51VWd3nhXHkzmPVuzo4akWmAWNa8m0cCvR6M6o75KvEf3kph6Kc+MK30Eo0EZiwTYtqAW0GNqN4Do5aSCzwjyzLjuF+SABa8UUUkd7cFEOPShEHUTFfmQBB9uRvXXVq/cbgPrMijOCTQ5yHWndnFIoG91g5R0vNIQkLjhT6IeXWCFzWDVOtdiIqrxzzkmFWKqyH2ZZ4sCnidJCq1CgI+6yqsW4A1YOseT0CtAlixHn2rQfu5d7AmLLo5XS33tUVYobxHnkEkTL/ugTUihfbqarFsDaxE6QdK0rUS6dOwVjR30qjDCX9tgGXru0RzqONblwlrRtkXGXVE4ctVWKbE3wUv6qgv62ENaTnnRj3HlQ9PYRn2/SQZ/qu5blhTnuykUG+aftADluUeFDjUs7cmwBqTeJjCAA5PWgJYcueQ3Y0B3K29QFiztRT5eGEGmHbjmUtW0DCu2mENSjzmxkCc8OlZ+wKYEHf1r+NCkKuq93thTbp7TkaDadlZVd4PEWytq2BlDg3UuQRYo5oO0iIaKHZ118/PWxYghIWJqUu7VLeCBiI92g1rVhl5OEmQGGFnxU9JN/ZDgA03Gra/fCvwTgzCKaz/CGtY6UaWwqCclCx/mqxYn1K3mGPr7bXlJNW9SX05+asqU9MYlPtRDUQUf2Mg7971tra2+ZTkvJ6MePjfiut/klte09H21ee6RVtLPazI8FlBxBA4luKLVNrXqCiebFqVeYrlMASFnrNBWKUZefMVk8ftPpX5P0VqtvvT5Nj2RXKFj6aHT6ZSd+SLMi0z/0dWafb25pMbh/th+bp/ZhoxPGVmxoXheRzr30EYme0fKi4KjJsl51gWp1l3kXy7ouZOHETZR1vJAYXmKYnzkp9e9djl4j2dIy2wXAvV9+kZXBGOPtcAYXSnv6wU3BwG5XQLM2NTfRBFEx82U7JnBoPxSryw8/LiH8seXIV/8yIumxjhk95N21t1O08jzi5f+HAGouTqX0OqR8QwnAxzKn0/LJNtlHHj8njtjqPtENrW7TsFCSNihWPX+yAK2g9JMoeReCl1Lv0pLE9zw3vZLaJlLodckZMJIdXXtNJONEWiL9TNwgr1lVyRFTTFI5zKgWX6WP7SznBoCVdkr2p4CKHZDgosmsYKo3dhJRbyLvg4NM1O/dUNy9Q1fPmK4HGhSQolXEzryYTQZj9IPFrCXKvJhGXb9hffiFYowoUkWLbHHw5QqkfBiGYoofH9lgwI5+YRmkOLJOFQPyyT7aygoEUe6nozLFu9bftmiXazSphQrMM3c+D61VkIy3auCK0Thbk7sCxTj+zLOuo52gcrUF9Q8+qCxA9iIHHGyVKyTznbmd7bDBE0XHNjSIqCIfGtw7AMKYyEoXgVEUOSf2+BlYm3zVOoGeQYQXjBKLdrx0qqC/ZBZOksO4hGMxLFCC98LOvLFhhKCtZskHqUBJa1ZXPBz9jcMv1ClqjsbJX3OIM2Kz7bCyvUK5C/OXl+45bnSQVN9WBODeNEA87t4/Krzp+uzuvpyXv+ufBlvtNHcWjAWq/VJhi7e508fXzyaNu96qTE3OqRN6m7s+x0kA3yINP6BFYmUUYNnwaWPOenDYvuES6+qrm6YQH8SuMTT1dcUVmvsdYiWLKdNjRQ3HLWpqm79aCJ61786T2rOg21+AstUYxlryoFC3JfSxiAkg9syVgAg7g7KZOyBwN4DheABVuyA1u5eGp0qhuMmm2FbwXJMLY290Uvlmd3F5iX4H/6aAmrHswbhxDK6uZUCfXs586AaXmGc3S3++hAJoTQ1JFlOCGSq+qjFqtxh4VY+08x+lYueU962GUp27JTFpE0KFQ8BJNuHGZRhxO+5C5AGL8VsnbUo+ejFks68RTMWkjNRh2J+eUmRDDRKThRx9cG5nzcwaAOJaWMQwS2L7QLSQrTEK1YzrfdYFZDsQtJ7mtTEFlpzRUKSYp9GEyZ96GOfNZmZvgHTtjvaT0TpVic2A4mde/xIEme6wVTelr1x8HU3H4wocfDIcGrvtoKpqQ/YpEkbCqNTiyRqQaT/iPoWx1sApMSahkk+TogsvpTDiSI9M/1YFLSkK6Wi2mITiykO8Acm/4PLYy+A9NaanVja/rRDYjoNI0kIW0WTEscakQCVVsWnVie910m32lkdEd71p4+arlgJ2oNFl2Ogwi2Zv2NBPXSLFiwqH8aPftzdGIpnqsmX2l0kYl3TYAlvdck1IjuHktvoQ0yD8bBkilGQQ2bvy0qsZDpNDeTKa97IWUYLKpmZlBTfHIBwurOIuM2traARfMCEnyfoxNL5OsgsgHKFf7T59ZeR5959ATC+uxDjeJYBKvqX/K6obUhKrHQ+boaItpUpHuPtR4sK9O9Eqk+g3Ce1rKoEdaDkaXJGFEdiU4srKyMOLZajhO/rLA2WIbFYheG/dIXIYm83cku72WhDgE17oq46MRCJ19SD2FtoVGjpoIJTxsKf04d6Qe/hZPFqJHLTQ9kIR3MmEi/3jFyE/ziyRmOuSt3oxQLFfpBL4SRWeGw+kkH2xdZFlS5lRi0V8nr/0y4TXxflhP9PLXjps5yrhQzjHxsozaC0gXU0BtXHIucTC3MImW4yC/2mBlYw9cYL37FvvhMDC1ivEzfvmluhk6UzQysd6MvOPxKevEs09+PHFrU7rioxcJp4UteM4RwT0Y/F9tuppVnaRX3FMCSXLeLaNAAIf2ikjuyeDOt6KWV5MU94u0c9OM+Zaw0FsnNjCaFyLWJWHh7RaaFVjgopMGShz+ypqZWeTpZSUSdN9PKh0sa9+4P+kEY31Q0Y6FodzwofwdG47XEqUfRPVOt/NjJDUF3UFTo86wnyozpgUyMK8O+emHMTkQ/H4VYJNEt750veAgBbjgVXDKjZERu1Yia6U8TsMRGbOKdt29BCFNFXm2g/PgRIogf9SHhxXNYkqyiX+P7hejF8n/EQDp1fWBDKRAaKJGYiqfLxLgiOLPOaEM0v1L7JYct9K1C9GNSI7eikSQ0wJK7j2aIP058lGKRFA/Nnnj1Ie9J3x9dmf/oKEI/4XykVkONSLKTV/nTHOhXvHHrD8HcaqqiiFjPLbbilDuw5GOttiwzMzdWGmvGGbSX5M62Y9belxUvv6o4wRHjYQR0FsK0Mn6B/7QPNcdvvw3uV/Jp0ccRWlXQqFNM7oA6efQrGlhhLOXECUbEoETOWemh/sENEhnbQfPkQ+erwoZ6XSv9zbLBos1l+llKyRDTwRFLJOX3gaYsb3taSd7+cK2c9h7QpJDzIkytMBZVNXFZrkTzlOPdsORpyetsu1sQHjwJ3Yq/kAFk3eMcWkKRs5XlzNECLwhzSUQrAXWm+WQgPC9GP/nNSmNVwMLIMQZNq9zr30xmbvr/B81eeVeBtg6GbQU3s6bREuYk+FW77V5E9NrtU+T2ijTtuAekHqIllbriWJkAN8Z802iSR7s6M5W9tLq4d9lCtUoAnfh8CS2RN8GSW/7XTp3/rVUW2MrJ3wv8sqqIS6i0aMSC5i3EbNLhURVd/s8Iuv1RPI8Wjesg2Uo7XfsbrSDnQbr+QovinvqnlS9CK8j4lZjed11UYgH0VsmUyVhL25AJ8gOVjVdyjK0chlZQutljMVaHduWDQqLWyNdWhu3VveBzIUc5FnSV/05TlkZWosdFhGHfdmSFGFeksr0SWkGcQY6fkFDjlGqOBmm1OrEAxpO/MPwMRuA59XRpx0bGwkGO4SK3gneWt1mXtRmsK5GgODzGbbtBgd0b3W2W33helSK7FQzH6b9gEn+iEo2IVo/BqOm2Ey3hX2kzFssYxrQ9GYyG/0Q/+7MoxCKU3vjwgJMZT+hgiug//Z1/YbkVtCtWj7Pe/6HNYiOiEbkOGo2Qx1mfoxKL1Pw4/fJmTmZ4B8VK3FfOSpZop/ztP/3t38sPWmwFDQJqnFQICnka3u1fsio6dCtHMgTTxpBXI6IWi7TvzuLGdWOn9p44/uvx41l7934ScYmXOEJuP+YetNYK3tBE9/zd74PZ8f6tC5eInl5Y0vdAxuCc5PaK9MpBPB4ysNJYY3EQSn3f1ozHCY9v9fV1uL24RP2F/A6ZfTBoq3NkK9JJcurKuq7ZoB6Sp79MOhC1iE1QmOOroDd4ODFhWXcfZyw+rLxIXM9qJCdvK7jvsNQqnrgp7wr9kEUKeT3rEpC1VCvjCq4SbydKWeNgXQJxVMuvAxMmOIW47HAXNAlnmSCtEkJPqEQu/FYIodqhrYfs3g0AYddEJ58c+pOhutPgZXhMxDI3suo3N4Y6eZ8gahnGlcEzcgvwMi7kEnpn0M8xDLpagmFchWzVRX7YXZhfnViQSp68H5gNVytcqzLiqjIWdUAos5tZ4t/9B/S16LDbK1KvU4suytWrFGuKCCLahyF0LSZMK3gue4ndai6EVEKHnpTj3VEh+PUro0IZ/ZyfmlYp1m/kNTvmZKmxlol1ELp2O9Dv73BPhizavaHnFP7YSZtr1b1TMkzWtQqxMsccxmcFiVoyOa7MPRrDhPtlcq+JbP470Bk/SYvht+3GG9JIJ69WLKiTUcO8ygSdli8vJEVUnC/Ohms1u9uOGjkJwlivosaXAnrjnS9YlygqPHMv3Oqw02m4e7kqsfrfOjHMhGTvSvZIdvb2+TMQRrKAmsbJfRDGgJ085Tk8Edj98x6Kd1Q+WIQwUlXD5elViGX4U3sm4w0rTk/1QDeE07SrEjVCB5DC7vSxqDMOArzLKX9e0Axh5OgmKGGSVjFWL6ugRrX+feXMozJqpi+2QFh1Pi8xlIVksKpvksxNHXi4irFKXzGoEYtHwKKNPhE1QiqEVzbpQY3zWgFYk3lZRoIvGVYjFjkTukZ61AOWNFAcarjIr1jcE1Az6D53BixJIUcmen7cv3qxDBcqB6nWx2DBwBCLBOE8RLK/lkICf3AbWJBeNIMEoRxWNRbcucKRtRznEiy0uqi7mSHd3goRVcteJNBH4sG0atapK717dlVjGaYpGuTvXwWThvWtkL4HkWW+KkKScPAMmHSakpDAvbbBasfat9muq+U+nAemjDxiyVaDTEWzqeW8IiGJP9sOZjycl6eRRBfCqseCnkZOV4ultn+EiMoC3yyVhu6YHCCqiCT74ZFSiGjiCK3o/6hzG75BLEjJ9iKJE3bYIILcOVpEkldNB3PiOgUkDUp//twE4XWN7CpGHcl5Fb5FrOaTquH76YVnIIyM9R4K9bLXlYJJ3efcg0gS5V01+yEMWxXDoo5LqIFvEgv65phB1OHU1g9NIX+p8KKsoF7Rg31gWsEQi3qSMJe+DYLrsl1yMiLq+dYvfKNYcKOVGjQs/sX/5MaDwbukTUE+aM2fuwUWNLidGMAjX5hv/wgGZ+pG2WIFA6hHZ+FbxYJE/2wpGq7Yvnf9VEZZpn+vH/94JC3fwXAYyHH/BlgyUsRhIFZmT80nNe3zr86z29pPX/7E2F0YSNixAb5dLMgdMtZCr6S6ub2vUks+Jye/KVlXlT/tkCUvBml1Byza+CeHBi6PSnk3H302fzr5XkrJpZdZLMNwaER/6YZvGQtydwa9Dy0qkl3OlnlezZbtkiJiEEVEK9PqKBaDEGdYXsiWeUbIZiiny4tBCKPd8G1jQW+4r9h5vRgS/SUDluH5FQpD8Yb5PcXXWQbfOhbcHKUVtIzzHe2HZUm8IHvRMlZum4VvHwv2lfAsWkRR15e97LeO+qbRouLD5QDfLhapYY+goAUzvrM5sHyzG6cZL1rgpI/cgG8ai9RyyeFGs7x847N+WJH2UYFFsxTh4umHEBUJK4lFzmKkerymUrnV0R5Yqea6C3SluVS851ICREnvayUasWB25KzsdmEEikN+kNcFUdC/cY+v0YsRcMWeIzaImh4BVxCLtL/8QaMsiRiSKAnsaF4zREn/57NMMYehuTyC95AtE6InUV5ZLFLzwC/5DpVVvGjgVTyqO/+8rQuiaDzv0PEiWRK9wY6K3QL7e8oNIHzjWEbvGlJ/lBwCz864xP9ycSwvOLgD5xfjIeqa0i/lexjVLSnE7zUygttV0WF7CvDtY4W3/87Is1e1yHrc/4dqZI//+Or8yONx+B95V7AltSKfW/o9lv104HJbQ0szkFY/lnlxZbeeDD+vrq5+Xj1w90xZHPyPNW9rac/55/caEh9vHQfCqsb6buWxvsf6D3xnOtYm+M766yjffY+19mPFZqzvbOZjfZdkPtZ35f+bWJn7+jIKhgcGhgsy+v5fdfcB3cSVLgD4N708ON42QgLSbFmr5KRIdopFngljqngmoe2hp1DTCzU9sPSa5ofh5NCetrCcjbstU+yRG8UalRkbhuJxN9WYDtvT4/+qeYos/L7DqdT5uf+dOzP/vf+fo6HDpWdkZmXnfCs3L9+eBB1kGwqW/tdp4YjTvcvnb13/9J7pqZZvWWfsGTPiqVX97k3qsDgV7D9w8FBhURHjYByO4qKS0rLyw0fsHR0sy6xxoNLcz/eN+GS4NkVjMRis3zMYhpvMZstvpsxfEQ1hZ885eqykwsm6GLfb8x23m/FyTt5debAq09aRaWh5XGWw+g96KFVrQoeHoAOfYrVLd4yeCuFkO36issLpYjyCr2K3g+VLTp463YEj6/ENoMIrjy4ya1KpoAwa7Z4nXoRwse8/w1R7yUBhxYzIVh7NgzBaSKThUBWhmqJpv+9nHG2ZuAzCoaaqVuTcQmjF3uq6+gYIm346tC1kz8ug0IqJJp2VksCaqN/bH1RrbOJdxYIETHXd0XwIkw8oQ1ueTP89KDK0ZzstUrFU86JBKufGzIMc116oULgqmyE85qHDc6z65aDEk3+VV31gMa/5AFQ4Vch7BBlc7NlzEA5pczSoHHYVyBc1elMsJZNu0VgbKJRRz1YI8niqz+dAODyPDuSgtypIwSfMcZRsliFvrANF8pqcHkE214WLEAa70Qw/fmAayPTx2s2/pRSwbp7yf6DApUJRUKCF4S+ng2qDE9FKaEZ/kKfrdjMVkEEfk0jrdLTOpA+y9EqZ8BHI1njB1RJ4UVXBsaz47Q/O4Qmciq1XakCtSXvaJudkeqXMspLHAh0EZYjV6ahfr5+95I03lsweNobS6WIMAVvKfiQ/VhUBYsWIIldSevXa9fIbN8uOVTpE0eUJEM/qkxmgUtQwtGPJOMUGMmxZ7R8rq4mesf6lh/v/9GV1bpf+D780bEaKJoHylYijJS1WXr9YuUW2sOzWpYKMJPhezbms5vraCtYr+Gm9rjoTe9JK8/Ce7Ua/UOn0O3ps8Yt4dP/598cY/ZZi5rVDQYbj/uOK4YuuNWeCL/u3T42i/6rVecMG6ryoRzO0uSdItnFNos+4StDpJwYrlElbPnt8bLJvtJbMBcnyCn3nKzd7u7wBAjt96pjo8s1E/g6os+45DUWcuSRV3wEUabxx9jII4ZU1Oj1FGvACSJXRxPrEinPUF0Bw9lOl1W7fnG0GTGX/HvN8kGilzxNOQsrbI6MgpLljH6QpgkH6EQv1rQLW4nY2HYfQTh91cALBW5IHqnwQl6qgj1bXRcPJyzY/Ok/CvddnsyQ1Xmrbz2bWQ8TK67pjh3ZlV/JkiNlDNaBG1E4jJXvWmrw+kdwqGb8vCiRIu08XR/b7nS3l99nOFVYQF83d3g9SnLvp8xzpPACqdNfhV07S9uGu0ibjS45f+ghINFZvoZBkaed+XeGJWInnc0Ga9HIyWkxdVvimeMo4LA3ateABPRGractBspFktMY/3QXa1ch5yFjlgVRJ5dVEtNiyKLXvlhHzPmjXVi2FWDY9DDKMjP+Skpf4Ncc4IgelxApFi8UrrmJ2P6ixgRhaX25aCO34DHdHolJjR4Isq4i3qnG/mwrtqOKLUawqbsvLpKQbTgHhjqWHcWhpZvaX0hhZRevMrVpZPdbtpS68WHLJHRr2Q2ILGlqiuqE1eZiROJjinTchlP6LDOhX0zsng0zjHjLiLP7NPAipmcd55DwKcuXd9uKh9bdoUKMf+SKFDn0yzgtafKkPTgLZVnwYh4dW6Fky6m8cvlQlK6VTIgq3h8sGZVBiICmhojV0lh7f+v8LFNiNE1kzcB2EcAR/RmUuHAf5kspEfEO8orL0/m0NhdFrg4+XR/C6LEbZoUEbfx2PdtmYFkIIl/H8zNeDElkXGBTwkkxQZXCMgWy+9PYyCMz2Kxo9EcY+DIpsS0yW+PLfXunF11kAitTzOOJVoM5XmykiWpoPxyZBIG/hbgqx66MVroQHavDCdCgElVPhQZdZDsrk1aGhxZWBOuN20OTrqbjEvW8FzEIjGhNDngWF8NF0Cainl58TTvywkgcKXWGFnzkKz4E6kx7UkNFKSFm9cnLoe4EeNd+V6S3cxJfuCcGkH0OLLPEaKJXt8qheaiHd/E7G0dMjFtqAlIZPDaVfAMX6oPcWpvW2oPlThPJHxUXWlLrItZpK20xfUqTkWM2UhdGAfTTDSjYIUKo7OoRoePCTqPejZ2hGTfocRXnIXQXVeqQY/D9BxK9fiY8wXI76EenROb+y4RuF1fIkBHGnFQ2sMhsols0Vo0nLDqrt1v4cLbQK0v1m8TNTN8APRqN7fkpvUAE3EN38CCCoDaftOlpOsrdAuXOFjrbny6I8UG++yUL5i9MZkx/q1XPsyG/tiG9L0sRBQMg/fPDkjap88JN75/rN8pxoIPRMQd8QewIh88DZsh8UonmZOw4qXOXa/iTXJQiDL3ahtoRtklM1KUNiNCaTKQ61GdUvBKz5PM+LPH++GUj2ei/PstXcmQLARqKVXezXgJ267eTFH7hbwrXyvozGaGszhMPgB3RUEMkJ38LzmXUqIFXsD/ebCrYKsJqyv7uFb3mclcTFLjNY0e0QkP1ihRBARa0dVPgHmuH5WxAWKyZoJRbGxM3qQqyRf7pCL7l0vNX608zaeg1P0FtQmYUGd8HOqORahAC4qzZQoRHfDi9DeHR5IlFPSRH/HF6Snmi7bTlPAL70n4eJpyIX2tz7uCXw6raZFwJir4Eax1Eauq5AuGwLfW4R6pyJ35O70Ou1dFRShYqA+ItEPypL4E/h9awQkHgD1GgocndEsGBSn1hTsrxg2Uu9bZNLaQYaJ2h9I+IhFz0wHq3YULCuc0GCdaITBQt7eG3oc4twm1G/YLlK7Wi2dqFgHcCP7mP0gYN1JViwyjtpsGDDyu0pmtAzffxD6A1n0jU28ORSgB7u+P1km9HAaXjAGWTOug5q5Do84Q0WNmrbBE1KXIjhNfzTofh+//PHzGIiJrZr1T/PZZUZuKx8lgWVs6KMznIwgYNVBmpk8x0ywaNzi35D05Zg48vwF/zCK73s7z/GqrUsnXyl+2NaMWwzIB9Mx0sHQG78XcDwfUOFZhZl9B3oAPO+2DtrvHmI3hDgtFGr5XNATp/5O+fxuLnWM/lAaLztdHg8DF9xEbCHjW3/C7GzAck/9Hev50e4YKgyH1S4g1fwh6FjdOn2y4m/nm4x0QPMuiE0Ovs+wTQSsJqLTR5GaPpHOvjIqy9kmJKb2UAYPYBoPo5lHD3PMO7vMMV4Z1wDqIAfyZ2N0HFGLej2zL6v+i5e3Ps5A/pi9gKQagqOFNRAAKcbcs+Bj17oucqvmc7prCPfyT3yN/TOTlWZQk1p2zOUh8mFSNiGGl7GqNlVnYZWDsn0wxBEuTNMa4eGOjd6JM+HSPgctXMyLPoYFHtxqQHdKrpCEIfxPexYDShWxaPZrzQKImEoWh0l6FaCYoM248ZBGyCI44wnPNlzjUP5fAMiwjY7ETdYt4FCc/8QL+noroxCBl3kHVAqs4RB8/s/IDL2paDSrKVdQaF+49GzunYbBHWdRXlYmgEK3UJZ6PbkQmR8Hoeukv4KFOqdgvvQbYGgDuOCI7E5HF/CKkrTITLSBqL8sexRNsWTDbRiRyQBhP5wqLa26hRbrP6zoepdBgqHVm9aahM921UOrUsVDq2aWjSwPN7jECkrcB4aPvxMWfUcbh36wMuSKkrxrCV/xsIrkHSIlKQRuMhRNyUKZBt3P241lrgYQskvdOAqyTsgX0EJ8Ufcgsh5NjFZXekf2aj4t5pXAAtcR6Om9C+6jBXIGprI+d+BGqLt56sg0yu7DMQ2hbkyaqtauNLT8pMQV/BWX4ZIWqklO7u9CbJMXR1P7FL8o4SyPaT6erTcHbCMQNZ4RdK45zQUQu9cBzK8eb+OkjOw8NBSUv6Xe5vY1elEvztisxaSslhGtO7dQVOINaYfYMFmLcTDHwDp8s5zOFbeSM1YaNsdccHJm5cMlTyuyFhR5q+hfacrXQLi5o4mSR5XKFYRfSzEu3csPs2lPgJJuv6VjJX+wQUK9ma6+Xq7xPnqNhGrFvFQDUTcaG0yhdGvLwQJus/UkcVfic+AJNedAlbsPCRlmk6/5SB37DMXciHy5u40UwSNZfdGaEeX/zb5FDSZpfaCP+dbLMLePtXub807yTMtRIz5i3A3LHhcQxEM2gnLIZSoZ7ebU8li+9iBXUCi7AuMgLV4xZtZEIr9VglbLBD46zaIILyytFCkGE2IQ+qiX5kSq6FI+t/9XubKEitm68rzQpxUUMs7BEKLWHsa7pKVOoNfta5lyrP/E/AeuG29xphAkSwx3UGGy62CD4avO5hTAwEU3CplXQKpxXW7Ae6a3f7d+qxG3Wtv/PGjJECSpnbv83aiye/XfmkaC3Kkn20VfDGsq/RE9jnAarKqrpX4nwnYUoGfKiPO9lKKlfKVrNfRv9nRd9Uf+63o33VFv+6je+3YQ+uGB+pxuA/ksZ9pFfx4Kliu8urlfzReamhoOJLdfOB6bRHPofmtLVaNcFe9hFr4InEmo46mrTNmWGlaZ0RbERCLZj7IlXGy2iP4K3ZwIsuLRUVFDp4VOZdb8NfiutuxAtv8WD0VTKrBkEoF8V78rpUg3+Qb5PEyWLHbzZChxMTbx+Gue+RdE6UAPW0wKBF9VPS2CLIV87UN0Am8uH1zAiWTVbv2M1Co+bao4MS/s6ehU7h3r3E8JYvG+NRGUCzrkJORN7jEuotR0EnYRj6uNVCSfal9fTCoYT9wgS0WJPM6D+VCJzLvKYvOSkliSNl0372gUu5JkROkYZyFF2ugc3lxikZnkBAqOm7vClAvan9TNecR2uXg68ozodOxLZxoMOtDTvUJevOHez+H8KhpPsSxjBCKx+UsLG+Azunz+5420sODpKNVTxvHvP8ZhE96ztmSag6XUWLuimrvsVuZ0Hl16b738fGbY4YbrEScvtQbB1ie3jp4FIRZZlVZoejkHG4iIz2MV3R6ao9eSodObujCfbMf/0v8ALNR8z2dVmvZM2bJoG5/hg5xbv/Rq4VFrlaec32PbeWZktIb/ziSDv8/pH28rPuqF3r36dOn99cv9ej+4ry50KHsednNty5f+d6dw425+VHQvm8AyMyZjy3COasAAAAASUVORK5CYII=;" parent="1" vertex="1">
                    <mxGeometry x="270" y="85" width="50" height="50" as="geometry"/>
                </mxCell>
                <mxCell id="32" style="edgeStyle=none;html=1;exitX=1;exitY=0.75;exitDx=0;exitDy=0;" parent="1" source="5" target="91" edge="1">
                    <mxGeometry relative="1" as="geometry"/>
                </mxCell>
                <mxCell id="33" value="14. publish" style="edgeLabel;html=1;align=center;verticalAlign=middle;resizable=0;points=[];" parent="32" vertex="1" connectable="0">
                    <mxGeometry x="-0.1373" y="1" relative="1" as="geometry">
                        <mxPoint as="offset"/>
                    </mxGeometry>
                </mxCell>
                <mxCell id="34" value="11. setup" style="edgeStyle=none;html=1;exitX=0.4;exitY=0;exitDx=0;exitDy=0;exitPerimeter=0;rounded=1;startArrow=classic;startFill=1;entryX=-0.003;entryY=0.078;entryDx=0;entryDy=0;entryPerimeter=0;" parent="1" source="5" target="29" edge="1">
                    <mxGeometry relative="1" as="geometry">
                        <mxPoint x="410" y="350" as="targetPoint"/>
                        <Array as="points">
                            <mxPoint x="280" y="350"/>
                        </Array>
                    </mxGeometry>
                </mxCell>
                <mxCell id="5" value="" style="shape=image;verticalLabelPosition=bottom;labelBackgroundColor=default;verticalAlign=top;aspect=fixed;imageAspect=0;image=data:image/png,iVBORw0KGgoAAAANSUhEUgAAASwAAAEsCAMAAABOo35HAAAC9FBMVEVHcExQgL1Kfb9JfL5KfL1Jfr9Jfr9Jfb5Jfr5Jfr9Kfr5Kfr9KfsBJfb9KfsBKgMNLd75Mf8JKfsBJfb5Jfb9Jfr9Kfr9Ng8dQiM5Ph81OhcpJfr9Kf8BKfr9Jfr5IfL1LgMJKfsBKgMJOhMhOhMlMgsVMgcNLgMJLf8BOhclKgMJJfb9LgMJKfsBKfsBLgMNLgMJNhMhPh8xNg8ZKf8BKfsBKfsFJfr9Kf8FOhstMgcROhspKfr9KgMFZkcZIe7xKfsBJfr9PhstKfsBMgsRJfb9Jfr5KfcBKfsBJfb9Lf8FKfr9NgsVPhsxIe7lKfr9Jfr9NgsZLgMJLgMNJfb5GerlLgcRLgMNKf8FJfb1LgcRKfb5Jfr9LgcRJfb9Jfb5Jfb9KfsBJfb5Jfr9KfsFGfLpIfb5Kfb9Ke71IfbxJfb9IfL5LgMNLgcNJfb9Jfb5Jf71LgMJKgMJKfr9Kf8FJfsBKfsBLgMJJfb5MgcVKfr5Kf8JJfb5LgMNLfb9Jfb5Jfr9Jfb5Jfb9Jfb5JfsBJfb9LgcNLgMJLgMNKf79Jfr9GerlHe7tLgcRQh81JfL1JfsBJfb5KfsBKfr9LgMNLgMFEeLtJfr9JfsNKfr9LgMJPh8tJfb5Qic9Kfb9Jfr9MgsVJfb9Kfr9Jfb5TgbBJfr5Kfb9LgMJHfr5LgMNJfr9Jfb9MgcVLgcRKfb6Fs96Dsd6Es9+Es96Fs9+FtOGEst6Est6Es96GstyFtN+Fs9+Fs9+GteKGteGFtOCFs9+ItuOIuOWGtOCFtOCFs9+Es9+GtOGFtOCFtOGFtOCEst+KuuePwO+Nvu2KuuiHtuKGteGJueaLvOqOv+6FtOCFtOCEs96Fs+CFs9+HtuOFs9+DsduHtuOOwO+MveyDseGGteKHtuOGtOCEs+CEst6Ht+SFs9+HtuOFs9+It+WJuOaFs9+Es+CFs96Fs9+PwfGFs9+Est+Fst6Fs9+Fs+CHtuOFst+It+SFs9+Est6Qw/KFs+DyYsmOAAAA/HRSTlMABBw4UWJ+k6+0sqx7TjYZBi2NuuLy///////giF0oH5rX9P/////////w1ZdaabTt/////+yvSKT////poAMZcc/////JbRaC5f95F/8QZt3/1bouC/XIwzHy/fzu78GcRpi+2gkmhiotUkTj5qYhJOndVfi3vPxL9/+VPPkrLPRYPkB2gOvM0g/MDhT7/zTnOkJ0//8SqQxv4P+f/9LG/Y/3HgHZYI8Tr/mK/9myCRYpPFBVQTMeES9ji7DP7/z////24MOeeESW1v///////////+dzSZv/wG8bxv//Ddv4pzhb02mzI+b6f03/ov+zyr24rruF8ZHP/3sC67hSAAAqrUlEQVR4Aezd+VvT6P7w8Q87KEVGh09IFLc2TaMDY9MwQJAtBYRgQBRUHFEWQQdUcHBFUVEUB7GggCKDO6Kj4/kbH7/zHJo7TZcEevAq4+tnL5vrzZ19uWE54uITEpOSU1LT1n2Vtj4lPcmWsSEOAnyX+UPSxk0/ZiGVTTPUfzF0NoVZm9O25Gz1F/tuW872HTvt2Q7WyblQx8U5WT6b2rX7p9x4+A625f28xy14nCKG5HJStD3/l6R/ea/MgsL8IkYSMSJRKmb2lhSUwr9VWXkFK0teNEmsFNiq6n3wbxRfUyu7FbREsRdtrtsP/zb7ampVD1rn9aib6+rh3ySu4YDQiMvkEQ7mwL9HwiGGwhVw239ugn+H5prDsogroqi70jPhXyDjiODEsFzcVxFyVspHW2DNqz5WHPpYiuIZRlY9vx7/9VdKLWIYngp5sCrKrUmwttWXFLMhDqIcsvvEjpNt6Um29oSvCmwNyR2dp7Icsj3EoVijvaML1rDuI7QSrBRbzOd3nrad6YIAzb/1bDm5h2FYEY044eg2WLN6z6poxDHuc+dz+yCk/pz1FxwMhwZe+vcEWKMGWnk0kOiLl3LKIIL4pMtXVCcaMBeuwpqUc40aNKbKup4BptzYvkuVMMCg+3AirEG5Q43GjU7W9Ztg2q2U2yqHAahja7BWjqGVyFwpuQmWtJznGG9grbU3toavBbaS5KN3wLL2I4JkqHUV1pS7rRTqMTtHMmEZuu4N8ahnv58Ba0j/WX4QSYowmrDs8A8EBUmDzIF4WDP+GFP1rSR++0NYtvFCxok69MlmWCsKaS+SqEflsCLJlR5dfdHXAWtEHqPoj41abbBCuccoXS3OngNrwsROVr+FmXwMK/bkvl1Xy7PnFqwBXVXFulb8ZAZEwd09Dl0toTMOYt9pQb8Okq1WVosia4lFUxDzJoacSKB2ZUCUPDnMIoHd9QPEuNKT8iBqpEc2CKq+b9u2ZrAml51GgnAJYlxSkYiaGb4cgugr33Rq72TtwXV5/WBFsqygRnH3QEx7esCNBLUNjB7WXBAYimVZipHv/7QVLHgmIMGxuxliWTKNhKKKWTD4bdTH4hIpuzX5DzBtfIfuNEp9DjFs/6QHNZXHJsCgZU5FEiscHADT7up2H9SBeohdyQJqxD9HguTcoWIAu6ew2/KBSewPrX21HtQwVXFgMP8CDRT1fl0mmNO827FGhtZzFTXc0A0weHyFwyBYdawAzLkqcahhkiBGdb20o0aYB6NCHwblZa5s3wampApkrFelEJtslIJ+0u1+MNi3l8UQOHrO3ChpuuhEv5nXTyA2nVdRo74Bo0RWwZAo5tIEmJDyJ2qENohJ205IxMDK6gOj0zKG4ZKP1TRDRFvfTqMfW7sPYlEDWYJOgSBKfOinONFAUkevQkSFAvp5+WGIRWnF6MddbIEg1slaq6wTzAwG8vLOkniI4C65S5XPQwx6d6IS/ZhNECGWZ3dLCeVAA06Yy4HwFl7x6Nc4OQ6xJ8ch4hLRnQPBpBKx3mfCwEHaiQaU45dbEFY1cZta8dgg9szT6MfuHYcgSi8zRKynAE83XisSgxzR7ymPgzC2ZUnoJ7yBmJO5wxNxQ9I15tbHArhzVGbRgGUOTUAYaQz62ccg5vz21olLRD7XbCyIK78vKBhIlHeeng234xWJg5R+iDWLDhcuqTzxznQsgK3PPO5gRxFH7kIoW287cYmL6oFY8yYb/RydYCEWQO7vwTb0/NCHpxDcQhWFfr57EGs28egnn7YWC8Y/DDFeDOSkHxRAcG8E9GPWQ4yJ28ziEtGeaC4W4cmrYBt6/tFPHyGYxWKtLbV7AWJLPLEVkbK2Wo4FXXX3BRcG4rIfTEAQE8TuRMp/B7El4TiHS6j3zaZjEc785abQQN5zF4zqa1kt6KfHEFsS3dqw4DvBfCzS4hzNYYBB+55gLarsuMTlGYDYspiNfkzbMmNB/PUrjKGWfKoMDM4z6JedB7Hlno+IlQ7BLXTy+lhG7aNqJQbI7gh/ZYyugdiSUox+RUkQwjo5UiyYvbdTFVHHebEJAlULMXx2mEqhn5BoPRah6Wfeg6RgVxJzyNX+PMSWNIrY4LZbi2XQcFblkGA3PtTQY3fFbqx1WizueMIKY8G2EkkaRD/u7U0I0DujfI+1ZHjPNPqJ1A0I0M59j6V5Rn+PZTZWQyu3dmORG3iqYKWxmv6iyG2W03iyOcCLWqxnEFvWu6N26ADNybsEBQn8WGbYM4bCWD4obVhRrPYjKos69GkINBXLB6XJ5OlO8gpibWtzMqgn7eyHQJ/l2LxUalwt5pcdayHvrPHCQ/ZpMHgWyyfSNoq4RHMyzB3+sLEmgnzhZ1AYexj2Eo3C9kBsySAu/nkO/AFBZVa5w8Wq/3w4yC3XonNnwGCcuPg3/SkBYsuGLCcucd7+YTnXswYOChIGEoW5x2CU8IkjLitvgNhSeoBFP2bAeqz+QtaBBqxwqA+CaBAwhm9YQBp5K+yz1ViZU/dVLtiXjUJ8NqtDxpg7JiVszEY/+yuLsZ4cZVg0YIsOtYQYxxUU+mUnQ6zJIe5YSCf6zMQibrEGe5ZG2PM8DoL7gbgTpry2Qaw5Qyw/MjkWYi3+LjjRgHL/1Q2hVKtIPFixDWJN3G4P+hWvh2DijjoMsX77y0EFfdB70eSzAvYqiD0dNPr9nV8W+Qi+/p/70K2qggaMtD0eQusnbn+j7zPEngFio+VlGiLGOtAMUDAm/I0GkhDhmeUp2UscvxdA7NmvewC3M1IsZWi4aZ7j0UCUL57+A8IpHbOjX2PtU4hBqUXkW04JEESajH6K91eeQwMPcygDwut9PYN+8jzEoiTZFeE1J0iVUaMEScWpZ/MWrLz867UPQCwqy2eROD+8CUYd2RiOl3GW9EEkGUNEZc/meohJJSpqfG1gNMKLGBqrHmm3+la5kAKx6Yk0QwytnTfB4O60ghrDEXtdF4C1gcUNZUBsihvjUfPnejCYfU9hCA7q2VYwY5OM5F53AWJUAyOiH/f6KhjU+DAoVnjQA6YMk2+Aiu5hiFVPf6RQwwT5qkN8LYVGM0Jr8iyY8vGAHTX2HbMQs0YEJNCfwWBR5jAQX3n+poWTKkJRHsSuj7qhNT10FwzaXiiB+8CKRDDLJpGt7e9nIYaVF3tRw5/aB4Ey51VWd3nhXHkzmPVuzo4akWmAWNa8m0cCvR6M6o75KvEf3kph6Kc+MK30Eo0EZiwTYtqAW0GNqN4Do5aSCzwjyzLjuF+SABa8UUUkd7cFEOPShEHUTFfmQBB9uRvXXVq/cbgPrMijOCTQ5yHWndnFIoG91g5R0vNIQkLjhT6IeXWCFzWDVOtdiIqrxzzkmFWKqyH2ZZ4sCnidJCq1CgI+6yqsW4A1YOseT0CtAlixHn2rQfu5d7AmLLo5XS33tUVYobxHnkEkTL/ugTUihfbqarFsDaxE6QdK0rUS6dOwVjR30qjDCX9tgGXru0RzqONblwlrRtkXGXVE4ctVWKbE3wUv6qgv62ENaTnnRj3HlQ9PYRn2/SQZ/qu5blhTnuykUG+aftADluUeFDjUs7cmwBqTeJjCAA5PWgJYcueQ3Y0B3K29QFiztRT5eGEGmHbjmUtW0DCu2mENSjzmxkCc8OlZ+wKYEHf1r+NCkKuq93thTbp7TkaDadlZVd4PEWytq2BlDg3UuQRYo5oO0iIaKHZ118/PWxYghIWJqUu7VLeCBiI92g1rVhl5OEmQGGFnxU9JN/ZDgA03Gra/fCvwTgzCKaz/CGtY6UaWwqCclCx/mqxYn1K3mGPr7bXlJNW9SX05+asqU9MYlPtRDUQUf2Mg7971tra2+ZTkvJ6MePjfiut/klte09H21ee6RVtLPazI8FlBxBA4luKLVNrXqCiebFqVeYrlMASFnrNBWKUZefMVk8ftPpX5P0VqtvvT5Nj2RXKFj6aHT6ZSd+SLMi0z/0dWafb25pMbh/th+bp/ZhoxPGVmxoXheRzr30EYme0fKi4KjJsl51gWp1l3kXy7ouZOHETZR1vJAYXmKYnzkp9e9djl4j2dIy2wXAvV9+kZXBGOPtcAYXSnv6wU3BwG5XQLM2NTfRBFEx82U7JnBoPxSryw8/LiH8seXIV/8yIumxjhk95N21t1O08jzi5f+HAGouTqX0OqR8QwnAxzKn0/LJNtlHHj8njtjqPtENrW7TsFCSNihWPX+yAK2g9JMoeReCl1Lv0pLE9zw3vZLaJlLodckZMJIdXXtNJONEWiL9TNwgr1lVyRFTTFI5zKgWX6WP7SznBoCVdkr2p4CKHZDgosmsYKo3dhJRbyLvg4NM1O/dUNy9Q1fPmK4HGhSQolXEzryYTQZj9IPFrCXKvJhGXb9hffiFYowoUkWLbHHw5QqkfBiGYoofH9lgwI5+YRmkOLJOFQPyyT7aygoEUe6nozLFu9bftmiXazSphQrMM3c+D61VkIy3auCK0Thbk7sCxTj+zLOuo52gcrUF9Q8+qCxA9iIHHGyVKyTznbmd7bDBE0XHNjSIqCIfGtw7AMKYyEoXgVEUOSf2+BlYm3zVOoGeQYQXjBKLdrx0qqC/ZBZOksO4hGMxLFCC98LOvLFhhKCtZskHqUBJa1ZXPBz9jcMv1ClqjsbJX3OIM2Kz7bCyvUK5C/OXl+45bnSQVN9WBODeNEA87t4/Krzp+uzuvpyXv+ufBlvtNHcWjAWq/VJhi7e508fXzyaNu96qTE3OqRN6m7s+x0kA3yINP6BFYmUUYNnwaWPOenDYvuES6+qrm6YQH8SuMTT1dcUVmvsdYiWLKdNjRQ3HLWpqm79aCJ61786T2rOg21+AstUYxlryoFC3JfSxiAkg9syVgAg7g7KZOyBwN4DheABVuyA1u5eGp0qhuMmm2FbwXJMLY290Uvlmd3F5iX4H/6aAmrHswbhxDK6uZUCfXs586AaXmGc3S3++hAJoTQ1JFlOCGSq+qjFqtxh4VY+08x+lYueU962GUp27JTFpE0KFQ8BJNuHGZRhxO+5C5AGL8VsnbUo+ejFks68RTMWkjNRh2J+eUmRDDRKThRx9cG5nzcwaAOJaWMQwS2L7QLSQrTEK1YzrfdYFZDsQtJ7mtTEFlpzRUKSYp9GEyZ96GOfNZmZvgHTtjvaT0TpVic2A4mde/xIEme6wVTelr1x8HU3H4wocfDIcGrvtoKpqQ/YpEkbCqNTiyRqQaT/iPoWx1sApMSahkk+TogsvpTDiSI9M/1YFLSkK6Wi2mITiykO8Acm/4PLYy+A9NaanVja/rRDYjoNI0kIW0WTEscakQCVVsWnVie910m32lkdEd71p4+arlgJ2oNFl2Ogwi2Zv2NBPXSLFiwqH8aPftzdGIpnqsmX2l0kYl3TYAlvdck1IjuHktvoQ0yD8bBkilGQQ2bvy0qsZDpNDeTKa97IWUYLKpmZlBTfHIBwurOIuM2traARfMCEnyfoxNL5OsgsgHKFf7T59ZeR5959ATC+uxDjeJYBKvqX/K6obUhKrHQ+boaItpUpHuPtR4sK9O9Eqk+g3Ce1rKoEdaDkaXJGFEdiU4srKyMOLZajhO/rLA2WIbFYheG/dIXIYm83cku72WhDgE17oq46MRCJ19SD2FtoVGjpoIJTxsKf04d6Qe/hZPFqJHLTQ9kIR3MmEi/3jFyE/ziyRmOuSt3oxQLFfpBL4SRWeGw+kkH2xdZFlS5lRi0V8nr/0y4TXxflhP9PLXjps5yrhQzjHxsozaC0gXU0BtXHIucTC3MImW4yC/2mBlYw9cYL37FvvhMDC1ivEzfvmluhk6UzQysd6MvOPxKevEs09+PHFrU7rioxcJp4UteM4RwT0Y/F9tuppVnaRX3FMCSXLeLaNAAIf2ikjuyeDOt6KWV5MU94u0c9OM+Zaw0FsnNjCaFyLWJWHh7RaaFVjgopMGShz+ypqZWeTpZSUSdN9PKh0sa9+4P+kEY31Q0Y6FodzwofwdG47XEqUfRPVOt/NjJDUF3UFTo86wnyozpgUyMK8O+emHMTkQ/H4VYJNEt750veAgBbjgVXDKjZERu1Yia6U8TsMRGbOKdt29BCFNFXm2g/PgRIogf9SHhxXNYkqyiX+P7hejF8n/EQDp1fWBDKRAaKJGYiqfLxLgiOLPOaEM0v1L7JYct9K1C9GNSI7eikSQ0wJK7j2aIP058lGKRFA/Nnnj1Ie9J3x9dmf/oKEI/4XykVkONSLKTV/nTHOhXvHHrD8HcaqqiiFjPLbbilDuw5GOttiwzMzdWGmvGGbSX5M62Y9belxUvv6o4wRHjYQR0FsK0Mn6B/7QPNcdvvw3uV/Jp0ccRWlXQqFNM7oA6efQrGlhhLOXECUbEoETOWemh/sENEhnbQfPkQ+erwoZ6XSv9zbLBos1l+llKyRDTwRFLJOX3gaYsb3taSd7+cK2c9h7QpJDzIkytMBZVNXFZrkTzlOPdsORpyetsu1sQHjwJ3Yq/kAFk3eMcWkKRs5XlzNECLwhzSUQrAXWm+WQgPC9GP/nNSmNVwMLIMQZNq9zr30xmbvr/B81eeVeBtg6GbQU3s6bREuYk+FW77V5E9NrtU+T2ijTtuAekHqIllbriWJkAN8Z802iSR7s6M5W9tLq4d9lCtUoAnfh8CS2RN8GSW/7XTp3/rVUW2MrJ3wv8sqqIS6i0aMSC5i3EbNLhURVd/s8Iuv1RPI8Wjesg2Uo7XfsbrSDnQbr+QovinvqnlS9CK8j4lZjed11UYgH0VsmUyVhL25AJ8gOVjVdyjK0chlZQutljMVaHduWDQqLWyNdWhu3VveBzIUc5FnSV/05TlkZWosdFhGHfdmSFGFeksr0SWkGcQY6fkFDjlGqOBmm1OrEAxpO/MPwMRuA59XRpx0bGwkGO4SK3gneWt1mXtRmsK5GgODzGbbtBgd0b3W2W33helSK7FQzH6b9gEn+iEo2IVo/BqOm2Ey3hX2kzFssYxrQ9GYyG/0Q/+7MoxCKU3vjwgJMZT+hgiug//Z1/YbkVtCtWj7Pe/6HNYiOiEbkOGo2Qx1mfoxKL1Pw4/fJmTmZ4B8VK3FfOSpZop/ztP/3t38sPWmwFDQJqnFQICnka3u1fsio6dCtHMgTTxpBXI6IWi7TvzuLGdWOn9p44/uvx41l7934ScYmXOEJuP+YetNYK3tBE9/zd74PZ8f6tC5eInl5Y0vdAxuCc5PaK9MpBPB4ysNJYY3EQSn3f1ozHCY9v9fV1uL24RP2F/A6ZfTBoq3NkK9JJcurKuq7ZoB6Sp79MOhC1iE1QmOOroDd4ODFhWXcfZyw+rLxIXM9qJCdvK7jvsNQqnrgp7wr9kEUKeT3rEpC1VCvjCq4SbydKWeNgXQJxVMuvAxMmOIW47HAXNAlnmSCtEkJPqEQu/FYIodqhrYfs3g0AYddEJ58c+pOhutPgZXhMxDI3suo3N4Y6eZ8gahnGlcEzcgvwMi7kEnpn0M8xDLpagmFchWzVRX7YXZhfnViQSp68H5gNVytcqzLiqjIWdUAos5tZ4t/9B/S16LDbK1KvU4suytWrFGuKCCLahyF0LSZMK3gue4ndai6EVEKHnpTj3VEh+PUro0IZ/ZyfmlYp1m/kNTvmZKmxlol1ELp2O9Dv73BPhizavaHnFP7YSZtr1b1TMkzWtQqxMsccxmcFiVoyOa7MPRrDhPtlcq+JbP470Bk/SYvht+3GG9JIJ69WLKiTUcO8ygSdli8vJEVUnC/Ohms1u9uOGjkJwlivosaXAnrjnS9YlygqPHMv3Oqw02m4e7kqsfrfOjHMhGTvSvZIdvb2+TMQRrKAmsbJfRDGgJ085Tk8Edj98x6Kd1Q+WIQwUlXD5elViGX4U3sm4w0rTk/1QDeE07SrEjVCB5DC7vSxqDMOArzLKX9e0Axh5OgmKGGSVjFWL6ugRrX+feXMozJqpi+2QFh1Pi8xlIVksKpvksxNHXi4irFKXzGoEYtHwKKNPhE1QiqEVzbpQY3zWgFYk3lZRoIvGVYjFjkTukZ61AOWNFAcarjIr1jcE1Az6D53BixJIUcmen7cv3qxDBcqB6nWx2DBwBCLBOE8RLK/lkICf3AbWJBeNIMEoRxWNRbcucKRtRznEiy0uqi7mSHd3goRVcteJNBH4sG0atapK717dlVjGaYpGuTvXwWThvWtkL4HkWW+KkKScPAMmHSakpDAvbbBasfat9muq+U+nAemjDxiyVaDTEWzqeW8IiGJP9sOZjycl6eRRBfCqseCnkZOV4ultn+EiMoC3yyVhu6YHCCqiCT74ZFSiGjiCK3o/6hzG75BLEjJ9iKJE3bYIILcOVpEkldNB3PiOgUkDUp//twE4XWN7CpGHcl5Fb5FrOaTquH76YVnIIyM9R4K9bLXlYJJ3efcg0gS5V01+yEMWxXDoo5LqIFvEgv65phB1OHU1g9NIX+p8KKsoF7Rg31gWsEQi3qSMJe+DYLrsl1yMiLq+dYvfKNYcKOVGjQs/sX/5MaDwbukTUE+aM2fuwUWNLidGMAjX5hv/wgGZ+pG2WIFA6hHZ+FbxYJE/2wpGq7Yvnf9VEZZpn+vH/94JC3fwXAYyHH/BlgyUsRhIFZmT80nNe3zr86z29pPX/7E2F0YSNixAb5dLMgdMtZCr6S6ub2vUks+Jye/KVlXlT/tkCUvBml1Byza+CeHBi6PSnk3H302fzr5XkrJpZdZLMNwaER/6YZvGQtydwa9Dy0qkl3OlnlezZbtkiJiEEVEK9PqKBaDEGdYXsiWeUbIZiiny4tBCKPd8G1jQW+4r9h5vRgS/SUDluH5FQpD8Yb5PcXXWQbfOhbcHKUVtIzzHe2HZUm8IHvRMlZum4VvHwv2lfAsWkRR15e97LeO+qbRouLD5QDfLhapYY+goAUzvrM5sHyzG6cZL1rgpI/cgG8ai9RyyeFGs7x847N+WJH2UYFFsxTh4umHEBUJK4lFzmKkerymUrnV0R5Yqea6C3SluVS851ICREnvayUasWB25KzsdmEEikN+kNcFUdC/cY+v0YsRcMWeIzaImh4BVxCLtL/8QaMsiRiSKAnsaF4zREn/57NMMYehuTyC95AtE6InUV5ZLFLzwC/5DpVVvGjgVTyqO/+8rQuiaDzv0PEiWRK9wY6K3QL7e8oNIHzjWEbvGlJ/lBwCz864xP9ycSwvOLgD5xfjIeqa0i/lexjVLSnE7zUygttV0WF7CvDtY4W3/87Is1e1yHrc/4dqZI//+Or8yONx+B95V7AltSKfW/o9lv104HJbQ0szkFY/lnlxZbeeDD+vrq5+Xj1w90xZHPyPNW9rac/55/caEh9vHQfCqsb6buWxvsf6D3xnOtYm+M766yjffY+19mPFZqzvbOZjfZdkPtZ35f+bWJn7+jIKhgcGhgsy+v5fdfcB3cSVLgD4N708ON42QgLSbFmr5KRIdopFngljqngmoe2hp1DTCzU9sPSa5ofh5NCetrCcjbstU+yRG8UalRkbhuJxN9WYDtvT4/+qeYos/L7DqdT5uf+dOzP/vf+fo6HDpWdkZmXnfCs3L9+eBB1kGwqW/tdp4YjTvcvnb13/9J7pqZZvWWfsGTPiqVX97k3qsDgV7D9w8FBhURHjYByO4qKS0rLyw0fsHR0sy6xxoNLcz/eN+GS4NkVjMRis3zMYhpvMZstvpsxfEQ1hZ885eqykwsm6GLfb8x23m/FyTt5debAq09aRaWh5XGWw+g96KFVrQoeHoAOfYrVLd4yeCuFkO36issLpYjyCr2K3g+VLTp463YEj6/ENoMIrjy4ya1KpoAwa7Z4nXoRwse8/w1R7yUBhxYzIVh7NgzBaSKThUBWhmqJpv+9nHG2ZuAzCoaaqVuTcQmjF3uq6+gYIm346tC1kz8ug0IqJJp2VksCaqN/bH1RrbOJdxYIETHXd0XwIkw8oQ1ueTP89KDK0ZzstUrFU86JBKufGzIMc116oULgqmyE85qHDc6z65aDEk3+VV31gMa/5AFQ4Vch7BBlc7NlzEA5pczSoHHYVyBc1elMsJZNu0VgbKJRRz1YI8niqz+dAODyPDuSgtypIwSfMcZRsliFvrANF8pqcHkE214WLEAa70Qw/fmAayPTx2s2/pRSwbp7yf6DApUJRUKCF4S+ng2qDE9FKaEZ/kKfrdjMVkEEfk0jrdLTOpA+y9EqZ8BHI1njB1RJ4UVXBsaz47Q/O4Qmciq1XakCtSXvaJudkeqXMspLHAh0EZYjV6ahfr5+95I03lsweNobS6WIMAVvKfiQ/VhUBYsWIIldSevXa9fIbN8uOVTpE0eUJEM/qkxmgUtQwtGPJOMUGMmxZ7R8rq4mesf6lh/v/9GV1bpf+D780bEaKJoHylYijJS1WXr9YuUW2sOzWpYKMJPhezbms5vraCtYr+Gm9rjoTe9JK8/Ce7Ua/UOn0O3ps8Yt4dP/598cY/ZZi5rVDQYbj/uOK4YuuNWeCL/u3T42i/6rVecMG6ryoRzO0uSdItnFNos+4StDpJwYrlElbPnt8bLJvtJbMBcnyCn3nKzd7u7wBAjt96pjo8s1E/g6os+45DUWcuSRV3wEUabxx9jII4ZU1Oj1FGvACSJXRxPrEinPUF0Bw9lOl1W7fnG0GTGX/HvN8kGilzxNOQsrbI6MgpLljH6QpgkH6EQv1rQLW4nY2HYfQTh91cALBW5IHqnwQl6qgj1bXRcPJyzY/Ok/CvddnsyQ1Xmrbz2bWQ8TK67pjh3ZlV/JkiNlDNaBG1E4jJXvWmrw+kdwqGb8vCiRIu08XR/b7nS3l99nOFVYQF83d3g9SnLvp8xzpPACqdNfhV07S9uGu0ibjS45f+ghINFZvoZBkaed+XeGJWInnc0Ga9HIyWkxdVvimeMo4LA3ateABPRGractBspFktMY/3QXa1ch5yFjlgVRJ5dVEtNiyKLXvlhHzPmjXVi2FWDY9DDKMjP+Skpf4Ncc4IgelxApFi8UrrmJ2P6ixgRhaX25aCO34DHdHolJjR4Isq4i3qnG/mwrtqOKLUawqbsvLpKQbTgHhjqWHcWhpZvaX0hhZRevMrVpZPdbtpS68WHLJHRr2Q2ILGlqiuqE1eZiROJjinTchlP6LDOhX0zsng0zjHjLiLP7NPAipmcd55DwKcuXd9uKh9bdoUKMf+SKFDn0yzgtafKkPTgLZVnwYh4dW6Fky6m8cvlQlK6VTIgq3h8sGZVBiICmhojV0lh7f+v8LFNiNE1kzcB2EcAR/RmUuHAf5kspEfEO8orL0/m0NhdFrg4+XR/C6LEbZoUEbfx2PdtmYFkIIl/H8zNeDElkXGBTwkkxQZXCMgWy+9PYyCMz2Kxo9EcY+DIpsS0yW+PLfXunF11kAitTzOOJVoM5XmykiWpoPxyZBIG/hbgqx66MVroQHavDCdCgElVPhQZdZDsrk1aGhxZWBOuN20OTrqbjEvW8FzEIjGhNDngWF8NF0Cainl58TTvywkgcKXWGFnzkKz4E6kx7UkNFKSFm9cnLoe4EeNd+V6S3cxJfuCcGkH0OLLPEaKJXt8qheaiHd/E7G0dMjFtqAlIZPDaVfAMX6oPcWpvW2oPlThPJHxUXWlLrItZpK20xfUqTkWM2UhdGAfTTDSjYIUKo7OoRoePCTqPejZ2hGTfocRXnIXQXVeqQY/D9BxK9fiY8wXI76EenROb+y4RuF1fIkBHGnFQ2sMhsols0Vo0nLDqrt1v4cLbQK0v1m8TNTN8APRqN7fkpvUAE3EN38CCCoDaftOlpOsrdAuXOFjrbny6I8UG++yUL5i9MZkx/q1XPsyG/tiG9L0sRBQMg/fPDkjap88JN75/rN8pxoIPRMQd8QewIh88DZsh8UonmZOw4qXOXa/iTXJQiDL3ahtoRtklM1KUNiNCaTKQ61GdUvBKz5PM+LPH++GUj2ei/PstXcmQLARqKVXezXgJ267eTFH7hbwrXyvozGaGszhMPgB3RUEMkJ38LzmXUqIFXsD/ebCrYKsJqyv7uFb3mclcTFLjNY0e0QkP1ihRBARa0dVPgHmuH5WxAWKyZoJRbGxM3qQqyRf7pCL7l0vNX608zaeg1P0FtQmYUGd8HOqORahAC4qzZQoRHfDi9DeHR5IlFPSRH/HF6Snmi7bTlPAL70n4eJpyIX2tz7uCXw6raZFwJir4Eax1Eauq5AuGwLfW4R6pyJ35O70Ou1dFRShYqA+ItEPypL4E/h9awQkHgD1GgocndEsGBSn1hTsrxg2Uu9bZNLaQYaJ2h9I+IhFz0wHq3YULCuc0GCdaITBQt7eG3oc4twm1G/YLlK7Wi2dqFgHcCP7mP0gYN1JViwyjtpsGDDyu0pmtAzffxD6A1n0jU28ORSgB7u+P1km9HAaXjAGWTOug5q5Do84Q0WNmrbBE1KXIjhNfzTofh+//PHzGIiJrZr1T/PZZUZuKx8lgWVs6KMznIwgYNVBmpk8x0ywaNzi35D05Zg48vwF/zCK73s7z/GqrUsnXyl+2NaMWwzIB9Mx0sHQG78XcDwfUOFZhZl9B3oAPO+2DtrvHmI3hDgtFGr5XNATp/5O+fxuLnWM/lAaLztdHg8DF9xEbCHjW3/C7GzAck/9Hev50e4YKgyH1S4g1fwh6FjdOn2y4m/nm4x0QPMuiE0Ovs+wTQSsJqLTR5GaPpHOvjIqy9kmJKb2UAYPYBoPo5lHD3PMO7vMMV4Z1wDqIAfyZ2N0HFGLej2zL6v+i5e3Ps5A/pi9gKQagqOFNRAAKcbcs+Bj17oucqvmc7prCPfyT3yN/TOTlWZQk1p2zOUh8mFSNiGGl7GqNlVnYZWDsn0wxBEuTNMa4eGOjd6JM+HSPgctXMyLPoYFHtxqQHdKrpCEIfxPexYDShWxaPZrzQKImEoWh0l6FaCYoM248ZBGyCI44wnPNlzjUP5fAMiwjY7ETdYt4FCc/8QL+noroxCBl3kHVAqs4RB8/s/IDL2paDSrKVdQaF+49GzunYbBHWdRXlYmgEK3UJZ6PbkQmR8Hoeukv4KFOqdgvvQbYGgDuOCI7E5HF/CKkrTITLSBqL8sexRNsWTDbRiRyQBhP5wqLa26hRbrP6zoepdBgqHVm9aahM921UOrUsVDq2aWjSwPN7jECkrcB4aPvxMWfUcbh36wMuSKkrxrCV/xsIrkHSIlKQRuMhRNyUKZBt3P241lrgYQskvdOAqyTsgX0EJ8Ufcgsh5NjFZXekf2aj4t5pXAAtcR6Om9C+6jBXIGprI+d+BGqLt56sg0yu7DMQ2hbkyaqtauNLT8pMQV/BWX4ZIWqklO7u9CbJMXR1P7FL8o4SyPaT6erTcHbCMQNZ4RdK45zQUQu9cBzK8eb+OkjOw8NBSUv6Xe5vY1elEvztisxaSslhGtO7dQVOINaYfYMFmLcTDHwDp8s5zOFbeSM1YaNsdccHJm5cMlTyuyFhR5q+hfacrXQLi5o4mSR5XKFYRfSzEu3csPs2lPgJJuv6VjJX+wQUK9ma6+Xq7xPnqNhGrFvFQDUTcaG0yhdGvLwQJus/UkcVfic+AJNedAlbsPCRlmk6/5SB37DMXciHy5u40UwSNZfdGaEeX/zb5FDSZpfaCP+dbLMLePtXub807yTMtRIz5i3A3LHhcQxEM2gnLIZSoZ7ebU8li+9iBXUCi7AuMgLV4xZtZEIr9VglbLBD46zaIILyytFCkGE2IQ+qiX5kSq6FI+t/9XubKEitm68rzQpxUUMs7BEKLWHsa7pKVOoNfta5lyrP/E/AeuG29xphAkSwx3UGGy62CD4avO5hTAwEU3CplXQKpxXW7Ae6a3f7d+qxG3Wtv/PGjJECSpnbv83aiye/XfmkaC3Kkn20VfDGsq/RE9jnAarKqrpX4nwnYUoGfKiPO9lKKlfKVrNfRv9nRd9Uf+63o33VFv+6je+3YQ+uGB+pxuA/ksZ9pFfx4Kliu8urlfzReamhoOJLdfOB6bRHPofmtLVaNcFe9hFr4InEmo46mrTNmWGlaZ0RbERCLZj7IlXGy2iP4K3ZwIsuLRUVFDp4VOZdb8NfiutuxAtv8WD0VTKrBkEoF8V78rpUg3+Qb5PEyWLHbzZChxMTbx+Gue+RdE6UAPW0wKBF9VPS2CLIV87UN0Am8uH1zAiWTVbv2M1Co+bao4MS/s6ehU7h3r3E8JYvG+NRGUCzrkJORN7jEuotR0EnYRj6uNVCSfal9fTCoYT9wgS0WJPM6D+VCJzLvKYvOSkliSNl0372gUu5JkROkYZyFF2ugc3lxikZnkBAqOm7vClAvan9TNecR2uXg68ozodOxLZxoMOtDTvUJevOHez+H8KhpPsSxjBCKx+UsLG+Azunz+5420sODpKNVTxvHvP8ZhE96ztmSag6XUWLuimrvsVuZ0Hl16b738fGbY4YbrEScvtQbB1ie3jp4FIRZZlVZoejkHG4iIz2MV3R6ao9eSodObujCfbMf/0v8ALNR8z2dVmvZM2bJoG5/hg5xbv/Rq4VFrlaec32PbeWZktIb/ziSDv8/pH28rPuqF3r36dOn99cv9ej+4ry50KHsednNty5f+d6dw425+VHQvm8AyMyZjy3COasAAAAASUVORK5CYII=;" parent="1" vertex="1">
                    <mxGeometry x="270" y="380" width="50" height="50" as="geometry"/>
                </mxCell>
                <mxCell id="95" value="publish" style="edgeStyle=none;html=1;fontColor=#D9D9D9;" edge="1" parent="1" source="6" target="88">
                    <mxGeometry relative="1" as="geometry"/>
                </mxCell>
                <mxCell id="96" value="setup" style="edgeStyle=none;html=1;entryX=0.03;entryY=-0.006;entryDx=0;entryDy=0;entryPerimeter=0;fontColor=#D9D9D9;exitX=1;exitY=0;exitDx=0;exitDy=0;" edge="1" parent="1" source="6" target="29">
                    <mxGeometry relative="1" as="geometry"/>
                </mxCell>
                <mxCell id="6" value="GitHub Actions" style="shape=image;verticalLabelPosition=bottom;labelBackgroundColor=default;verticalAlign=top;aspect=fixed;imageAspect=0;image=data:image/png,iVBORw0KGgoAAAANSUhEUgAAASwAAAEsCAMAAABOo35HAAAC9FBMVEVHcExQgL1Kfb9JfL5KfL1Jfr9Jfr9Jfb5Jfr5Jfr9Kfr5Kfr9KfsBJfb9KfsBKgMNLd75Mf8JKfsBJfb5Jfb9Jfr9Kfr9Ng8dQiM5Ph81OhcpJfr9Kf8BKfr9Jfr5IfL1LgMJKfsBKgMJOhMhOhMlMgsVMgcNLgMJLf8BOhclKgMJJfb9LgMJKfsBKfsBLgMNLgMJNhMhPh8xNg8ZKf8BKfsBKfsFJfr9Kf8FOhstMgcROhspKfr9KgMFZkcZIe7xKfsBJfr9PhstKfsBMgsRJfb9Jfr5KfcBKfsBJfb9Lf8FKfr9NgsVPhsxIe7lKfr9Jfr9NgsZLgMJLgMNJfb5GerlLgcRLgMNKf8FJfb1LgcRKfb5Jfr9LgcRJfb9Jfb5Jfb9KfsBJfb5Jfr9KfsFGfLpIfb5Kfb9Ke71IfbxJfb9IfL5LgMNLgcNJfb9Jfb5Jf71LgMJKgMJKfr9Kf8FJfsBKfsBLgMJJfb5MgcVKfr5Kf8JJfb5LgMNLfb9Jfb5Jfr9Jfb5Jfb9Jfb5JfsBJfb9LgcNLgMJLgMNKf79Jfr9GerlHe7tLgcRQh81JfL1JfsBJfb5KfsBKfr9LgMNLgMFEeLtJfr9JfsNKfr9LgMJPh8tJfb5Qic9Kfb9Jfr9MgsVJfb9Kfr9Jfb5TgbBJfr5Kfb9LgMJHfr5LgMNJfr9Jfb9MgcVLgcRKfb6Fs96Dsd6Es9+Es96Fs9+FtOGEst6Est6Es96GstyFtN+Fs9+Fs9+GteKGteGFtOCFs9+ItuOIuOWGtOCFtOCFs9+Es9+GtOGFtOCFtOGFtOCEst+KuuePwO+Nvu2KuuiHtuKGteGJueaLvOqOv+6FtOCFtOCEs96Fs+CFs9+HtuOFs9+DsduHtuOOwO+MveyDseGGteKHtuOGtOCEs+CEst6Ht+SFs9+HtuOFs9+It+WJuOaFs9+Es+CFs96Fs9+PwfGFs9+Est+Fst6Fs9+Fs+CHtuOFst+It+SFs9+Est6Qw/KFs+DyYsmOAAAA/HRSTlMABBw4UWJ+k6+0sqx7TjYZBi2NuuLy///////giF0oH5rX9P/////////w1ZdaabTt/////+yvSKT////poAMZcc/////JbRaC5f95F/8QZt3/1bouC/XIwzHy/fzu78GcRpi+2gkmhiotUkTj5qYhJOndVfi3vPxL9/+VPPkrLPRYPkB2gOvM0g/MDhT7/zTnOkJ0//8SqQxv4P+f/9LG/Y/3HgHZYI8Tr/mK/9myCRYpPFBVQTMeES9ji7DP7/z////24MOeeESW1v///////////+dzSZv/wG8bxv//Ddv4pzhb02mzI+b6f03/ov+zyr24rruF8ZHP/3sC67hSAAAqrUlEQVR4Aezd+VvT6P7w8Q87KEVGh09IFLc2TaMDY9MwQJAtBYRgQBRUHFEWQQdUcHBFUVEUB7GggCKDO6Kj4/kbH7/zHJo7TZcEevAq4+tnL5vrzZ19uWE54uITEpOSU1LT1n2Vtj4lPcmWsSEOAnyX+UPSxk0/ZiGVTTPUfzF0NoVZm9O25Gz1F/tuW872HTvt2Q7WyblQx8U5WT6b2rX7p9x4+A625f28xy14nCKG5HJStD3/l6R/ea/MgsL8IkYSMSJRKmb2lhSUwr9VWXkFK0teNEmsFNiq6n3wbxRfUyu7FbREsRdtrtsP/zb7ampVD1rn9aib6+rh3ySu4YDQiMvkEQ7mwL9HwiGGwhVw239ugn+H5prDsogroqi70jPhXyDjiODEsFzcVxFyVspHW2DNqz5WHPpYiuIZRlY9vx7/9VdKLWIYngp5sCrKrUmwttWXFLMhDqIcsvvEjpNt6Um29oSvCmwNyR2dp7Icsj3EoVijvaML1rDuI7QSrBRbzOd3nrad6YIAzb/1bDm5h2FYEY044eg2WLN6z6poxDHuc+dz+yCk/pz1FxwMhwZe+vcEWKMGWnk0kOiLl3LKIIL4pMtXVCcaMBeuwpqUc40aNKbKup4BptzYvkuVMMCg+3AirEG5Q43GjU7W9Ztg2q2U2yqHAahja7BWjqGVyFwpuQmWtJznGG9grbU3toavBbaS5KN3wLL2I4JkqHUV1pS7rRTqMTtHMmEZuu4N8ahnv58Ba0j/WX4QSYowmrDs8A8EBUmDzIF4WDP+GFP1rSR++0NYtvFCxok69MlmWCsKaS+SqEflsCLJlR5dfdHXAWtEHqPoj41abbBCuccoXS3OngNrwsROVr+FmXwMK/bkvl1Xy7PnFqwBXVXFulb8ZAZEwd09Dl0toTMOYt9pQb8Okq1WVosia4lFUxDzJoacSKB2ZUCUPDnMIoHd9QPEuNKT8iBqpEc2CKq+b9u2ZrAml51GgnAJYlxSkYiaGb4cgugr33Rq72TtwXV5/WBFsqygRnH3QEx7esCNBLUNjB7WXBAYimVZipHv/7QVLHgmIMGxuxliWTKNhKKKWTD4bdTH4hIpuzX5DzBtfIfuNEp9DjFs/6QHNZXHJsCgZU5FEiscHADT7up2H9SBeohdyQJqxD9HguTcoWIAu6ew2/KBSewPrX21HtQwVXFgMP8CDRT1fl0mmNO827FGhtZzFTXc0A0weHyFwyBYdawAzLkqcahhkiBGdb20o0aYB6NCHwblZa5s3wampApkrFelEJtslIJ+0u1+MNi3l8UQOHrO3ChpuuhEv5nXTyA2nVdRo74Bo0RWwZAo5tIEmJDyJ2qENohJ205IxMDK6gOj0zKG4ZKP1TRDRFvfTqMfW7sPYlEDWYJOgSBKfOinONFAUkevQkSFAvp5+WGIRWnF6MddbIEg1slaq6wTzAwG8vLOkniI4C65S5XPQwx6d6IS/ZhNECGWZ3dLCeVAA06Yy4HwFl7x6Nc4OQ6xJ8ch4hLRnQPBpBKx3mfCwEHaiQaU45dbEFY1cZta8dgg9szT6MfuHYcgSi8zRKynAE83XisSgxzR7ymPgzC2ZUnoJ7yBmJO5wxNxQ9I15tbHArhzVGbRgGUOTUAYaQz62ccg5vz21olLRD7XbCyIK78vKBhIlHeeng234xWJg5R+iDWLDhcuqTzxznQsgK3PPO5gRxFH7kIoW287cYmL6oFY8yYb/RydYCEWQO7vwTb0/NCHpxDcQhWFfr57EGs28egnn7YWC8Y/DDFeDOSkHxRAcG8E9GPWQ4yJ28ziEtGeaC4W4cmrYBt6/tFPHyGYxWKtLbV7AWJLPLEVkbK2Wo4FXXX3BRcG4rIfTEAQE8TuRMp/B7El4TiHS6j3zaZjEc785abQQN5zF4zqa1kt6KfHEFsS3dqw4DvBfCzS4hzNYYBB+55gLarsuMTlGYDYspiNfkzbMmNB/PUrjKGWfKoMDM4z6JedB7Hlno+IlQ7BLXTy+lhG7aNqJQbI7gh/ZYyugdiSUox+RUkQwjo5UiyYvbdTFVHHebEJAlULMXx2mEqhn5BoPRah6Wfeg6RgVxJzyNX+PMSWNIrY4LZbi2XQcFblkGA3PtTQY3fFbqx1WizueMIKY8G2EkkaRD/u7U0I0DujfI+1ZHjPNPqJ1A0I0M59j6V5Rn+PZTZWQyu3dmORG3iqYKWxmv6iyG2W03iyOcCLWqxnEFvWu6N26ADNybsEBQn8WGbYM4bCWD4obVhRrPYjKos69GkINBXLB6XJ5OlO8gpibWtzMqgn7eyHQJ/l2LxUalwt5pcdayHvrPHCQ/ZpMHgWyyfSNoq4RHMyzB3+sLEmgnzhZ1AYexj2Eo3C9kBsySAu/nkO/AFBZVa5w8Wq/3w4yC3XonNnwGCcuPg3/SkBYsuGLCcucd7+YTnXswYOChIGEoW5x2CU8IkjLitvgNhSeoBFP2bAeqz+QtaBBqxwqA+CaBAwhm9YQBp5K+yz1ViZU/dVLtiXjUJ8NqtDxpg7JiVszEY/+yuLsZ4cZVg0YIsOtYQYxxUU+mUnQ6zJIe5YSCf6zMQibrEGe5ZG2PM8DoL7gbgTpry2Qaw5Qyw/MjkWYi3+LjjRgHL/1Q2hVKtIPFixDWJN3G4P+hWvh2DijjoMsX77y0EFfdB70eSzAvYqiD0dNPr9nV8W+Qi+/p/70K2qggaMtD0eQusnbn+j7zPEngFio+VlGiLGOtAMUDAm/I0GkhDhmeUp2UscvxdA7NmvewC3M1IsZWi4aZ7j0UCUL57+A8IpHbOjX2PtU4hBqUXkW04JEESajH6K91eeQwMPcygDwut9PYN+8jzEoiTZFeE1J0iVUaMEScWpZ/MWrLz867UPQCwqy2eROD+8CUYd2RiOl3GW9EEkGUNEZc/meohJJSpqfG1gNMKLGBqrHmm3+la5kAKx6Yk0QwytnTfB4O60ghrDEXtdF4C1gcUNZUBsihvjUfPnejCYfU9hCA7q2VYwY5OM5F53AWJUAyOiH/f6KhjU+DAoVnjQA6YMk2+Aiu5hiFVPf6RQwwT5qkN8LYVGM0Jr8iyY8vGAHTX2HbMQs0YEJNCfwWBR5jAQX3n+poWTKkJRHsSuj7qhNT10FwzaXiiB+8CKRDDLJpGt7e9nIYaVF3tRw5/aB4Ey51VWd3nhXHkzmPVuzo4akWmAWNa8m0cCvR6M6o75KvEf3kph6Kc+MK30Eo0EZiwTYtqAW0GNqN4Do5aSCzwjyzLjuF+SABa8UUUkd7cFEOPShEHUTFfmQBB9uRvXXVq/cbgPrMijOCTQ5yHWndnFIoG91g5R0vNIQkLjhT6IeXWCFzWDVOtdiIqrxzzkmFWKqyH2ZZ4sCnidJCq1CgI+6yqsW4A1YOseT0CtAlixHn2rQfu5d7AmLLo5XS33tUVYobxHnkEkTL/ugTUihfbqarFsDaxE6QdK0rUS6dOwVjR30qjDCX9tgGXru0RzqONblwlrRtkXGXVE4ctVWKbE3wUv6qgv62ENaTnnRj3HlQ9PYRn2/SQZ/qu5blhTnuykUG+aftADluUeFDjUs7cmwBqTeJjCAA5PWgJYcueQ3Y0B3K29QFiztRT5eGEGmHbjmUtW0DCu2mENSjzmxkCc8OlZ+wKYEHf1r+NCkKuq93thTbp7TkaDadlZVd4PEWytq2BlDg3UuQRYo5oO0iIaKHZ118/PWxYghIWJqUu7VLeCBiI92g1rVhl5OEmQGGFnxU9JN/ZDgA03Gra/fCvwTgzCKaz/CGtY6UaWwqCclCx/mqxYn1K3mGPr7bXlJNW9SX05+asqU9MYlPtRDUQUf2Mg7971tra2+ZTkvJ6MePjfiut/klte09H21ee6RVtLPazI8FlBxBA4luKLVNrXqCiebFqVeYrlMASFnrNBWKUZefMVk8ftPpX5P0VqtvvT5Nj2RXKFj6aHT6ZSd+SLMi0z/0dWafb25pMbh/th+bp/ZhoxPGVmxoXheRzr30EYme0fKi4KjJsl51gWp1l3kXy7ouZOHETZR1vJAYXmKYnzkp9e9djl4j2dIy2wXAvV9+kZXBGOPtcAYXSnv6wU3BwG5XQLM2NTfRBFEx82U7JnBoPxSryw8/LiH8seXIV/8yIumxjhk95N21t1O08jzi5f+HAGouTqX0OqR8QwnAxzKn0/LJNtlHHj8njtjqPtENrW7TsFCSNihWPX+yAK2g9JMoeReCl1Lv0pLE9zw3vZLaJlLodckZMJIdXXtNJONEWiL9TNwgr1lVyRFTTFI5zKgWX6WP7SznBoCVdkr2p4CKHZDgosmsYKo3dhJRbyLvg4NM1O/dUNy9Q1fPmK4HGhSQolXEzryYTQZj9IPFrCXKvJhGXb9hffiFYowoUkWLbHHw5QqkfBiGYoofH9lgwI5+YRmkOLJOFQPyyT7aygoEUe6nozLFu9bftmiXazSphQrMM3c+D61VkIy3auCK0Thbk7sCxTj+zLOuo52gcrUF9Q8+qCxA9iIHHGyVKyTznbmd7bDBE0XHNjSIqCIfGtw7AMKYyEoXgVEUOSf2+BlYm3zVOoGeQYQXjBKLdrx0qqC/ZBZOksO4hGMxLFCC98LOvLFhhKCtZskHqUBJa1ZXPBz9jcMv1ClqjsbJX3OIM2Kz7bCyvUK5C/OXl+45bnSQVN9WBODeNEA87t4/Krzp+uzuvpyXv+ufBlvtNHcWjAWq/VJhi7e508fXzyaNu96qTE3OqRN6m7s+x0kA3yINP6BFYmUUYNnwaWPOenDYvuES6+qrm6YQH8SuMTT1dcUVmvsdYiWLKdNjRQ3HLWpqm79aCJ61786T2rOg21+AstUYxlryoFC3JfSxiAkg9syVgAg7g7KZOyBwN4DheABVuyA1u5eGp0qhuMmm2FbwXJMLY290Uvlmd3F5iX4H/6aAmrHswbhxDK6uZUCfXs586AaXmGc3S3++hAJoTQ1JFlOCGSq+qjFqtxh4VY+08x+lYueU962GUp27JTFpE0KFQ8BJNuHGZRhxO+5C5AGL8VsnbUo+ejFks68RTMWkjNRh2J+eUmRDDRKThRx9cG5nzcwaAOJaWMQwS2L7QLSQrTEK1YzrfdYFZDsQtJ7mtTEFlpzRUKSYp9GEyZ96GOfNZmZvgHTtjvaT0TpVic2A4mde/xIEme6wVTelr1x8HU3H4wocfDIcGrvtoKpqQ/YpEkbCqNTiyRqQaT/iPoWx1sApMSahkk+TogsvpTDiSI9M/1YFLSkK6Wi2mITiykO8Acm/4PLYy+A9NaanVja/rRDYjoNI0kIW0WTEscakQCVVsWnVie910m32lkdEd71p4+arlgJ2oNFl2Ogwi2Zv2NBPXSLFiwqH8aPftzdGIpnqsmX2l0kYl3TYAlvdck1IjuHktvoQ0yD8bBkilGQQ2bvy0qsZDpNDeTKa97IWUYLKpmZlBTfHIBwurOIuM2traARfMCEnyfoxNL5OsgsgHKFf7T59ZeR5959ATC+uxDjeJYBKvqX/K6obUhKrHQ+boaItpUpHuPtR4sK9O9Eqk+g3Ce1rKoEdaDkaXJGFEdiU4srKyMOLZajhO/rLA2WIbFYheG/dIXIYm83cku72WhDgE17oq46MRCJ19SD2FtoVGjpoIJTxsKf04d6Qe/hZPFqJHLTQ9kIR3MmEi/3jFyE/ziyRmOuSt3oxQLFfpBL4SRWeGw+kkH2xdZFlS5lRi0V8nr/0y4TXxflhP9PLXjps5yrhQzjHxsozaC0gXU0BtXHIucTC3MImW4yC/2mBlYw9cYL37FvvhMDC1ivEzfvmluhk6UzQysd6MvOPxKevEs09+PHFrU7rioxcJp4UteM4RwT0Y/F9tuppVnaRX3FMCSXLeLaNAAIf2ikjuyeDOt6KWV5MU94u0c9OM+Zaw0FsnNjCaFyLWJWHh7RaaFVjgopMGShz+ypqZWeTpZSUSdN9PKh0sa9+4P+kEY31Q0Y6FodzwofwdG47XEqUfRPVOt/NjJDUF3UFTo86wnyozpgUyMK8O+emHMTkQ/H4VYJNEt750veAgBbjgVXDKjZERu1Yia6U8TsMRGbOKdt29BCFNFXm2g/PgRIogf9SHhxXNYkqyiX+P7hejF8n/EQDp1fWBDKRAaKJGYiqfLxLgiOLPOaEM0v1L7JYct9K1C9GNSI7eikSQ0wJK7j2aIP058lGKRFA/Nnnj1Ie9J3x9dmf/oKEI/4XykVkONSLKTV/nTHOhXvHHrD8HcaqqiiFjPLbbilDuw5GOttiwzMzdWGmvGGbSX5M62Y9belxUvv6o4wRHjYQR0FsK0Mn6B/7QPNcdvvw3uV/Jp0ccRWlXQqFNM7oA6efQrGlhhLOXECUbEoETOWemh/sENEhnbQfPkQ+erwoZ6XSv9zbLBos1l+llKyRDTwRFLJOX3gaYsb3taSd7+cK2c9h7QpJDzIkytMBZVNXFZrkTzlOPdsORpyetsu1sQHjwJ3Yq/kAFk3eMcWkKRs5XlzNECLwhzSUQrAXWm+WQgPC9GP/nNSmNVwMLIMQZNq9zr30xmbvr/B81eeVeBtg6GbQU3s6bREuYk+FW77V5E9NrtU+T2ijTtuAekHqIllbriWJkAN8Z802iSR7s6M5W9tLq4d9lCtUoAnfh8CS2RN8GSW/7XTp3/rVUW2MrJ3wv8sqqIS6i0aMSC5i3EbNLhURVd/s8Iuv1RPI8Wjesg2Uo7XfsbrSDnQbr+QovinvqnlS9CK8j4lZjed11UYgH0VsmUyVhL25AJ8gOVjVdyjK0chlZQutljMVaHduWDQqLWyNdWhu3VveBzIUc5FnSV/05TlkZWosdFhGHfdmSFGFeksr0SWkGcQY6fkFDjlGqOBmm1OrEAxpO/MPwMRuA59XRpx0bGwkGO4SK3gneWt1mXtRmsK5GgODzGbbtBgd0b3W2W33helSK7FQzH6b9gEn+iEo2IVo/BqOm2Ey3hX2kzFssYxrQ9GYyG/0Q/+7MoxCKU3vjwgJMZT+hgiug//Z1/YbkVtCtWj7Pe/6HNYiOiEbkOGo2Qx1mfoxKL1Pw4/fJmTmZ4B8VK3FfOSpZop/ztP/3t38sPWmwFDQJqnFQICnka3u1fsio6dCtHMgTTxpBXI6IWi7TvzuLGdWOn9p44/uvx41l7934ScYmXOEJuP+YetNYK3tBE9/zd74PZ8f6tC5eInl5Y0vdAxuCc5PaK9MpBPB4ysNJYY3EQSn3f1ozHCY9v9fV1uL24RP2F/A6ZfTBoq3NkK9JJcurKuq7ZoB6Sp79MOhC1iE1QmOOroDd4ODFhWXcfZyw+rLxIXM9qJCdvK7jvsNQqnrgp7wr9kEUKeT3rEpC1VCvjCq4SbydKWeNgXQJxVMuvAxMmOIW47HAXNAlnmSCtEkJPqEQu/FYIodqhrYfs3g0AYddEJ58c+pOhutPgZXhMxDI3suo3N4Y6eZ8gahnGlcEzcgvwMi7kEnpn0M8xDLpagmFchWzVRX7YXZhfnViQSp68H5gNVytcqzLiqjIWdUAos5tZ4t/9B/S16LDbK1KvU4suytWrFGuKCCLahyF0LSZMK3gue4ndai6EVEKHnpTj3VEh+PUro0IZ/ZyfmlYp1m/kNTvmZKmxlol1ELp2O9Dv73BPhizavaHnFP7YSZtr1b1TMkzWtQqxMsccxmcFiVoyOa7MPRrDhPtlcq+JbP470Bk/SYvht+3GG9JIJ69WLKiTUcO8ygSdli8vJEVUnC/Ohms1u9uOGjkJwlivosaXAnrjnS9YlygqPHMv3Oqw02m4e7kqsfrfOjHMhGTvSvZIdvb2+TMQRrKAmsbJfRDGgJ085Tk8Edj98x6Kd1Q+WIQwUlXD5elViGX4U3sm4w0rTk/1QDeE07SrEjVCB5DC7vSxqDMOArzLKX9e0Axh5OgmKGGSVjFWL6ugRrX+feXMozJqpi+2QFh1Pi8xlIVksKpvksxNHXi4irFKXzGoEYtHwKKNPhE1QiqEVzbpQY3zWgFYk3lZRoIvGVYjFjkTukZ61AOWNFAcarjIr1jcE1Az6D53BixJIUcmen7cv3qxDBcqB6nWx2DBwBCLBOE8RLK/lkICf3AbWJBeNIMEoRxWNRbcucKRtRznEiy0uqi7mSHd3goRVcteJNBH4sG0atapK717dlVjGaYpGuTvXwWThvWtkL4HkWW+KkKScPAMmHSakpDAvbbBasfat9muq+U+nAemjDxiyVaDTEWzqeW8IiGJP9sOZjycl6eRRBfCqseCnkZOV4ultn+EiMoC3yyVhu6YHCCqiCT74ZFSiGjiCK3o/6hzG75BLEjJ9iKJE3bYIILcOVpEkldNB3PiOgUkDUp//twE4XWN7CpGHcl5Fb5FrOaTquH76YVnIIyM9R4K9bLXlYJJ3efcg0gS5V01+yEMWxXDoo5LqIFvEgv65phB1OHU1g9NIX+p8KKsoF7Rg31gWsEQi3qSMJe+DYLrsl1yMiLq+dYvfKNYcKOVGjQs/sX/5MaDwbukTUE+aM2fuwUWNLidGMAjX5hv/wgGZ+pG2WIFA6hHZ+FbxYJE/2wpGq7Yvnf9VEZZpn+vH/94JC3fwXAYyHH/BlgyUsRhIFZmT80nNe3zr86z29pPX/7E2F0YSNixAb5dLMgdMtZCr6S6ub2vUks+Jye/KVlXlT/tkCUvBml1Byza+CeHBi6PSnk3H302fzr5XkrJpZdZLMNwaER/6YZvGQtydwa9Dy0qkl3OlnlezZbtkiJiEEVEK9PqKBaDEGdYXsiWeUbIZiiny4tBCKPd8G1jQW+4r9h5vRgS/SUDluH5FQpD8Yb5PcXXWQbfOhbcHKUVtIzzHe2HZUm8IHvRMlZum4VvHwv2lfAsWkRR15e97LeO+qbRouLD5QDfLhapYY+goAUzvrM5sHyzG6cZL1rgpI/cgG8ai9RyyeFGs7x847N+WJH2UYFFsxTh4umHEBUJK4lFzmKkerymUrnV0R5Yqea6C3SluVS851ICREnvayUasWB25KzsdmEEikN+kNcFUdC/cY+v0YsRcMWeIzaImh4BVxCLtL/8QaMsiRiSKAnsaF4zREn/57NMMYehuTyC95AtE6InUV5ZLFLzwC/5DpVVvGjgVTyqO/+8rQuiaDzv0PEiWRK9wY6K3QL7e8oNIHzjWEbvGlJ/lBwCz864xP9ycSwvOLgD5xfjIeqa0i/lexjVLSnE7zUygttV0WF7CvDtY4W3/87Is1e1yHrc/4dqZI//+Or8yONx+B95V7AltSKfW/o9lv104HJbQ0szkFY/lnlxZbeeDD+vrq5+Xj1w90xZHPyPNW9rac/55/caEh9vHQfCqsb6buWxvsf6D3xnOtYm+M766yjffY+19mPFZqzvbOZjfZdkPtZ35f+bWJn7+jIKhgcGhgsy+v5fdfcB3cSVLgD4N708ON42QgLSbFmr5KRIdopFngljqngmoe2hp1DTCzU9sPSa5ofh5NCetrCcjbstU+yRG8UalRkbhuJxN9WYDtvT4/+qeYos/L7DqdT5uf+dOzP/vf+fo6HDpWdkZmXnfCs3L9+eBB1kGwqW/tdp4YjTvcvnb13/9J7pqZZvWWfsGTPiqVX97k3qsDgV7D9w8FBhURHjYByO4qKS0rLyw0fsHR0sy6xxoNLcz/eN+GS4NkVjMRis3zMYhpvMZstvpsxfEQ1hZ885eqykwsm6GLfb8x23m/FyTt5debAq09aRaWh5XGWw+g96KFVrQoeHoAOfYrVLd4yeCuFkO36issLpYjyCr2K3g+VLTp463YEj6/ENoMIrjy4ya1KpoAwa7Z4nXoRwse8/w1R7yUBhxYzIVh7NgzBaSKThUBWhmqJpv+9nHG2ZuAzCoaaqVuTcQmjF3uq6+gYIm346tC1kz8ug0IqJJp2VksCaqN/bH1RrbOJdxYIETHXd0XwIkw8oQ1ueTP89KDK0ZzstUrFU86JBKufGzIMc116oULgqmyE85qHDc6z65aDEk3+VV31gMa/5AFQ4Vch7BBlc7NlzEA5pczSoHHYVyBc1elMsJZNu0VgbKJRRz1YI8niqz+dAODyPDuSgtypIwSfMcZRsliFvrANF8pqcHkE214WLEAa70Qw/fmAayPTx2s2/pRSwbp7yf6DApUJRUKCF4S+ng2qDE9FKaEZ/kKfrdjMVkEEfk0jrdLTOpA+y9EqZ8BHI1njB1RJ4UVXBsaz47Q/O4Qmciq1XakCtSXvaJudkeqXMspLHAh0EZYjV6ahfr5+95I03lsweNobS6WIMAVvKfiQ/VhUBYsWIIldSevXa9fIbN8uOVTpE0eUJEM/qkxmgUtQwtGPJOMUGMmxZ7R8rq4mesf6lh/v/9GV1bpf+D780bEaKJoHylYijJS1WXr9YuUW2sOzWpYKMJPhezbms5vraCtYr+Gm9rjoTe9JK8/Ce7Ua/UOn0O3ps8Yt4dP/598cY/ZZi5rVDQYbj/uOK4YuuNWeCL/u3T42i/6rVecMG6ryoRzO0uSdItnFNos+4StDpJwYrlElbPnt8bLJvtJbMBcnyCn3nKzd7u7wBAjt96pjo8s1E/g6os+45DUWcuSRV3wEUabxx9jII4ZU1Oj1FGvACSJXRxPrEinPUF0Bw9lOl1W7fnG0GTGX/HvN8kGilzxNOQsrbI6MgpLljH6QpgkH6EQv1rQLW4nY2HYfQTh91cALBW5IHqnwQl6qgj1bXRcPJyzY/Ok/CvddnsyQ1Xmrbz2bWQ8TK67pjh3ZlV/JkiNlDNaBG1E4jJXvWmrw+kdwqGb8vCiRIu08XR/b7nS3l99nOFVYQF83d3g9SnLvp8xzpPACqdNfhV07S9uGu0ibjS45f+ghINFZvoZBkaed+XeGJWInnc0Ga9HIyWkxdVvimeMo4LA3ateABPRGractBspFktMY/3QXa1ch5yFjlgVRJ5dVEtNiyKLXvlhHzPmjXVi2FWDY9DDKMjP+Skpf4Ncc4IgelxApFi8UrrmJ2P6ixgRhaX25aCO34DHdHolJjR4Isq4i3qnG/mwrtqOKLUawqbsvLpKQbTgHhjqWHcWhpZvaX0hhZRevMrVpZPdbtpS68WHLJHRr2Q2ILGlqiuqE1eZiROJjinTchlP6LDOhX0zsng0zjHjLiLP7NPAipmcd55DwKcuXd9uKh9bdoUKMf+SKFDn0yzgtafKkPTgLZVnwYh4dW6Fky6m8cvlQlK6VTIgq3h8sGZVBiICmhojV0lh7f+v8LFNiNE1kzcB2EcAR/RmUuHAf5kspEfEO8orL0/m0NhdFrg4+XR/C6LEbZoUEbfx2PdtmYFkIIl/H8zNeDElkXGBTwkkxQZXCMgWy+9PYyCMz2Kxo9EcY+DIpsS0yW+PLfXunF11kAitTzOOJVoM5XmykiWpoPxyZBIG/hbgqx66MVroQHavDCdCgElVPhQZdZDsrk1aGhxZWBOuN20OTrqbjEvW8FzEIjGhNDngWF8NF0Cainl58TTvywkgcKXWGFnzkKz4E6kx7UkNFKSFm9cnLoe4EeNd+V6S3cxJfuCcGkH0OLLPEaKJXt8qheaiHd/E7G0dMjFtqAlIZPDaVfAMX6oPcWpvW2oPlThPJHxUXWlLrItZpK20xfUqTkWM2UhdGAfTTDSjYIUKo7OoRoePCTqPejZ2hGTfocRXnIXQXVeqQY/D9BxK9fiY8wXI76EenROb+y4RuF1fIkBHGnFQ2sMhsols0Vo0nLDqrt1v4cLbQK0v1m8TNTN8APRqN7fkpvUAE3EN38CCCoDaftOlpOsrdAuXOFjrbny6I8UG++yUL5i9MZkx/q1XPsyG/tiG9L0sRBQMg/fPDkjap88JN75/rN8pxoIPRMQd8QewIh88DZsh8UonmZOw4qXOXa/iTXJQiDL3ahtoRtklM1KUNiNCaTKQ61GdUvBKz5PM+LPH++GUj2ei/PstXcmQLARqKVXezXgJ267eTFH7hbwrXyvozGaGszhMPgB3RUEMkJ38LzmXUqIFXsD/ebCrYKsJqyv7uFb3mclcTFLjNY0e0QkP1ihRBARa0dVPgHmuH5WxAWKyZoJRbGxM3qQqyRf7pCL7l0vNX608zaeg1P0FtQmYUGd8HOqORahAC4qzZQoRHfDi9DeHR5IlFPSRH/HF6Snmi7bTlPAL70n4eJpyIX2tz7uCXw6raZFwJir4Eax1Eauq5AuGwLfW4R6pyJ35O70Ou1dFRShYqA+ItEPypL4E/h9awQkHgD1GgocndEsGBSn1hTsrxg2Uu9bZNLaQYaJ2h9I+IhFz0wHq3YULCuc0GCdaITBQt7eG3oc4twm1G/YLlK7Wi2dqFgHcCP7mP0gYN1JViwyjtpsGDDyu0pmtAzffxD6A1n0jU28ORSgB7u+P1km9HAaXjAGWTOug5q5Do84Q0WNmrbBE1KXIjhNfzTofh+//PHzGIiJrZr1T/PZZUZuKx8lgWVs6KMznIwgYNVBmpk8x0ywaNzi35D05Zg48vwF/zCK73s7z/GqrUsnXyl+2NaMWwzIB9Mx0sHQG78XcDwfUOFZhZl9B3oAPO+2DtrvHmI3hDgtFGr5XNATp/5O+fxuLnWM/lAaLztdHg8DF9xEbCHjW3/C7GzAck/9Hev50e4YKgyH1S4g1fwh6FjdOn2y4m/nm4x0QPMuiE0Ovs+wTQSsJqLTR5GaPpHOvjIqy9kmJKb2UAYPYBoPo5lHD3PMO7vMMV4Z1wDqIAfyZ2N0HFGLej2zL6v+i5e3Ps5A/pi9gKQagqOFNRAAKcbcs+Bj17oucqvmc7prCPfyT3yN/TOTlWZQk1p2zOUh8mFSNiGGl7GqNlVnYZWDsn0wxBEuTNMa4eGOjd6JM+HSPgctXMyLPoYFHtxqQHdKrpCEIfxPexYDShWxaPZrzQKImEoWh0l6FaCYoM248ZBGyCI44wnPNlzjUP5fAMiwjY7ETdYt4FCc/8QL+noroxCBl3kHVAqs4RB8/s/IDL2paDSrKVdQaF+49GzunYbBHWdRXlYmgEK3UJZ6PbkQmR8Hoeukv4KFOqdgvvQbYGgDuOCI7E5HF/CKkrTITLSBqL8sexRNsWTDbRiRyQBhP5wqLa26hRbrP6zoepdBgqHVm9aahM921UOrUsVDq2aWjSwPN7jECkrcB4aPvxMWfUcbh36wMuSKkrxrCV/xsIrkHSIlKQRuMhRNyUKZBt3P241lrgYQskvdOAqyTsgX0EJ8Ufcgsh5NjFZXekf2aj4t5pXAAtcR6Om9C+6jBXIGprI+d+BGqLt56sg0yu7DMQ2hbkyaqtauNLT8pMQV/BWX4ZIWqklO7u9CbJMXR1P7FL8o4SyPaT6erTcHbCMQNZ4RdK45zQUQu9cBzK8eb+OkjOw8NBSUv6Xe5vY1elEvztisxaSslhGtO7dQVOINaYfYMFmLcTDHwDp8s5zOFbeSM1YaNsdccHJm5cMlTyuyFhR5q+hfacrXQLi5o4mSR5XKFYRfSzEu3csPs2lPgJJuv6VjJX+wQUK9ma6+Xq7xPnqNhGrFvFQDUTcaG0yhdGvLwQJus/UkcVfic+AJNedAlbsPCRlmk6/5SB37DMXciHy5u40UwSNZfdGaEeX/zb5FDSZpfaCP+dbLMLePtXub807yTMtRIz5i3A3LHhcQxEM2gnLIZSoZ7ebU8li+9iBXUCi7AuMgLV4xZtZEIr9VglbLBD46zaIILyytFCkGE2IQ+qiX5kSq6FI+t/9XubKEitm68rzQpxUUMs7BEKLWHsa7pKVOoNfta5lyrP/E/AeuG29xphAkSwx3UGGy62CD4avO5hTAwEU3CplXQKpxXW7Ae6a3f7d+qxG3Wtv/PGjJECSpnbv83aiye/XfmkaC3Kkn20VfDGsq/RE9jnAarKqrpX4nwnYUoGfKiPO9lKKlfKVrNfRv9nRd9Uf+63o33VFv+6je+3YQ+uGB+pxuA/ksZ9pFfx4Kliu8urlfzReamhoOJLdfOB6bRHPofmtLVaNcFe9hFr4InEmo46mrTNmWGlaZ0RbERCLZj7IlXGy2iP4K3ZwIsuLRUVFDp4VOZdb8NfiutuxAtv8WD0VTKrBkEoF8V78rpUg3+Qb5PEyWLHbzZChxMTbx+Gue+RdE6UAPW0wKBF9VPS2CLIV87UN0Am8uH1zAiWTVbv2M1Co+bao4MS/s6ehU7h3r3E8JYvG+NRGUCzrkJORN7jEuotR0EnYRj6uNVCSfal9fTCoYT9wgS0WJPM6D+VCJzLvKYvOSkliSNl0372gUu5JkROkYZyFF2ugc3lxikZnkBAqOm7vClAvan9TNecR2uXg68ozodOxLZxoMOtDTvUJevOHez+H8KhpPsSxjBCKx+UsLG+Azunz+5420sODpKNVTxvHvP8ZhE96ztmSag6XUWLuimrvsVuZ0Hl16b738fGbY4YbrEScvtQbB1ie3jp4FIRZZlVZoejkHG4iIz2MV3R6ao9eSodObujCfbMf/0v8ALNR8z2dVmvZM2bJoG5/hg5xbv/Rq4VFrlaec32PbeWZktIb/ziSDv8/pH28rPuqF3r36dOn99cv9ej+4ry50KHsednNty5f+d6dw425+VHQvm8AyMyZjy3COasAAAAASUVORK5CYII=;" parent="1" vertex="1">
                    <mxGeometry x="270" y="250" width="50" height="50" as="geometry"/>
                </mxCell>
                <mxCell id="10" value="1. push" style="edgeStyle=none;html=1;entryX=0;entryY=0.5;entryDx=0;entryDy=0;entryPerimeter=0;" parent="1" source="8" target="9" edge="1">
                    <mxGeometry relative="1" as="geometry"/>
                </mxCell>
                <mxCell id="8" value="developer" style="sketch=0;pointerEvents=1;shadow=0;dashed=0;html=1;strokeColor=none;labelPosition=center;verticalLabelPosition=bottom;verticalAlign=top;align=center;fillColor=#505050;shape=mxgraph.mscae.intune.user_group;labelBackgroundColor=default;" parent="1" vertex="1">
                    <mxGeometry x="30" y="90" width="50" height="40" as="geometry"/>
                </mxCell>
                <mxCell id="11" value="2. trigger" style="edgeStyle=none;html=1;entryX=0;entryY=0.5;entryDx=0;entryDy=0;" parent="1" source="9" target="2" edge="1">
                    <mxGeometry relative="1" as="geometry"/>
                </mxCell>
                <mxCell id="16" value="4.pull request" style="edgeStyle=none;html=1;entryX=0.5;entryY=0;entryDx=0;entryDy=0;entryPerimeter=0;" parent="1" source="9" target="15" edge="1">
                    <mxGeometry relative="1" as="geometry"/>
                </mxCell>
                <mxCell id="9" value="feature branch" style="verticalLabelPosition=bottom;html=1;verticalAlign=top;align=center;strokeColor=none;fillColor=#00BEF2;shape=mxgraph.azure.git_repository;labelBackgroundColor=default;" parent="1" vertex="1">
                    <mxGeometry x="150" y="85" width="50" height="50" as="geometry"/>
                </mxCell>
                <mxCell id="12" value="3. test" style="edgeStyle=none;html=1;entryX=1.032;entryY=0.596;entryDx=0;entryDy=0;entryPerimeter=0;exitX=0.605;exitY=0.003;exitDx=0;exitDy=0;exitPerimeter=0;" parent="1" source="2" target="2" edge="1">
                    <mxGeometry x="0.3735" relative="1" as="geometry">
                        <Array as="points">
                            <mxPoint x="290" y="60"/>
                            <mxPoint x="330" y="60"/>
                            <mxPoint x="330" y="115"/>
                        </Array>
                        <mxPoint as="offset"/>
                    </mxGeometry>
                </mxCell>
                <mxCell id="19" value="6. trigger" style="edgeStyle=none;html=1;entryX=0;entryY=0.5;entryDx=0;entryDy=0;" parent="1" source="15" target="6" edge="1">
                    <mxGeometry relative="1" as="geometry"/>
                </mxCell>
                <mxCell id="23" value="8. pull request" style="edgeStyle=none;html=1;entryX=0.5;entryY=0;entryDx=0;entryDy=0;entryPerimeter=0;" parent="1" source="15" target="21" edge="1">
                    <mxGeometry relative="1" as="geometry"/>
                </mxCell>
                <mxCell id="15" value="develop branch" style="verticalLabelPosition=bottom;html=1;verticalAlign=top;align=center;strokeColor=none;fillColor=#00BEF2;shape=mxgraph.azure.git_repository;labelBackgroundColor=default;" parent="1" vertex="1">
                    <mxGeometry x="150" y="250" width="50" height="50" as="geometry"/>
                </mxCell>
                <mxCell id="18" value="5.merge" style="edgeStyle=none;html=1;entryX=0;entryY=0.5;entryDx=0;entryDy=0;entryPerimeter=0;" parent="1" source="17" target="15" edge="1">
                    <mxGeometry relative="1" as="geometry">
                        <Array as="points">
                            <mxPoint x="110" y="275"/>
                        </Array>
                    </mxGeometry>
                </mxCell>
                <mxCell id="17" value="admin" style="sketch=0;aspect=fixed;pointerEvents=1;shadow=0;dashed=0;html=1;strokeColor=none;labelPosition=center;verticalLabelPosition=bottom;verticalAlign=top;align=center;shape=mxgraph.mscae.enterprise.user_permissions;fillColor=#0078D7;labelBackgroundColor=default;" parent="1" vertex="1">
                    <mxGeometry x="33" y="250" width="47" height="50" as="geometry"/>
                </mxCell>
                <mxCell id="26" value="10. trigger" style="edgeStyle=none;html=1;entryX=0;entryY=0.5;entryDx=0;entryDy=0;" parent="1" source="21" target="5" edge="1">
                    <mxGeometry relative="1" as="geometry"/>
                </mxCell>
                <mxCell id="21" value="main&amp;nbsp;branch" style="verticalLabelPosition=bottom;html=1;verticalAlign=top;align=center;strokeColor=none;fillColor=#00BEF2;shape=mxgraph.azure.git_repository;labelBackgroundColor=default;" parent="1" vertex="1">
                    <mxGeometry x="150" y="380" width="50" height="50" as="geometry"/>
                </mxCell>
                <mxCell id="25" value="9. merge" style="edgeStyle=none;html=1;entryX=0;entryY=0.5;entryDx=0;entryDy=0;entryPerimeter=0;" parent="1" source="24" target="21" edge="1">
                    <mxGeometry relative="1" as="geometry"/>
                </mxCell>
                <mxCell id="24" value="admin" style="sketch=0;aspect=fixed;pointerEvents=1;shadow=0;dashed=0;html=1;strokeColor=none;labelPosition=center;verticalLabelPosition=bottom;verticalAlign=top;align=center;shape=mxgraph.mscae.enterprise.user_permissions;fillColor=#0078D7;labelBackgroundColor=default;" parent="1" vertex="1">
                    <mxGeometry x="33" y="380" width="47" height="50" as="geometry"/>
                </mxCell>
                <mxCell id="28" value="12. build" style="edgeStyle=none;html=1;entryX=1;entryY=0.5;entryDx=0;entryDy=0;exitX=0.86;exitY=-0.035;exitDx=0;exitDy=0;exitPerimeter=0;" parent="1" source="5" target="5" edge="1">
                    <mxGeometry x="0.3988" y="20" relative="1" as="geometry">
                        <mxPoint x="294.9999999999999" y="370" as="sourcePoint"/>
                        <mxPoint x="319.9999999999999" y="395" as="targetPoint"/>
                        <Array as="points">
                            <mxPoint x="303" y="360"/>
                            <mxPoint x="330" y="360"/>
                            <mxPoint x="330" y="395"/>
                        </Array>
                        <mxPoint as="offset"/>
                    </mxGeometry>
                </mxCell>
                <mxCell id="43" value="manifest repository" style="shape=cylinder3;whiteSpace=wrap;html=1;boundedLbl=1;backgroundOutline=1;size=15;labelBackgroundColor=none;fontColor=#F0F0F0;fillColor=none;spacingBottom=-120;" parent="1" vertex="1">
                    <mxGeometry x="122.5" y="530" width="97.5" height="110" as="geometry"/>
                </mxCell>
                <mxCell id="40" value="" style="verticalLabelPosition=bottom;html=1;verticalAlign=top;align=center;strokeColor=none;fillColor=#00BEF2;shape=mxgraph.azure.github_code;pointerEvents=1;labelBackgroundColor=none;fontColor=#F0F0F0;" parent="1" vertex="1">
                    <mxGeometry x="200" y="20" width="50" height="50" as="geometry"/>
                </mxCell>
                <mxCell id="42" value="app repository" style="shape=cylinder3;whiteSpace=wrap;html=1;boundedLbl=1;backgroundOutline=1;size=9.176470588235418;labelBackgroundColor=none;fontColor=#F0F0F0;fillColor=none;spacingBottom=-420;spacingTop=0;" parent="1" vertex="1">
                    <mxGeometry x="125" y="60" width="105" height="420" as="geometry"/>
                </mxCell>
                <mxCell id="39" value="" style="verticalLabelPosition=bottom;html=1;verticalAlign=top;align=center;strokeColor=none;fillColor=#00BEF2;shape=mxgraph.azure.git_repository;labelBackgroundColor=none;fontColor=#F0F0F0;" parent="1" vertex="1">
                    <mxGeometry x="146.25" y="570" width="50" height="50" as="geometry"/>
                </mxCell>
                <mxCell id="45" style="edgeStyle=none;rounded=1;html=1;entryX=-0.006;entryY=0.613;entryDx=0;entryDy=0;entryPerimeter=0;fontColor=#F0F0F0;startArrow=none;startFill=0;" parent="1" source="44" target="43" edge="1">
                    <mxGeometry relative="1" as="geometry"/>
                </mxCell>
                <mxCell id="46" value="push" style="edgeLabel;html=1;align=center;verticalAlign=middle;resizable=0;points=[];fontColor=#F0F0F0;" parent="45" vertex="1" connectable="0">
                    <mxGeometry x="-0.3452" y="1" relative="1" as="geometry">
                        <mxPoint as="offset"/>
                    </mxGeometry>
                </mxCell>
                <mxCell id="44" value="admin" style="sketch=0;aspect=fixed;pointerEvents=1;shadow=0;dashed=0;html=1;strokeColor=none;labelPosition=center;verticalLabelPosition=bottom;verticalAlign=top;align=center;shape=mxgraph.mscae.enterprise.user_permissions;fillColor=#0078D7;labelBackgroundColor=default;" parent="1" vertex="1">
                    <mxGeometry x="20" y="584" width="33.84" height="36" as="geometry"/>
                </mxCell>
                <mxCell id="47" style="edgeStyle=none;rounded=1;html=1;entryX=0.996;entryY=-0.085;entryDx=0;entryDy=0;entryPerimeter=0;fontColor=#F0F0F0;startArrow=none;startFill=0;exitX=0.002;exitY=0.838;exitDx=0;exitDy=0;exitPerimeter=0;" parent="1" source="73" target="44" edge="1">
                    <mxGeometry relative="1" as="geometry"/>
                </mxCell>
                <mxCell id="48" value="image tag" style="edgeLabel;html=1;align=center;verticalAlign=middle;resizable=0;points=[];fontColor=#F0F0F0;" parent="47" vertex="1" connectable="0">
                    <mxGeometry x="0.16" y="2" relative="1" as="geometry">
                        <mxPoint as="offset"/>
                    </mxGeometry>
                </mxCell>
                <mxCell id="54" value="detect" style="edgeStyle=none;rounded=1;html=1;entryX=1;entryY=0.5;entryDx=0;entryDy=0;entryPerimeter=0;fontColor=#DBDBDB;startArrow=none;startFill=0;" parent="1" source="53" target="43" edge="1">
                    <mxGeometry relative="1" as="geometry"/>
                </mxCell>
                <mxCell id="93" value="&lt;font color=&quot;#d9d9d9&quot;&gt;test&lt;/font&gt;" style="edgeStyle=none;html=1;entryX=0.829;entryY=-0.008;entryDx=0;entryDy=0;fontColor=#029907;exitX=0.5;exitY=0;exitDx=0;exitDy=0;entryPerimeter=0;" edge="1" parent="1" source="6" target="6">
                    <mxGeometry relative="1" as="geometry">
                        <Array as="points">
                            <mxPoint x="295" y="230"/>
                            <mxPoint x="310" y="230"/>
                        </Array>
                    </mxGeometry>
                </mxCell>
                <mxCell id="94" value="build" style="edgeStyle=none;html=1;entryX=1;entryY=0.75;entryDx=0;entryDy=0;fontColor=#D9D9D9;" edge="1" parent="1" source="6" target="6">
                    <mxGeometry relative="1" as="geometry">
                        <Array as="points">
                            <mxPoint x="340" y="280"/>
                        </Array>
                    </mxGeometry>
                </mxCell>
            </root>
        </mxGraphModel>
    </diagram>
</mxfile>